<?xml version="1.0" encoding="utf-8" standalone="no"?>
<!DOCTYPE svg PUBLIC "-//W3C//DTD SVG 1.1//EN"
  "http://www.w3.org/Graphics/SVG/1.1/DTD/svg11.dtd">
<svg xmlns:xlink="http://www.w3.org/1999/xlink" width="459.284211pt" height="384.254pt" viewBox="0 0 459.284211 384.254" xmlns="http://www.w3.org/2000/svg" version="1.1">
 <metadata>
  <rdf:RDF xmlns:dc="http://purl.org/dc/elements/1.1/" xmlns:cc="http://creativecommons.org/ns#" xmlns:rdf="http://www.w3.org/1999/02/22-rdf-syntax-ns#">
   <cc:Work>
    <dc:type rdf:resource="http://purl.org/dc/dcmitype/StillImage"/>
    <dc:date>2026-05-17T11:28:48.117882</dc:date>
    <dc:format>image/svg+xml</dc:format>
    <dc:creator>
     <cc:Agent>
      <dc:title>Matplotlib v3.10.9, https://matplotlib.org/</dc:title>
     </cc:Agent>
    </dc:creator>
   </cc:Work>
  </rdf:RDF>
 </metadata>
 <defs>
  <style type="text/css">*{stroke-linejoin: round; stroke-linecap: butt}</style>
 </defs>
 <g id="figure_1">
  <g id="patch_1">
   <path d="M 0 384.254 
L 459.284211 384.254 
L 459.284211 0 
L 0 0 
z
" style="fill: #ffffff"/>
  </g>
  <g id="axes_1">
   <g id="text_1">
    <text style="font-weight: 700; font-size: 10px; font-family: 'Liberation Sans', 'Arial', 'DejaVu Sans', sans-serif; text-anchor: middle" x="229.642105" y="22.117747" transform="rotate(-0 229.642105 22.117747)">Figure 3B. Second-messenger integration with the QS decision point</text>
   </g>
   <g id="text_2">
    <text style="font-style: italic; font-size: 6.5px; font-family: 'Liberation Sans', 'Arial', 'DejaVu Sans', sans-serif; fill: #444444" transform="translate(60.326801 205.9031)">GGDEF (DGC):</text>
    <text style="font-style: italic; font-size: 6.5px; font-family: 'Liberation Sans', 'Arial', 'DejaVu Sans', sans-serif; fill: #444444" transform="translate(47.962582 212.904413)">A1S_1695 / 2506 / 3692</text>
   </g>
   <g id="text_3">
    <text style="font-style: italic; font-size: 6.5px; font-family: 'Liberation Sans', 'Arial', 'DejaVu Sans', sans-serif; fill: #444444" transform="translate(194.05816 118.366258)">RelA_Ab (ABUW_3302):</text>
    <text style="font-style: italic; font-size: 6.5px; font-family: 'Liberation Sans', 'Arial', 'DejaVu Sans', sans-serif; fill: #444444" transform="translate(202.906285 125.367571)">stringent response</text>
   </g>
   <g id="text_4">
    <text style="font-style: italic; font-size: 6.5px; font-family: 'Liberation Sans', 'Arial', 'DejaVu Sans', sans-serif; text-anchor: start; fill: #d62828" x="277.787368" y="59.784934" transform="rotate(-0 277.787368 59.784934)">represses ABUW_1132</text>
   </g>
   <g id="text_5">
    <text style="font-style: italic; font-size: 6.5px; font-family: 'Liberation Sans', 'Arial', 'DejaVu Sans', sans-serif; fill: #444444" transform="translate(339.5403 205.9031)">CavA (adenylate cyclase)</text>
    <text style="font-style: italic; font-size: 6.5px; font-family: 'Liberation Sans', 'Arial', 'DejaVu Sans', sans-serif; fill: #444444" transform="translate(363.985378 212.904413)">→ VfrAb</text>
   </g>
   <g id="text_6">
    <text style="font-style: italic; font-size: 6.5px; font-family: 'Liberation Sans', 'Arial', 'DejaVu Sans', sans-serif; text-anchor: middle; fill: #2e5c8a" x="376.266316" y="129.814408" transform="rotate(-0 376.266316 129.814408)">represses abaI</text>
   </g>
   <g id="patch_2">
    <path d="M 227.915037 192.139108 
Q 163.989979 229.641809 101.029253 266.578768 
" clip-path="url(#p8cebab93b3)" style="fill: none; stroke: #444444; stroke-linecap: round"/>
    <path d="M 105.491381 266.27976 
L 101.029253 266.578768 
L 103.467323 262.82966 
z
" clip-path="url(#p8cebab93b3)" style="fill: #444444; stroke: #444444; stroke-linecap: round"/>
   </g>
   <g id="patch_3">
    <path d="M 228.655018 192.863168 
Q 207.758514 229.641015 187.41433 265.44678 
" clip-path="url(#p8cebab93b3)" style="fill: none; stroke: #444444; stroke-linecap: round"/>
    <path d="M 191.12928 262.956972 
L 187.41433 265.44678 
L 187.651454 260.980935 
z
" clip-path="url(#p8cebab93b3)" style="fill: #444444; stroke: #444444; stroke-linecap: round"/>
   </g>
   <g id="patch_4">
    <path d="M 230.629192 192.863168 
Q 251.525696 229.641015 271.869881 265.44678 
" clip-path="url(#p8cebab93b3)" style="fill: none; stroke: #444444; stroke-linecap: round"/>
    <path d="M 271.632756 260.980935 
L 271.869881 265.44678 
L 268.15493 262.956972 
z
" clip-path="url(#p8cebab93b3)" style="fill: #444444; stroke: #444444; stroke-linecap: round"/>
   </g>
   <g id="patch_5">
    <path d="M 231.369173 192.139108 
Q 295.294232 229.641809 358.254958 266.578768 
" clip-path="url(#p8cebab93b3)" style="fill: none; stroke: #444444; stroke-linecap: round"/>
    <path d="M 355.816888 262.82966 
L 358.254958 266.578768 
L 353.792829 266.27976 
z
" clip-path="url(#p8cebab93b3)" style="fill: #444444; stroke: #444444; stroke-linecap: round"/>
   </g>
   <g id="patch_6">
    <path d="M 109.087674 163.989474 
Q 143.852559 163.989474 176.381377 163.989474 
" clip-path="url(#p8cebab93b3)" style="fill: none; stroke: #3a8a4d; stroke-width: 2; stroke-linecap: round"/>
    <path d="M 171.581377 161.589474 
L 176.381377 163.989474 
L 171.581377 166.389474 
z
" clip-path="url(#p8cebab93b3)" style="fill: #3a8a4d; stroke: #3a8a4d; stroke-width: 2; stroke-linecap: round"/>
   </g>
   <g id="patch_7">
    <path d="M 229.642105 102.525243 
Q 229.642105 118.689736 229.642105 134.854229 
" clip-path="url(#p8cebab93b3)" style="fill: none; stroke: #d62828; stroke-width: 2; stroke-linecap: round"/>
    <path d="M 217.642105 137.254229 
L 217.642105 134.854229 
L 241.642105 134.854229 
L 241.642105 137.254229 
" clip-path="url(#p8cebab93b3)" style="fill: none; stroke: #d62828; stroke-width: 2; stroke-linecap: round"/>
   </g>
   <g id="patch_8">
    <path d="M 350.196536 163.989474 
Q 315.431651 163.989474 280.666766 163.989474 
" clip-path="url(#p8cebab93b3)" style="fill: none; stroke: #2e5c8a; stroke-width: 2; stroke-linecap: round"/>
    <path d="M 278.266766 151.989474 
L 280.666766 151.989474 
L 280.666766 175.989474 
L 278.266766 175.989474 
" clip-path="url(#p8cebab93b3)" style="fill: none; stroke: #2e5c8a; stroke-width: 2; stroke-linecap: round"/>
   </g>
   <g id="patch_9">
    <path d="M 61.133684 307.549895 
L 135.54 307.549895 
Q 139.041474 307.549895 139.041474 304.048421 
L 139.041474 271.222105 
Q 139.041474 267.720632 135.54 267.720632 
L 61.133684 267.720632 
Q 57.632211 267.720632 57.632211 271.222105 
L 57.632211 304.048421 
Q 57.632211 307.549895 61.133684 307.549895 
z
" clip-path="url(#p8cebab93b3)" style="fill: #bfbfbf; stroke: #000000; stroke-width: 0.8; stroke-linejoin: miter"/>
   </g>
   <g id="patch_10">
    <path d="M 148.670526 307.549895 
L 223.076842 307.549895 
Q 226.578316 307.549895 226.578316 304.048421 
L 226.578316 271.222105 
Q 226.578316 267.720632 223.076842 267.720632 
L 148.670526 267.720632 
Q 145.169053 267.720632 145.169053 271.222105 
L 145.169053 304.048421 
Q 145.169053 307.549895 148.670526 307.549895 
z
" clip-path="url(#p8cebab93b3)" style="fill: #bfbfbf; stroke: #000000; stroke-width: 0.8; stroke-linejoin: miter"/>
   </g>
   <g id="patch_11">
    <path d="M 236.207368 307.549895 
L 310.613684 307.549895 
Q 314.115158 307.549895 314.115158 304.048421 
L 314.115158 271.222105 
Q 314.115158 267.720632 310.613684 267.720632 
L 236.207368 267.720632 
Q 232.705895 267.720632 232.705895 271.222105 
L 232.705895 304.048421 
Q 232.705895 307.549895 236.207368 307.549895 
z
" clip-path="url(#p8cebab93b3)" style="fill: #bfbfbf; stroke: #000000; stroke-width: 0.8; stroke-linejoin: miter"/>
   </g>
   <g id="patch_12">
    <path d="M 323.744211 307.549895 
L 398.150526 307.549895 
Q 401.652 307.549895 401.652 304.048421 
L 401.652 271.222105 
Q 401.652 267.720632 398.150526 267.720632 
L 323.744211 267.720632 
Q 320.242737 267.720632 320.242737 271.222105 
L 320.242737 304.048421 
Q 320.242737 307.549895 323.744211 307.549895 
z
" clip-path="url(#p8cebab93b3)" style="fill: #bfbfbf; stroke: #000000; stroke-width: 0.8; stroke-linejoin: miter"/>
   </g>
   <g id="patch_13">
    <path d="M 33.997263 320.242737 
L 425.286947 320.242737 
Q 427.475368 320.242737 427.475368 318.054316 
L 427.475368 303.173053 
Q 427.475368 300.984632 425.286947 300.984632 
L 33.997263 300.984632 
Q 31.808842 300.984632 31.808842 303.173053 
L 31.808842 318.054316 
Q 31.808842 320.242737 33.997263 320.242737 
z
" clip-path="url(#p8cebab93b3)" style="fill: #fef7e0; stroke: #b8860b; stroke-width: 0.8; stroke-linejoin: miter"/>
   </g>
   <g id="patch_14">
    <path d="M 186.311368 192.001263 
L 272.972842 192.001263 
Q 279.538105 192.001263 279.538105 185.436 
L 279.538105 142.542947 
Q 279.538105 135.977684 272.972842 135.977684 
L 186.311368 135.977684 
Q 179.746105 135.977684 179.746105 142.542947 
L 179.746105 185.436 
Q 179.746105 192.001263 186.311368 192.001263 
z
" clip-path="url(#p8cebab93b3)" style="fill: #e89c2a; stroke: #000000; stroke-width: 1.4; stroke-linejoin: miter"/>
   </g>
   <g id="patch_15">
    <path d="M 83.017895 188.062105 
C 89.402031 188.062105 95.52555 185.525661 100.039816 181.011395 
C 104.554082 176.497128 107.090526 170.37361 107.090526 163.989474 
C 107.090526 157.605337 104.554082 151.481819 100.039816 146.967553 
C 95.52555 142.453286 89.402031 139.916842 83.017895 139.916842 
C 76.633758 139.916842 70.51024 142.453286 65.995974 146.967553 
C 61.481707 151.481819 58.945263 157.605337 58.945263 163.989474 
C 58.945263 170.37361 61.481707 176.497128 65.995974 181.011395 
C 70.51024 185.525661 76.633758 188.062105 83.017895 188.062105 
z
" clip-path="url(#p8cebab93b3)" style="fill: #3a8a4d; stroke: #000000; stroke-linejoin: miter"/>
   </g>
   <g id="patch_16">
    <path d="M 229.642105 100.525263 
C 236.026242 100.525263 242.14976 97.988819 246.664026 93.474553 
C 251.178293 88.960286 253.714737 82.836768 253.714737 76.452632 
C 253.714737 70.068495 251.178293 63.944977 246.664026 59.430711 
C 242.14976 54.916444 236.026242 52.38 229.642105 52.38 
C 223.257969 52.38 217.13445 54.916444 212.620184 59.430711 
C 208.105918 63.944977 205.569474 70.068495 205.569474 76.452632 
C 205.569474 82.836768 208.105918 88.960286 212.620184 93.474553 
C 217.13445 97.988819 223.257969 100.525263 229.642105 100.525263 
z
" clip-path="url(#p8cebab93b3)" style="fill: #d62828; stroke: #000000; stroke-linejoin: miter"/>
   </g>
   <g id="patch_17">
    <path d="M 376.266316 188.062105 
C 382.650452 188.062105 388.773971 185.525661 393.288237 181.011395 
C 397.802503 176.497128 400.338947 170.37361 400.338947 163.989474 
C 400.338947 157.605337 397.802503 151.481819 393.288237 146.967553 
C 388.773971 142.453286 382.650452 139.916842 376.266316 139.916842 
C 369.882179 139.916842 363.758661 142.453286 359.244395 146.967553 
C 354.730129 151.481819 352.193684 157.605337 352.193684 163.989474 
C 352.193684 170.37361 354.730129 176.497128 359.244395 181.011395 
C 363.758661 185.525661 369.882179 188.062105 376.266316 188.062105 
z
" clip-path="url(#p8cebab93b3)" style="fill: #2e5c8a; stroke: #000000; stroke-linejoin: miter"/>
   </g>
   <g id="legend_1">
    <g id="patch_18">
     <path d="M 71.080699 369.50525 
L 78.230699 369.50525 
L 78.230699 364.95525 
L 71.080699 364.95525 
z
" style="fill: #3a8a4d; stroke: #3a8a4d; stroke-linejoin: miter"/>
    </g>
    <g id="text_7">
     <text style="font-size: 6.5px; font-family: 'Liberation Sans', 'Arial', 'DejaVu Sans', sans-serif; text-anchor: start" x="80.505699" y="369.50525" transform="rotate(-0 80.505699 369.50525)">c-di-GMP</text>
    </g>
    <g id="patch_19">
     <path d="M 113.148902 369.50525 
L 120.298902 369.50525 
L 120.298902 364.95525 
L 113.148902 364.95525 
z
" style="fill: #d62828; stroke: #d62828; stroke-linejoin: miter"/>
    </g>
    <g id="text_8">
     <text style="font-size: 6.5px; font-family: 'Liberation Sans', 'Arial', 'DejaVu Sans', sans-serif; text-anchor: start" x="122.573902" y="369.50525" transform="rotate(-0 122.573902 369.50525)">(p)ppGpp</text>
    </g>
    <g id="patch_20">
     <path d="M 155.231324 369.50525 
L 162.381324 369.50525 
L 162.381324 364.95525 
L 155.231324 364.95525 
z
" style="fill: #2e5c8a; stroke: #2e5c8a; stroke-linejoin: miter"/>
    </g>
    <g id="text_9">
     <text style="font-size: 6.5px; font-family: 'Liberation Sans', 'Arial', 'DejaVu Sans', sans-serif; text-anchor: start" x="164.656324" y="369.50525" transform="rotate(-0 164.656324 369.50525)">3',5'-cAMP</text>
    </g>
    <g id="patch_21">
     <path d="M 200.873512 369.50525 
L 208.023512 369.50525 
L 208.023512 364.95525 
L 200.873512 364.95525 
z
" style="fill: #e89c2a; stroke: #e89c2a; stroke-linejoin: miter"/>
    </g>
    <g id="text_10">
     <text style="font-size: 6.5px; font-family: 'Liberation Sans', 'Arial', 'DejaVu Sans', sans-serif; text-anchor: start" x="210.298512" y="369.50525" transform="rotate(-0 210.298512 369.50525)">QS decision</text>
    </g>
    <g id="patch_22">
     <path d="M 250.542652 369.50525 
L 257.692652 369.50525 
L 257.692652 364.95525 
L 250.542652 364.95525 
z
" style="fill: #bfbfbf; stroke: #bfbfbf; stroke-linejoin: miter"/>
    </g>
    <g id="text_11">
     <text style="font-size: 6.5px; font-family: 'Liberation Sans', 'Arial', 'DejaVu Sans', sans-serif; text-anchor: start" x="259.967652" y="369.50525" transform="rotate(-0 259.967652 369.50525)">outputs</text>
    </g>
    <g id="line2d_1">
     <path d="M 286.487652 367.23025 
L 290.062652 367.23025 
L 293.637652 367.23025 
" style="fill: none; stroke: #000000; stroke-width: 1.2; stroke-linecap: square"/>
     <defs>
      <path id="m5af477768b" d="M 2.5 0 
L -2.5 -2.5 
L -2.5 2.5 
z
" style="stroke: #000000; stroke-linejoin: miter"/>
     </defs>
     <g>
      <use xlink:href="#m5af477768b" x="290.062652" y="367.23025" style="stroke: #000000; stroke-linejoin: miter"/>
     </g>
    </g>
    <g id="text_12">
     <text style="font-size: 6.5px; font-family: 'Liberation Sans', 'Arial', 'DejaVu Sans', sans-serif; text-anchor: start" x="295.912652" y="369.50525" transform="rotate(-0 295.912652 369.50525)">activation (+)</text>
    </g>
    <g id="line2d_2">
     <path d="M 338.501871 367.23025 
L 342.076871 367.23025 
L 345.651871 367.23025 
" style="fill: none; stroke: #d62828; stroke-width: 1.6; stroke-linecap: square"/>
     <defs>
      <path id="m4009e97929" d="M 4 0 
L -4 -0 
" style="stroke: #d62828"/>
     </defs>
     <g>
      <use xlink:href="#m4009e97929" x="342.076871" y="367.23025" style="fill: #d62828; stroke: #d62828"/>
     </g>
    </g>
    <g id="text_13">
     <text style="font-size: 6.5px; font-family: 'Liberation Sans', 'Arial', 'DejaVu Sans', sans-serif; text-anchor: start" x="347.926871" y="369.50525" transform="rotate(-0 347.926871 369.50525)">repression (−)</text>
    </g>
   </g>
   <g id="text_14">
    <text style="font-weight: 700; font-size: 11px; font-family: 'Liberation Sans', 'Arial', 'DejaVu Sans', sans-serif; text-anchor: middle; fill: #ffffff" x="229.642105" y="158.955689" transform="rotate(-0 229.642105 158.955689)">QS decision</text>
   </g>
   <g id="text_15">
    <text style="font-style: italic; font-size: 8px; font-family: 'Liberation Sans', 'Arial', 'DejaVu Sans', sans-serif; text-anchor: middle; fill: #ffffff" x="229.642105" y="173.936539" transform="rotate(-0 229.642105 173.936539)">(AbaR + AHL)</text>
   </g>
   <g id="text_16">
    <text style="font-weight: 700; font-size: 8px; font-family: 'Liberation Sans', 'Arial', 'DejaVu Sans', sans-serif; text-anchor: middle; fill: #ffffff" x="83.017895" y="166.058224" transform="rotate(-0 83.017895 166.058224)">c-di-GMP</text>
   </g>
   <g id="text_17">
    <text style="font-weight: 700; font-size: 12px; font-family: 'Liberation Sans', 'Arial', 'DejaVu Sans', sans-serif; text-anchor: middle; fill: #3a8a4d" x="144.293684" y="159.214283" transform="rotate(-0 144.293684 159.214283)">+</text>
   </g>
   <g id="text_18">
    <text style="font-weight: 700; font-size: 8px; font-family: 'Liberation Sans', 'Arial', 'DejaVu Sans', sans-serif; text-anchor: middle; fill: #ffffff" x="229.642105" y="78.521382" transform="rotate(-0 229.642105 78.521382)">(p)ppGpp</text>
   </g>
   <g id="text_19">
    <text style="font-weight: 700; font-size: 12px; font-family: 'Liberation Sans', 'Arial', 'DejaVu Sans', sans-serif; text-anchor: start; fill: #d62828" x="240.584211" y="122.229967" transform="rotate(-0 240.584211 122.229967)">−</text>
   </g>
   <g id="text_20">
    <text style="font-weight: 700; font-size: 8px; font-family: 'Liberation Sans', 'Arial', 'DejaVu Sans', sans-serif; text-anchor: middle; fill: #ffffff" x="376.266316" y="166.058224" transform="rotate(-0 376.266316 166.058224)">3',5'-cAMP</text>
   </g>
   <g id="text_21">
    <text style="font-weight: 700; font-size: 12px; font-family: 'Liberation Sans', 'Arial', 'DejaVu Sans', sans-serif; text-anchor: middle; fill: #2e5c8a" x="314.990526" y="159.214283" transform="rotate(-0 314.990526 159.214283)">−</text>
   </g>
   <g id="text_22">
    <text style="font-weight: 700; font-size: 8.5px; font-family: 'Liberation Sans', 'Arial', 'DejaVu Sans', sans-serif; text-anchor: middle; fill: #222222" x="98.336842" y="279.985415" transform="rotate(-0 98.336842 279.985415)">Biofilm</text>
   </g>
   <g id="text_23">
    <text style="font-style: italic; font-size: 6.5px; font-family: 'Liberation Sans', 'Arial', 'DejaVu Sans', sans-serif; fill: #333333" transform="translate(85.148951 291.286519)">csu, bap,</text>
    <text style="font-style: italic; font-size: 6.5px; font-family: 'Liberation Sans', 'Arial', 'DejaVu Sans', sans-serif; fill: #333333" transform="translate(83.885006 298.287831)">pgaABCD</text>
   </g>
   <g id="text_24">
    <text style="font-weight: 700; font-size: 8.5px; font-family: 'Liberation Sans', 'Arial', 'DejaVu Sans', sans-serif; text-anchor: middle; fill: #222222" x="185.873684" y="279.985415" transform="rotate(-0 185.873684 279.985415)">Motility</text>
   </g>
   <g id="text_25">
    <text style="font-style: italic; font-size: 6.5px; font-family: 'Liberation Sans', 'Arial', 'DejaVu Sans', sans-serif; fill: #333333" transform="translate(172.32677 291.286519)">twitching,</text>
    <text style="font-style: italic; font-size: 6.5px; font-family: 'Liberation Sans', 'Arial', 'DejaVu Sans', sans-serif; fill: #333333" transform="translate(175.216731 298.287831)">surface</text>
   </g>
   <g id="text_26">
    <text style="font-weight: 700; font-size: 8.5px; font-family: 'Liberation Sans', 'Arial', 'DejaVu Sans', sans-serif; text-anchor: middle; fill: #222222" x="273.410526" y="279.985415" transform="rotate(-0 273.410526 279.985415)">Virulence</text>
   </g>
   <g id="text_27">
    <text style="font-style: italic; font-size: 6.5px; font-family: 'Liberation Sans', 'Arial', 'DejaVu Sans', sans-serif; fill: #333333" transform="translate(252.463769 291.286519)">OmpA, OMVs,</text>
    <text style="font-style: italic; font-size: 6.5px; font-family: 'Liberation Sans', 'Arial', 'DejaVu Sans', sans-serif; fill: #333333" transform="translate(254.259394 298.287831)">acinetobactin</text>
   </g>
   <g id="text_28">
    <text style="font-weight: 700; font-size: 8.5px; font-family: 'Liberation Sans', 'Arial', 'DejaVu Sans', sans-serif; text-anchor: middle; fill: #222222" x="360.947368" y="279.985415" transform="rotate(-0 360.947368 279.985415)">Efflux</text>
   </g>
   <g id="text_29">
    <text style="font-style: italic; font-size: 6.5px; font-family: 'Liberation Sans', 'Arial', 'DejaVu Sans', sans-serif; fill: #333333" transform="translate(333.852017 291.286519)">adeABC, adeFGH,</text>
    <text style="font-style: italic; font-size: 6.5px; font-family: 'Liberation Sans', 'Arial', 'DejaVu Sans', sans-serif; fill: #333333" transform="translate(350.829712 298.287831)">adeIJK</text>
   </g>
   <g id="text_30">
    <text style="font-weight: 700; font-size: 7.5px; font-family: 'Liberation Sans', 'Arial', 'DejaVu Sans', sans-serif; text-anchor: start; fill: #7a5a00" x="41.437895" y="312.553137" transform="rotate(-0 41.437895 312.553137)">Inputs sensed:</text>
   </g>
   <g id="text_31">
    <text style="font-style: italic; font-size: 7px; font-family: 'Liberation Sans', 'Arial', 'DejaVu Sans', sans-serif; text-anchor: middle; fill: #5a4400" x="253.714737" y="312.42384" transform="rotate(-0 253.714737 312.42384)">cell density · nutrient state · host cues · carbon source</text>
   </g>
  </g>
 </g>
 <defs>
  <clipPath id="p8cebab93b3">
   <rect x="10.8" y="10.8" width="437.684211" height="332.64"/>
  </clipPath>
 </defs>
</svg>
