<?xml version="1.0" encoding="utf-8" standalone="no"?>
<!DOCTYPE svg PUBLIC "-//W3C//DTD SVG 1.1//EN"
  "http://www.w3.org/Graphics/SVG/1.1/DTD/svg11.dtd">
<svg xmlns:xlink="http://www.w3.org/1999/xlink" width="444pt" height="380.31232pt" viewBox="0 0 444 380.31232" xmlns="http://www.w3.org/2000/svg" version="1.1">
 <metadata>
  <rdf:RDF xmlns:dc="http://purl.org/dc/elements/1.1/" xmlns:cc="http://creativecommons.org/ns#" xmlns:rdf="http://www.w3.org/1999/02/22-rdf-syntax-ns#">
   <cc:Work>
    <dc:type rdf:resource="http://purl.org/dc/dcmitype/StillImage"/>
    <dc:date>2026-05-17T11:28:43.299429</dc:date>
    <dc:format>image/svg+xml</dc:format>
    <dc:creator>
     <cc:Agent>
      <dc:title>Matplotlib v3.10.9, https://matplotlib.org/</dc:title>
     </cc:Agent>
    </dc:creator>
   </cc:Work>
  </rdf:RDF>
 </metadata>
 <defs>
  <style type="text/css">*{stroke-linejoin: round; stroke-linecap: butt}</style>
 </defs>
 <g id="figure_1">
  <g id="patch_1">
   <path d="M 0 380.31232 
L 444 380.31232 
L 444 0 
L 0 0 
z
" style="fill: #ffffff"/>
  </g>
  <g id="axes_1">
   <g id="patch_2">
    <path d="M 50.0832 210.1728 
L 393.9168 210.1728 
Q 412.9248 210.1728 412.9248 191.1648 
L 412.9248 83.8752 
Q 412.9248 64.8672 393.9168 64.8672 
L 50.0832 64.8672 
Q 31.0752 64.8672 31.0752 83.8752 
L 31.0752 191.1648 
Q 31.0752 210.1728 50.0832 210.1728 
z
" clip-path="url(#p5c5d975f5b)" style="fill: #fdf6e7; stroke: #444444; stroke-width: 1.4; stroke-linejoin: miter"/>
   </g>
   <g id="patch_3">
    <path d="M 38.6784 330.5568 
L 405.3216 330.5568 
Q 412.9248 330.5568 412.9248 322.9536 
L 412.9248 228.7584 
Q 412.9248 221.1552 405.3216 221.1552 
L 38.6784 221.1552 
Q 31.0752 221.1552 31.0752 228.7584 
L 31.0752 322.9536 
Q 31.0752 330.5568 38.6784 330.5568 
z
" clip-path="url(#p5c5d975f5b)" style="fill: #eef4fb; stroke: #a9c2da; stroke-width: 0.6; stroke-linejoin: miter"/>
   </g>
   <g id="line2d_1">
    <path d="M 31.92 210.1728 
L 412.08 210.1728 
" clip-path="url(#p5c5d975f5b)" style="fill: none; stroke: #444444; stroke-width: 1.6; stroke-linecap: square"/>
   </g>
   <g id="text_1">
    <text style="font-weight: 700; font-size: 10px; font-family: 'Liberation Sans', 'Arial', 'DejaVu Sans', sans-serif; text-anchor: middle" x="222" y="21.812063" transform="rotate(-0 222 21.812063)">Figure 3A. AbaI / AbaR / AbaM quorum-sensing circuit in Acinetobacter baumannii</text>
   </g>
   <g id="text_2">
    <text style="font-style: italic; font-size: 8px; font-family: 'Liberation Sans', 'Arial', 'DejaVu Sans', sans-serif; text-anchor: middle; fill: #444444" x="222" y="33.98875" transform="rotate(-0 222 33.98875)">Synthase (AbaI) — signal (AHL) — receptor (AbaR) with brake (AbaM)</text>
   </g>
   <g id="patch_4">
    <path d="M 40.368 211.6512 
C 40.760076 211.6512 41.136147 211.495426 41.413387 211.218187 
C 41.690626 210.940947 41.8464 210.564876 41.8464 210.1728 
C 41.8464 209.780724 41.690626 209.404653 41.413387 209.127413 
C 41.136147 208.850174 40.760076 208.6944 40.368 208.6944 
C 39.975924 208.6944 39.599853 208.850174 39.322613 209.127413 
C 39.045374 209.404653 38.8896 209.780724 38.8896 210.1728 
C 38.8896 210.564876 39.045374 210.940947 39.322613 211.218187 
C 39.599853 211.495426 39.975924 211.6512 40.368 211.6512 
z
" clip-path="url(#p5c5d975f5b)" style="fill: #9ec3e3; stroke: #444444; stroke-width: 0.3; stroke-linejoin: miter"/>
   </g>
   <g id="patch_5">
    <path d="M 49.6608 211.6512 
C 50.052876 211.6512 50.428947 211.495426 50.706187 211.218187 
C 50.983426 210.940947 51.1392 210.564876 51.1392 210.1728 
C 51.1392 209.780724 50.983426 209.404653 50.706187 209.127413 
C 50.428947 208.850174 50.052876 208.6944 49.6608 208.6944 
C 49.268724 208.6944 48.892653 208.850174 48.615413 209.127413 
C 48.338174 209.404653 48.1824 209.780724 48.1824 210.1728 
C 48.1824 210.564876 48.338174 210.940947 48.615413 211.218187 
C 48.892653 211.495426 49.268724 211.6512 49.6608 211.6512 
z
" clip-path="url(#p5c5d975f5b)" style="fill: #9ec3e3; stroke: #444444; stroke-width: 0.3; stroke-linejoin: miter"/>
   </g>
   <g id="patch_6">
    <path d="M 58.9536 211.6512 
C 59.345676 211.6512 59.721747 211.495426 59.998987 211.218187 
C 60.276226 210.940947 60.432 210.564876 60.432 210.1728 
C 60.432 209.780724 60.276226 209.404653 59.998987 209.127413 
C 59.721747 208.850174 59.345676 208.6944 58.9536 208.6944 
C 58.561524 208.6944 58.185453 208.850174 57.908213 209.127413 
C 57.630974 209.404653 57.4752 209.780724 57.4752 210.1728 
C 57.4752 210.564876 57.630974 210.940947 57.908213 211.218187 
C 58.185453 211.495426 58.561524 211.6512 58.9536 211.6512 
z
" clip-path="url(#p5c5d975f5b)" style="fill: #9ec3e3; stroke: #444444; stroke-width: 0.3; stroke-linejoin: miter"/>
   </g>
   <g id="patch_7">
    <path d="M 68.2464 211.6512 
C 68.638476 211.6512 69.014547 211.495426 69.291787 211.218187 
C 69.569026 210.940947 69.7248 210.564876 69.7248 210.1728 
C 69.7248 209.780724 69.569026 209.404653 69.291787 209.127413 
C 69.014547 208.850174 68.638476 208.6944 68.2464 208.6944 
C 67.854324 208.6944 67.478253 208.850174 67.201013 209.127413 
C 66.923774 209.404653 66.768 209.780724 66.768 210.1728 
C 66.768 210.564876 66.923774 210.940947 67.201013 211.218187 
C 67.478253 211.495426 67.854324 211.6512 68.2464 211.6512 
z
" clip-path="url(#p5c5d975f5b)" style="fill: #9ec3e3; stroke: #444444; stroke-width: 0.3; stroke-linejoin: miter"/>
   </g>
   <g id="patch_8">
    <path d="M 77.5392 211.6512 
C 77.931276 211.6512 78.307347 211.495426 78.584587 211.218187 
C 78.861826 210.940947 79.0176 210.564876 79.0176 210.1728 
C 79.0176 209.780724 78.861826 209.404653 78.584587 209.127413 
C 78.307347 208.850174 77.931276 208.6944 77.5392 208.6944 
C 77.147124 208.6944 76.771053 208.850174 76.493813 209.127413 
C 76.216574 209.404653 76.0608 209.780724 76.0608 210.1728 
C 76.0608 210.564876 76.216574 210.940947 76.493813 211.218187 
C 76.771053 211.495426 77.147124 211.6512 77.5392 211.6512 
z
" clip-path="url(#p5c5d975f5b)" style="fill: #9ec3e3; stroke: #444444; stroke-width: 0.3; stroke-linejoin: miter"/>
   </g>
   <g id="patch_9">
    <path d="M 86.832 211.6512 
C 87.224076 211.6512 87.600147 211.495426 87.877387 211.218187 
C 88.154626 210.940947 88.3104 210.564876 88.3104 210.1728 
C 88.3104 209.780724 88.154626 209.404653 87.877387 209.127413 
C 87.600147 208.850174 87.224076 208.6944 86.832 208.6944 
C 86.439924 208.6944 86.063853 208.850174 85.786613 209.127413 
C 85.509374 209.404653 85.3536 209.780724 85.3536 210.1728 
C 85.3536 210.564876 85.509374 210.940947 85.786613 211.218187 
C 86.063853 211.495426 86.439924 211.6512 86.832 211.6512 
z
" clip-path="url(#p5c5d975f5b)" style="fill: #9ec3e3; stroke: #444444; stroke-width: 0.3; stroke-linejoin: miter"/>
   </g>
   <g id="patch_10">
    <path d="M 96.1248 211.6512 
C 96.516876 211.6512 96.892947 211.495426 97.170187 211.218187 
C 97.447426 210.940947 97.6032 210.564876 97.6032 210.1728 
C 97.6032 209.780724 97.447426 209.404653 97.170187 209.127413 
C 96.892947 208.850174 96.516876 208.6944 96.1248 208.6944 
C 95.732724 208.6944 95.356653 208.850174 95.079413 209.127413 
C 94.802174 209.404653 94.6464 209.780724 94.6464 210.1728 
C 94.6464 210.564876 94.802174 210.940947 95.079413 211.218187 
C 95.356653 211.495426 95.732724 211.6512 96.1248 211.6512 
z
" clip-path="url(#p5c5d975f5b)" style="fill: #9ec3e3; stroke: #444444; stroke-width: 0.3; stroke-linejoin: miter"/>
   </g>
   <g id="patch_11">
    <path d="M 105.4176 211.6512 
C 105.809676 211.6512 106.185747 211.495426 106.462987 211.218187 
C 106.740226 210.940947 106.896 210.564876 106.896 210.1728 
C 106.896 209.780724 106.740226 209.404653 106.462987 209.127413 
C 106.185747 208.850174 105.809676 208.6944 105.4176 208.6944 
C 105.025524 208.6944 104.649453 208.850174 104.372213 209.127413 
C 104.094974 209.404653 103.9392 209.780724 103.9392 210.1728 
C 103.9392 210.564876 104.094974 210.940947 104.372213 211.218187 
C 104.649453 211.495426 105.025524 211.6512 105.4176 211.6512 
z
" clip-path="url(#p5c5d975f5b)" style="fill: #9ec3e3; stroke: #444444; stroke-width: 0.3; stroke-linejoin: miter"/>
   </g>
   <g id="patch_12">
    <path d="M 114.7104 211.6512 
C 115.102476 211.6512 115.478547 211.495426 115.755787 211.218187 
C 116.033026 210.940947 116.1888 210.564876 116.1888 210.1728 
C 116.1888 209.780724 116.033026 209.404653 115.755787 209.127413 
C 115.478547 208.850174 115.102476 208.6944 114.7104 208.6944 
C 114.318324 208.6944 113.942253 208.850174 113.665013 209.127413 
C 113.387774 209.404653 113.232 209.780724 113.232 210.1728 
C 113.232 210.564876 113.387774 210.940947 113.665013 211.218187 
C 113.942253 211.495426 114.318324 211.6512 114.7104 211.6512 
z
" clip-path="url(#p5c5d975f5b)" style="fill: #9ec3e3; stroke: #444444; stroke-width: 0.3; stroke-linejoin: miter"/>
   </g>
   <g id="patch_13">
    <path d="M 124.0032 211.6512 
C 124.395276 211.6512 124.771347 211.495426 125.048587 211.218187 
C 125.325826 210.940947 125.4816 210.564876 125.4816 210.1728 
C 125.4816 209.780724 125.325826 209.404653 125.048587 209.127413 
C 124.771347 208.850174 124.395276 208.6944 124.0032 208.6944 
C 123.611124 208.6944 123.235053 208.850174 122.957813 209.127413 
C 122.680574 209.404653 122.5248 209.780724 122.5248 210.1728 
C 122.5248 210.564876 122.680574 210.940947 122.957813 211.218187 
C 123.235053 211.495426 123.611124 211.6512 124.0032 211.6512 
z
" clip-path="url(#p5c5d975f5b)" style="fill: #9ec3e3; stroke: #444444; stroke-width: 0.3; stroke-linejoin: miter"/>
   </g>
   <g id="patch_14">
    <path d="M 133.296 211.6512 
C 133.688076 211.6512 134.064147 211.495426 134.341387 211.218187 
C 134.618626 210.940947 134.7744 210.564876 134.7744 210.1728 
C 134.7744 209.780724 134.618626 209.404653 134.341387 209.127413 
C 134.064147 208.850174 133.688076 208.6944 133.296 208.6944 
C 132.903924 208.6944 132.527853 208.850174 132.250613 209.127413 
C 131.973374 209.404653 131.8176 209.780724 131.8176 210.1728 
C 131.8176 210.564876 131.973374 210.940947 132.250613 211.218187 
C 132.527853 211.495426 132.903924 211.6512 133.296 211.6512 
z
" clip-path="url(#p5c5d975f5b)" style="fill: #9ec3e3; stroke: #444444; stroke-width: 0.3; stroke-linejoin: miter"/>
   </g>
   <g id="patch_15">
    <path d="M 142.5888 211.6512 
C 142.980876 211.6512 143.356947 211.495426 143.634187 211.218187 
C 143.911426 210.940947 144.0672 210.564876 144.0672 210.1728 
C 144.0672 209.780724 143.911426 209.404653 143.634187 209.127413 
C 143.356947 208.850174 142.980876 208.6944 142.5888 208.6944 
C 142.196724 208.6944 141.820653 208.850174 141.543413 209.127413 
C 141.266174 209.404653 141.1104 209.780724 141.1104 210.1728 
C 141.1104 210.564876 141.266174 210.940947 141.543413 211.218187 
C 141.820653 211.495426 142.196724 211.6512 142.5888 211.6512 
z
" clip-path="url(#p5c5d975f5b)" style="fill: #9ec3e3; stroke: #444444; stroke-width: 0.3; stroke-linejoin: miter"/>
   </g>
   <g id="patch_16">
    <path d="M 151.8816 211.6512 
C 152.273676 211.6512 152.649747 211.495426 152.926987 211.218187 
C 153.204226 210.940947 153.36 210.564876 153.36 210.1728 
C 153.36 209.780724 153.204226 209.404653 152.926987 209.127413 
C 152.649747 208.850174 152.273676 208.6944 151.8816 208.6944 
C 151.489524 208.6944 151.113453 208.850174 150.836213 209.127413 
C 150.558974 209.404653 150.4032 209.780724 150.4032 210.1728 
C 150.4032 210.564876 150.558974 210.940947 150.836213 211.218187 
C 151.113453 211.495426 151.489524 211.6512 151.8816 211.6512 
z
" clip-path="url(#p5c5d975f5b)" style="fill: #9ec3e3; stroke: #444444; stroke-width: 0.3; stroke-linejoin: miter"/>
   </g>
   <g id="patch_17">
    <path d="M 161.1744 211.6512 
C 161.566476 211.6512 161.942547 211.495426 162.219787 211.218187 
C 162.497026 210.940947 162.6528 210.564876 162.6528 210.1728 
C 162.6528 209.780724 162.497026 209.404653 162.219787 209.127413 
C 161.942547 208.850174 161.566476 208.6944 161.1744 208.6944 
C 160.782324 208.6944 160.406253 208.850174 160.129013 209.127413 
C 159.851774 209.404653 159.696 209.780724 159.696 210.1728 
C 159.696 210.564876 159.851774 210.940947 160.129013 211.218187 
C 160.406253 211.495426 160.782324 211.6512 161.1744 211.6512 
z
" clip-path="url(#p5c5d975f5b)" style="fill: #9ec3e3; stroke: #444444; stroke-width: 0.3; stroke-linejoin: miter"/>
   </g>
   <g id="patch_18">
    <path d="M 170.4672 211.6512 
C 170.859276 211.6512 171.235347 211.495426 171.512587 211.218187 
C 171.789826 210.940947 171.9456 210.564876 171.9456 210.1728 
C 171.9456 209.780724 171.789826 209.404653 171.512587 209.127413 
C 171.235347 208.850174 170.859276 208.6944 170.4672 208.6944 
C 170.075124 208.6944 169.699053 208.850174 169.421813 209.127413 
C 169.144574 209.404653 168.9888 209.780724 168.9888 210.1728 
C 168.9888 210.564876 169.144574 210.940947 169.421813 211.218187 
C 169.699053 211.495426 170.075124 211.6512 170.4672 211.6512 
z
" clip-path="url(#p5c5d975f5b)" style="fill: #9ec3e3; stroke: #444444; stroke-width: 0.3; stroke-linejoin: miter"/>
   </g>
   <g id="patch_19">
    <path d="M 179.76 211.6512 
C 180.152076 211.6512 180.528147 211.495426 180.805387 211.218187 
C 181.082626 210.940947 181.2384 210.564876 181.2384 210.1728 
C 181.2384 209.780724 181.082626 209.404653 180.805387 209.127413 
C 180.528147 208.850174 180.152076 208.6944 179.76 208.6944 
C 179.367924 208.6944 178.991853 208.850174 178.714613 209.127413 
C 178.437374 209.404653 178.2816 209.780724 178.2816 210.1728 
C 178.2816 210.564876 178.437374 210.940947 178.714613 211.218187 
C 178.991853 211.495426 179.367924 211.6512 179.76 211.6512 
z
" clip-path="url(#p5c5d975f5b)" style="fill: #9ec3e3; stroke: #444444; stroke-width: 0.3; stroke-linejoin: miter"/>
   </g>
   <g id="patch_20">
    <path d="M 189.0528 211.6512 
C 189.444876 211.6512 189.820947 211.495426 190.098187 211.218187 
C 190.375426 210.940947 190.5312 210.564876 190.5312 210.1728 
C 190.5312 209.780724 190.375426 209.404653 190.098187 209.127413 
C 189.820947 208.850174 189.444876 208.6944 189.0528 208.6944 
C 188.660724 208.6944 188.284653 208.850174 188.007413 209.127413 
C 187.730174 209.404653 187.5744 209.780724 187.5744 210.1728 
C 187.5744 210.564876 187.730174 210.940947 188.007413 211.218187 
C 188.284653 211.495426 188.660724 211.6512 189.0528 211.6512 
z
" clip-path="url(#p5c5d975f5b)" style="fill: #9ec3e3; stroke: #444444; stroke-width: 0.3; stroke-linejoin: miter"/>
   </g>
   <g id="patch_21">
    <path d="M 198.3456 211.6512 
C 198.737676 211.6512 199.113747 211.495426 199.390987 211.218187 
C 199.668226 210.940947 199.824 210.564876 199.824 210.1728 
C 199.824 209.780724 199.668226 209.404653 199.390987 209.127413 
C 199.113747 208.850174 198.737676 208.6944 198.3456 208.6944 
C 197.953524 208.6944 197.577453 208.850174 197.300213 209.127413 
C 197.022974 209.404653 196.8672 209.780724 196.8672 210.1728 
C 196.8672 210.564876 197.022974 210.940947 197.300213 211.218187 
C 197.577453 211.495426 197.953524 211.6512 198.3456 211.6512 
z
" clip-path="url(#p5c5d975f5b)" style="fill: #9ec3e3; stroke: #444444; stroke-width: 0.3; stroke-linejoin: miter"/>
   </g>
   <g id="patch_22">
    <path d="M 207.6384 211.6512 
C 208.030476 211.6512 208.406547 211.495426 208.683787 211.218187 
C 208.961026 210.940947 209.1168 210.564876 209.1168 210.1728 
C 209.1168 209.780724 208.961026 209.404653 208.683787 209.127413 
C 208.406547 208.850174 208.030476 208.6944 207.6384 208.6944 
C 207.246324 208.6944 206.870253 208.850174 206.593013 209.127413 
C 206.315774 209.404653 206.16 209.780724 206.16 210.1728 
C 206.16 210.564876 206.315774 210.940947 206.593013 211.218187 
C 206.870253 211.495426 207.246324 211.6512 207.6384 211.6512 
z
" clip-path="url(#p5c5d975f5b)" style="fill: #9ec3e3; stroke: #444444; stroke-width: 0.3; stroke-linejoin: miter"/>
   </g>
   <g id="patch_23">
    <path d="M 216.9312 211.6512 
C 217.323276 211.6512 217.699347 211.495426 217.976587 211.218187 
C 218.253826 210.940947 218.4096 210.564876 218.4096 210.1728 
C 218.4096 209.780724 218.253826 209.404653 217.976587 209.127413 
C 217.699347 208.850174 217.323276 208.6944 216.9312 208.6944 
C 216.539124 208.6944 216.163053 208.850174 215.885813 209.127413 
C 215.608574 209.404653 215.4528 209.780724 215.4528 210.1728 
C 215.4528 210.564876 215.608574 210.940947 215.885813 211.218187 
C 216.163053 211.495426 216.539124 211.6512 216.9312 211.6512 
z
" clip-path="url(#p5c5d975f5b)" style="fill: #9ec3e3; stroke: #444444; stroke-width: 0.3; stroke-linejoin: miter"/>
   </g>
   <g id="patch_24">
    <path d="M 226.224 211.6512 
C 226.616076 211.6512 226.992147 211.495426 227.269387 211.218187 
C 227.546626 210.940947 227.7024 210.564876 227.7024 210.1728 
C 227.7024 209.780724 227.546626 209.404653 227.269387 209.127413 
C 226.992147 208.850174 226.616076 208.6944 226.224 208.6944 
C 225.831924 208.6944 225.455853 208.850174 225.178613 209.127413 
C 224.901374 209.404653 224.7456 209.780724 224.7456 210.1728 
C 224.7456 210.564876 224.901374 210.940947 225.178613 211.218187 
C 225.455853 211.495426 225.831924 211.6512 226.224 211.6512 
z
" clip-path="url(#p5c5d975f5b)" style="fill: #9ec3e3; stroke: #444444; stroke-width: 0.3; stroke-linejoin: miter"/>
   </g>
   <g id="patch_25">
    <path d="M 235.5168 211.6512 
C 235.908876 211.6512 236.284947 211.495426 236.562187 211.218187 
C 236.839426 210.940947 236.9952 210.564876 236.9952 210.1728 
C 236.9952 209.780724 236.839426 209.404653 236.562187 209.127413 
C 236.284947 208.850174 235.908876 208.6944 235.5168 208.6944 
C 235.124724 208.6944 234.748653 208.850174 234.471413 209.127413 
C 234.194174 209.404653 234.0384 209.780724 234.0384 210.1728 
C 234.0384 210.564876 234.194174 210.940947 234.471413 211.218187 
C 234.748653 211.495426 235.124724 211.6512 235.5168 211.6512 
z
" clip-path="url(#p5c5d975f5b)" style="fill: #9ec3e3; stroke: #444444; stroke-width: 0.3; stroke-linejoin: miter"/>
   </g>
   <g id="patch_26">
    <path d="M 244.8096 211.6512 
C 245.201676 211.6512 245.577747 211.495426 245.854987 211.218187 
C 246.132226 210.940947 246.288 210.564876 246.288 210.1728 
C 246.288 209.780724 246.132226 209.404653 245.854987 209.127413 
C 245.577747 208.850174 245.201676 208.6944 244.8096 208.6944 
C 244.417524 208.6944 244.041453 208.850174 243.764213 209.127413 
C 243.486974 209.404653 243.3312 209.780724 243.3312 210.1728 
C 243.3312 210.564876 243.486974 210.940947 243.764213 211.218187 
C 244.041453 211.495426 244.417524 211.6512 244.8096 211.6512 
z
" clip-path="url(#p5c5d975f5b)" style="fill: #9ec3e3; stroke: #444444; stroke-width: 0.3; stroke-linejoin: miter"/>
   </g>
   <g id="patch_27">
    <path d="M 254.1024 211.6512 
C 254.494476 211.6512 254.870547 211.495426 255.147787 211.218187 
C 255.425026 210.940947 255.5808 210.564876 255.5808 210.1728 
C 255.5808 209.780724 255.425026 209.404653 255.147787 209.127413 
C 254.870547 208.850174 254.494476 208.6944 254.1024 208.6944 
C 253.710324 208.6944 253.334253 208.850174 253.057013 209.127413 
C 252.779774 209.404653 252.624 209.780724 252.624 210.1728 
C 252.624 210.564876 252.779774 210.940947 253.057013 211.218187 
C 253.334253 211.495426 253.710324 211.6512 254.1024 211.6512 
z
" clip-path="url(#p5c5d975f5b)" style="fill: #9ec3e3; stroke: #444444; stroke-width: 0.3; stroke-linejoin: miter"/>
   </g>
   <g id="patch_28">
    <path d="M 263.3952 211.6512 
C 263.787276 211.6512 264.163347 211.495426 264.440587 211.218187 
C 264.717826 210.940947 264.8736 210.564876 264.8736 210.1728 
C 264.8736 209.780724 264.717826 209.404653 264.440587 209.127413 
C 264.163347 208.850174 263.787276 208.6944 263.3952 208.6944 
C 263.003124 208.6944 262.627053 208.850174 262.349813 209.127413 
C 262.072574 209.404653 261.9168 209.780724 261.9168 210.1728 
C 261.9168 210.564876 262.072574 210.940947 262.349813 211.218187 
C 262.627053 211.495426 263.003124 211.6512 263.3952 211.6512 
z
" clip-path="url(#p5c5d975f5b)" style="fill: #9ec3e3; stroke: #444444; stroke-width: 0.3; stroke-linejoin: miter"/>
   </g>
   <g id="patch_29">
    <path d="M 272.688 211.6512 
C 273.080076 211.6512 273.456147 211.495426 273.733387 211.218187 
C 274.010626 210.940947 274.1664 210.564876 274.1664 210.1728 
C 274.1664 209.780724 274.010626 209.404653 273.733387 209.127413 
C 273.456147 208.850174 273.080076 208.6944 272.688 208.6944 
C 272.295924 208.6944 271.919853 208.850174 271.642613 209.127413 
C 271.365374 209.404653 271.2096 209.780724 271.2096 210.1728 
C 271.2096 210.564876 271.365374 210.940947 271.642613 211.218187 
C 271.919853 211.495426 272.295924 211.6512 272.688 211.6512 
z
" clip-path="url(#p5c5d975f5b)" style="fill: #9ec3e3; stroke: #444444; stroke-width: 0.3; stroke-linejoin: miter"/>
   </g>
   <g id="patch_30">
    <path d="M 281.9808 211.6512 
C 282.372876 211.6512 282.748947 211.495426 283.026187 211.218187 
C 283.303426 210.940947 283.4592 210.564876 283.4592 210.1728 
C 283.4592 209.780724 283.303426 209.404653 283.026187 209.127413 
C 282.748947 208.850174 282.372876 208.6944 281.9808 208.6944 
C 281.588724 208.6944 281.212653 208.850174 280.935413 209.127413 
C 280.658174 209.404653 280.5024 209.780724 280.5024 210.1728 
C 280.5024 210.564876 280.658174 210.940947 280.935413 211.218187 
C 281.212653 211.495426 281.588724 211.6512 281.9808 211.6512 
z
" clip-path="url(#p5c5d975f5b)" style="fill: #9ec3e3; stroke: #444444; stroke-width: 0.3; stroke-linejoin: miter"/>
   </g>
   <g id="patch_31">
    <path d="M 291.2736 211.6512 
C 291.665676 211.6512 292.041747 211.495426 292.318987 211.218187 
C 292.596226 210.940947 292.752 210.564876 292.752 210.1728 
C 292.752 209.780724 292.596226 209.404653 292.318987 209.127413 
C 292.041747 208.850174 291.665676 208.6944 291.2736 208.6944 
C 290.881524 208.6944 290.505453 208.850174 290.228213 209.127413 
C 289.950974 209.404653 289.7952 209.780724 289.7952 210.1728 
C 289.7952 210.564876 289.950974 210.940947 290.228213 211.218187 
C 290.505453 211.495426 290.881524 211.6512 291.2736 211.6512 
z
" clip-path="url(#p5c5d975f5b)" style="fill: #9ec3e3; stroke: #444444; stroke-width: 0.3; stroke-linejoin: miter"/>
   </g>
   <g id="patch_32">
    <path d="M 300.5664 211.6512 
C 300.958476 211.6512 301.334547 211.495426 301.611787 211.218187 
C 301.889026 210.940947 302.0448 210.564876 302.0448 210.1728 
C 302.0448 209.780724 301.889026 209.404653 301.611787 209.127413 
C 301.334547 208.850174 300.958476 208.6944 300.5664 208.6944 
C 300.174324 208.6944 299.798253 208.850174 299.521013 209.127413 
C 299.243774 209.404653 299.088 209.780724 299.088 210.1728 
C 299.088 210.564876 299.243774 210.940947 299.521013 211.218187 
C 299.798253 211.495426 300.174324 211.6512 300.5664 211.6512 
z
" clip-path="url(#p5c5d975f5b)" style="fill: #9ec3e3; stroke: #444444; stroke-width: 0.3; stroke-linejoin: miter"/>
   </g>
   <g id="patch_33">
    <path d="M 309.8592 211.6512 
C 310.251276 211.6512 310.627347 211.495426 310.904587 211.218187 
C 311.181826 210.940947 311.3376 210.564876 311.3376 210.1728 
C 311.3376 209.780724 311.181826 209.404653 310.904587 209.127413 
C 310.627347 208.850174 310.251276 208.6944 309.8592 208.6944 
C 309.467124 208.6944 309.091053 208.850174 308.813813 209.127413 
C 308.536574 209.404653 308.3808 209.780724 308.3808 210.1728 
C 308.3808 210.564876 308.536574 210.940947 308.813813 211.218187 
C 309.091053 211.495426 309.467124 211.6512 309.8592 211.6512 
z
" clip-path="url(#p5c5d975f5b)" style="fill: #9ec3e3; stroke: #444444; stroke-width: 0.3; stroke-linejoin: miter"/>
   </g>
   <g id="patch_34">
    <path d="M 319.152 211.6512 
C 319.544076 211.6512 319.920147 211.495426 320.197387 211.218187 
C 320.474626 210.940947 320.6304 210.564876 320.6304 210.1728 
C 320.6304 209.780724 320.474626 209.404653 320.197387 209.127413 
C 319.920147 208.850174 319.544076 208.6944 319.152 208.6944 
C 318.759924 208.6944 318.383853 208.850174 318.106613 209.127413 
C 317.829374 209.404653 317.6736 209.780724 317.6736 210.1728 
C 317.6736 210.564876 317.829374 210.940947 318.106613 211.218187 
C 318.383853 211.495426 318.759924 211.6512 319.152 211.6512 
z
" clip-path="url(#p5c5d975f5b)" style="fill: #9ec3e3; stroke: #444444; stroke-width: 0.3; stroke-linejoin: miter"/>
   </g>
   <g id="patch_35">
    <path d="M 328.4448 211.6512 
C 328.836876 211.6512 329.212947 211.495426 329.490187 211.218187 
C 329.767426 210.940947 329.9232 210.564876 329.9232 210.1728 
C 329.9232 209.780724 329.767426 209.404653 329.490187 209.127413 
C 329.212947 208.850174 328.836876 208.6944 328.4448 208.6944 
C 328.052724 208.6944 327.676653 208.850174 327.399413 209.127413 
C 327.122174 209.404653 326.9664 209.780724 326.9664 210.1728 
C 326.9664 210.564876 327.122174 210.940947 327.399413 211.218187 
C 327.676653 211.495426 328.052724 211.6512 328.4448 211.6512 
z
" clip-path="url(#p5c5d975f5b)" style="fill: #9ec3e3; stroke: #444444; stroke-width: 0.3; stroke-linejoin: miter"/>
   </g>
   <g id="patch_36">
    <path d="M 337.7376 211.6512 
C 338.129676 211.6512 338.505747 211.495426 338.782987 211.218187 
C 339.060226 210.940947 339.216 210.564876 339.216 210.1728 
C 339.216 209.780724 339.060226 209.404653 338.782987 209.127413 
C 338.505747 208.850174 338.129676 208.6944 337.7376 208.6944 
C 337.345524 208.6944 336.969453 208.850174 336.692213 209.127413 
C 336.414974 209.404653 336.2592 209.780724 336.2592 210.1728 
C 336.2592 210.564876 336.414974 210.940947 336.692213 211.218187 
C 336.969453 211.495426 337.345524 211.6512 337.7376 211.6512 
z
" clip-path="url(#p5c5d975f5b)" style="fill: #9ec3e3; stroke: #444444; stroke-width: 0.3; stroke-linejoin: miter"/>
   </g>
   <g id="patch_37">
    <path d="M 347.0304 211.6512 
C 347.422476 211.6512 347.798547 211.495426 348.075787 211.218187 
C 348.353026 210.940947 348.5088 210.564876 348.5088 210.1728 
C 348.5088 209.780724 348.353026 209.404653 348.075787 209.127413 
C 347.798547 208.850174 347.422476 208.6944 347.0304 208.6944 
C 346.638324 208.6944 346.262253 208.850174 345.985013 209.127413 
C 345.707774 209.404653 345.552 209.780724 345.552 210.1728 
C 345.552 210.564876 345.707774 210.940947 345.985013 211.218187 
C 346.262253 211.495426 346.638324 211.6512 347.0304 211.6512 
z
" clip-path="url(#p5c5d975f5b)" style="fill: #9ec3e3; stroke: #444444; stroke-width: 0.3; stroke-linejoin: miter"/>
   </g>
   <g id="patch_38">
    <path d="M 356.3232 211.6512 
C 356.715276 211.6512 357.091347 211.495426 357.368587 211.218187 
C 357.645826 210.940947 357.8016 210.564876 357.8016 210.1728 
C 357.8016 209.780724 357.645826 209.404653 357.368587 209.127413 
C 357.091347 208.850174 356.715276 208.6944 356.3232 208.6944 
C 355.931124 208.6944 355.555053 208.850174 355.277813 209.127413 
C 355.000574 209.404653 354.8448 209.780724 354.8448 210.1728 
C 354.8448 210.564876 355.000574 210.940947 355.277813 211.218187 
C 355.555053 211.495426 355.931124 211.6512 356.3232 211.6512 
z
" clip-path="url(#p5c5d975f5b)" style="fill: #9ec3e3; stroke: #444444; stroke-width: 0.3; stroke-linejoin: miter"/>
   </g>
   <g id="patch_39">
    <path d="M 365.616 211.6512 
C 366.008076 211.6512 366.384147 211.495426 366.661387 211.218187 
C 366.938626 210.940947 367.0944 210.564876 367.0944 210.1728 
C 367.0944 209.780724 366.938626 209.404653 366.661387 209.127413 
C 366.384147 208.850174 366.008076 208.6944 365.616 208.6944 
C 365.223924 208.6944 364.847853 208.850174 364.570613 209.127413 
C 364.293374 209.404653 364.1376 209.780724 364.1376 210.1728 
C 364.1376 210.564876 364.293374 210.940947 364.570613 211.218187 
C 364.847853 211.495426 365.223924 211.6512 365.616 211.6512 
z
" clip-path="url(#p5c5d975f5b)" style="fill: #9ec3e3; stroke: #444444; stroke-width: 0.3; stroke-linejoin: miter"/>
   </g>
   <g id="patch_40">
    <path d="M 374.9088 211.6512 
C 375.300876 211.6512 375.676947 211.495426 375.954187 211.218187 
C 376.231426 210.940947 376.3872 210.564876 376.3872 210.1728 
C 376.3872 209.780724 376.231426 209.404653 375.954187 209.127413 
C 375.676947 208.850174 375.300876 208.6944 374.9088 208.6944 
C 374.516724 208.6944 374.140653 208.850174 373.863413 209.127413 
C 373.586174 209.404653 373.4304 209.780724 373.4304 210.1728 
C 373.4304 210.564876 373.586174 210.940947 373.863413 211.218187 
C 374.140653 211.495426 374.516724 211.6512 374.9088 211.6512 
z
" clip-path="url(#p5c5d975f5b)" style="fill: #9ec3e3; stroke: #444444; stroke-width: 0.3; stroke-linejoin: miter"/>
   </g>
   <g id="patch_41">
    <path d="M 384.2016 211.6512 
C 384.593676 211.6512 384.969747 211.495426 385.246987 211.218187 
C 385.524226 210.940947 385.68 210.564876 385.68 210.1728 
C 385.68 209.780724 385.524226 209.404653 385.246987 209.127413 
C 384.969747 208.850174 384.593676 208.6944 384.2016 208.6944 
C 383.809524 208.6944 383.433453 208.850174 383.156213 209.127413 
C 382.878974 209.404653 382.7232 209.780724 382.7232 210.1728 
C 382.7232 210.564876 382.878974 210.940947 383.156213 211.218187 
C 383.433453 211.495426 383.809524 211.6512 384.2016 211.6512 
z
" clip-path="url(#p5c5d975f5b)" style="fill: #9ec3e3; stroke: #444444; stroke-width: 0.3; stroke-linejoin: miter"/>
   </g>
   <g id="patch_42">
    <path d="M 393.4944 211.6512 
C 393.886476 211.6512 394.262547 211.495426 394.539787 211.218187 
C 394.817026 210.940947 394.9728 210.564876 394.9728 210.1728 
C 394.9728 209.780724 394.817026 209.404653 394.539787 209.127413 
C 394.262547 208.850174 393.886476 208.6944 393.4944 208.6944 
C 393.102324 208.6944 392.726253 208.850174 392.449013 209.127413 
C 392.171774 209.404653 392.016 209.780724 392.016 210.1728 
C 392.016 210.564876 392.171774 210.940947 392.449013 211.218187 
C 392.726253 211.495426 393.102324 211.6512 393.4944 211.6512 
z
" clip-path="url(#p5c5d975f5b)" style="fill: #9ec3e3; stroke: #444444; stroke-width: 0.3; stroke-linejoin: miter"/>
   </g>
   <g id="patch_43">
    <path d="M 402.7872 211.6512 
C 403.179276 211.6512 403.555347 211.495426 403.832587 211.218187 
C 404.109826 210.940947 404.2656 210.564876 404.2656 210.1728 
C 404.2656 209.780724 404.109826 209.404653 403.832587 209.127413 
C 403.555347 208.850174 403.179276 208.6944 402.7872 208.6944 
C 402.395124 208.6944 402.019053 208.850174 401.741813 209.127413 
C 401.464574 209.404653 401.3088 209.780724 401.3088 210.1728 
C 401.3088 210.564876 401.464574 210.940947 401.741813 211.218187 
C 402.019053 211.495426 402.395124 211.6512 402.7872 211.6512 
z
" clip-path="url(#p5c5d975f5b)" style="fill: #9ec3e3; stroke: #444444; stroke-width: 0.3; stroke-linejoin: miter"/>
   </g>
   <g id="text_3">
    <text style="font-style: italic; font-size: 6.5px; font-family: 'Liberation Sans', 'Arial', 'DejaVu Sans', sans-serif; text-anchor: middle; fill: #234d2c" x="76.272" y="140.4768" transform="rotate(-0 76.272 140.4768)">synthase</text>
   </g>
   <g id="text_4">
    <text style="font-weight: 700; font-size: 7.5px; font-family: 'Liberation Sans', 'Arial', 'DejaVu Sans', sans-serif; text-anchor: middle; fill: #a35400" x="215.664" y="153.515156" transform="rotate(-0 215.664 153.515156)">AbaR (LuxR-type receptor)</text>
   </g>
   <g id="text_5">
    <text style="font-style: italic; font-size: 6.5px; font-family: 'Liberation Sans', 'Arial', 'DejaVu Sans', sans-serif; text-anchor: start; fill: #d62828" x="234.672" y="96.116059" transform="rotate(-0 234.672 96.116059)">(brake)</text>
   </g>
   <g id="text_6">
    <text style="font-style: italic; font-size: 6px; font-family: 'Liberation Sans', 'Arial', 'DejaVu Sans', sans-serif; text-anchor: start; fill: #333333" x="88.944" y="86.832" transform="rotate(-0 88.944 86.832)">activates</text>
   </g>
   <g id="text_7">
    <text style="font-style: italic; font-size: 5.8px; font-family: 'Liberation Sans', 'Arial', 'DejaVu Sans', sans-serif; fill: #555555" transform="translate(347.207375 136.654387)">nutritional /</text>
    <text style="font-style: italic; font-size: 5.8px; font-family: 'Liberation Sans', 'Arial', 'DejaVu Sans', sans-serif; fill: #555555" transform="translate(339.469359 142.901712)">stringent sensing</text>
   </g>
   <g id="line2d_2">
    <path d="M 40.368 194.544 
L 403.632 194.544 
" clip-path="url(#p5c5d975f5b)" style="fill: none; stroke-dasharray: 4.2,2.1; stroke-dashoffset: 0; stroke: #222222; stroke-width: 1.4"/>
   </g>
   <g id="text_8">
    <text style="font-style: italic; font-size: 6px; font-family: 'Liberation Sans', 'Arial', 'DejaVu Sans', sans-serif; text-anchor: start; fill: #333333" x="118.512" y="171.312" transform="rotate(-0 118.512 171.312)">binds lux-box</text>
   </g>
   <g id="text_9">
    <text style="font-weight: 700; font-size: 7.5px; font-family: 'Liberation Sans', 'Arial', 'DejaVu Sans', sans-serif; text-anchor: middle; fill: #2e5c8a" x="209.328" y="273.5328" transform="rotate(-0 209.328 273.5328)">3-OH-C12-HSL (AHL)</text>
   </g>
   <g id="text_10">
    <text style="font-style: italic; font-size: 6.8px; font-family: 'Liberation Sans', 'Arial', 'DejaVu Sans', sans-serif; text-anchor: middle; fill: #4a235a" x="160.752" y="283.248" transform="rotate(-0 160.752 283.248)">Lactonases (MomL, AaL, AidA) + acylase (PvdQ) — cleave AHL</text>
   </g>
   <g id="text_11">
    <text style="font-style: italic; font-size: 8px; font-family: 'Liberation Sans', 'Arial', 'DejaVu Sans', sans-serif; text-anchor: start; fill: #555555" x="38.256" y="74.16" transform="rotate(-0 38.256 74.16)">Intracellular (cytoplasm)</text>
   </g>
   <g id="text_12">
    <text style="font-style: italic; font-size: 8px; font-family: 'Liberation Sans', 'Arial', 'DejaVu Sans', sans-serif; text-anchor: start; fill: #3a6a91" x="38.256" y="228.336" transform="rotate(-0 38.256 228.336)">Extracellular space</text>
   </g>
   <g id="text_13">
    <text style="font-size: 5.8px; font-family: 'Liberation Sans', 'Arial', 'DejaVu Sans', sans-serif; fill: #444444" transform="translate(36.144 113.764519)">SAM +</text>
    <text style="font-size: 5.8px; font-family: 'Liberation Sans', 'Arial', 'DejaVu Sans', sans-serif; fill: #444444" transform="translate(36.144 120.011844)">3-OH-C12-</text>
    <text style="font-size: 5.8px; font-family: 'Liberation Sans', 'Arial', 'DejaVu Sans', sans-serif; fill: #444444" transform="translate(36.144 126.259169)">ACP</text>
   </g>
   <g id="patch_44">
    <path d="M 57.152625 114.288 
Q 59.37678 114.288 60.818312 114.288 
" clip-path="url(#p5c5d975f5b)" style="fill: none; stroke: #000000; stroke-width: 0.7; stroke-linecap: round"/>
    <path d="M 58.018312 112.888 
L 60.818312 114.288 
L 58.018312 115.688 
z
" clip-path="url(#p5c5d975f5b)" style="stroke: #000000; stroke-width: 0.7; stroke-linecap: round"/>
   </g>
   <g id="patch_45">
    <path d="M 111.097541 83.448839 
Q 100.008027 99.964552 81.345842 97.053882 
" clip-path="url(#p5c5d975f5b)" style="fill: none; stroke: #000000; stroke-width: 0.9; stroke-linecap: round"/>
    <path d="M 84.261053 99.1279 
L 81.345842 97.053882 
L 84.754183 95.966125 
z
" clip-path="url(#p5c5d975f5b)" style="stroke: #000000; stroke-width: 0.9; stroke-linecap: round"/>
   </g>
   <g id="patch_46">
    <path d="M 361.392 98.122434 
Q 361.392 103.09177 361.392 107.054875 
" clip-path="url(#p5c5d975f5b)" style="fill: none; stroke: #000000; stroke-width: 0.9; stroke-linecap: round"/>
    <path d="M 362.992 103.854875 
L 361.392 107.054875 
L 359.792 103.854875 
z
" clip-path="url(#p5c5d975f5b)" style="stroke: #000000; stroke-width: 0.9; stroke-linecap: round"/>
   </g>
   <g id="patch_47">
    <path d="M 55.152 200.0352 
L 78.384 200.0352 
L 78.384 189.0528 
L 55.152 189.0528 
z
" clip-path="url(#p5c5d975f5b)" style="fill: #ffe599; stroke: #000000; stroke-width: 0.7; stroke-linejoin: miter"/>
   </g>
   <g id="patch_48">
    <path d="M 80.496 200.0352 
L 101.616 200.0352 
L 101.616 189.0528 
L 80.496 189.0528 
z
" clip-path="url(#p5c5d975f5b)" style="fill: #3a8a4d; stroke: #000000; stroke-width: 0.7; stroke-linejoin: miter"/>
   </g>
   <g id="patch_49">
    <path d="M 152.304 200.88 
L 188.208 200.88 
L 188.208 188.208 
L 152.304 188.208 
z
" clip-path="url(#p5c5d975f5b)" style="fill: #e6e6e6; stroke: #000000; stroke-width: 0.6; stroke-linejoin: miter"/>
   </g>
   <g id="patch_50">
    <path d="M 200.88 200.88 
L 236.784 200.88 
L 236.784 188.208 
L 200.88 188.208 
z
" clip-path="url(#p5c5d975f5b)" style="fill: #e6e6e6; stroke: #000000; stroke-width: 0.6; stroke-linejoin: miter"/>
   </g>
   <g id="patch_51">
    <path d="M 249.456 200.88 
L 285.36 200.88 
L 285.36 188.208 
L 249.456 188.208 
z
" clip-path="url(#p5c5d975f5b)" style="fill: #e6e6e6; stroke: #000000; stroke-width: 0.6; stroke-linejoin: miter"/>
   </g>
   <g id="patch_52">
    <path d="M 298.032 200.88 
L 333.936 200.88 
L 333.936 188.208 
L 298.032 188.208 
z
" clip-path="url(#p5c5d975f5b)" style="fill: #e6e6e6; stroke: #000000; stroke-width: 0.6; stroke-linejoin: miter"/>
   </g>
   <g id="patch_53">
    <path d="M 346.608 200.88 
L 382.512 200.88 
L 382.512 188.208 
L 346.608 188.208 
z
" clip-path="url(#p5c5d975f5b)" style="fill: #e6e6e6; stroke: #000000; stroke-width: 0.6; stroke-linejoin: miter"/>
   </g>
   <g id="text_14">
    <text style="font-style: italic; font-size: 6px; font-family: 'Liberation Sans', 'Arial', 'DejaVu Sans', sans-serif; fill: #444444" transform="translate(342.331875 164.84925)">downstream: biofilm,</text>
    <text style="font-style: italic; font-size: 6px; font-family: 'Liberation Sans', 'Arial', 'DejaVu Sans', sans-serif; fill: #444444" transform="translate(338.218594 171.312)">motility, virulence, efflux</text>
   </g>
   <g id="patch_54">
    <path d="M 197.386956 141.083665 
Q 145.870876 194.664906 72.921648 187.254632 
" clip-path="url(#p5c5d975f5b)" style="fill: none; stroke: #000000; stroke-width: 0.9; stroke-linecap: round"/>
    <path d="M 75.943567 189.169837 
L 72.921648 187.254632 
L 76.266963 185.98622 
z
" clip-path="url(#p5c5d975f5b)" style="stroke: #000000; stroke-width: 0.9; stroke-linecap: round"/>
   </g>
   <g id="patch_55">
    <path d="M 251.813801 141.614829 
Q 255.412263 168.012804 274.638909 184.968694 
" clip-path="url(#p5c5d975f5b)" style="fill: none; stroke: #000000; stroke-width: 0.9; stroke-linecap: round"/>
    <path d="M 273.297169 181.65211 
L 274.638909 184.968694 
L 271.180597 184.052135 
z
" clip-path="url(#p5c5d975f5b)" style="stroke: #000000; stroke-width: 0.9; stroke-linecap: round"/>
   </g>
   <g id="patch_56">
    <path d="M 76.428492 135.291275 
Q 80.495931 187.151123 84.47595 237.89636 
" clip-path="url(#p5c5d975f5b)" style="fill: none; stroke: #2e5c8a; stroke-linecap: round"/>
    <path d="M 85.820839 234.581051 
L 84.47595 237.89636 
L 82.630636 234.831263 
z
" clip-path="url(#p5c5d975f5b)" style="fill: #2e5c8a; stroke: #2e5c8a; stroke-linecap: round"/>
   </g>
   <g id="patch_57">
    <path d="M 110.064 230.559375 
Q 110.064 215.662989 110.064 200.766603 
" clip-path="url(#p5c5d975f5b)" style="fill: none; stroke-dasharray: 1.6,1.2; stroke-dashoffset: 0; stroke: #2e5c8a; stroke-width: 0.8; stroke-linecap: round"/>
   </g>
   <g id="patch_58">
    <path d="M 194.544 230.559375 
Q 194.544 215.662989 194.544 200.766603 
" clip-path="url(#p5c5d975f5b)" style="fill: none; stroke-dasharray: 1.6,1.2; stroke-dashoffset: 0; stroke: #2e5c8a; stroke-width: 0.8; stroke-linecap: round"/>
   </g>
   <g id="patch_59">
    <path d="M 295.92 230.559375 
Q 295.92 215.662989 295.92 200.766603 
" clip-path="url(#p5c5d975f5b)" style="fill: none; stroke-dasharray: 1.6,1.2; stroke-dashoffset: 0; stroke: #2e5c8a; stroke-width: 0.8; stroke-linecap: round"/>
   </g>
   <g id="patch_60">
    <path d="M 195.063067 190.503521 
Q 202.485083 161.676249 189.577811 135.974707 
" clip-path="url(#p5c5d975f5b)" style="fill: none; stroke-dasharray: 1.8,1.35; stroke-dashoffset: 0; stroke: #2e5c8a; stroke-width: 0.9; stroke-linecap: round"/>
    <path d="M 189.584098 139.55241 
L 189.577811 135.974707 
L 192.443746 138.1163 
z
" clip-path="url(#p5c5d975f5b)" style="fill: #2e5c8a; stroke-dasharray: 1.8,1.35; stroke-dashoffset: 0; stroke: #2e5c8a; stroke-width: 0.9; stroke-linecap: round"/>
   </g>
   <g id="patch_61">
    <path d="M 78.908648 291.877294 
Q 83.663558 274.379227 88.183922 257.744288 
" clip-path="url(#p5c5d975f5b)" style="fill: none; stroke: #7b2cbf; stroke-width: 0.8; stroke-linecap: round"/>
    <path d="M 86.098671 260.079182 
L 88.183922 257.744288 
L 88.800686 260.813425 
z
" clip-path="url(#p5c5d975f5b)" style="fill: #7b2cbf; stroke: #7b2cbf; stroke-width: 0.8; stroke-linecap: round"/>
   </g>
   <g id="patch_62">
    <path d="M 140.288133 291.918338 
Q 144.911832 278.602085 149.242148 266.130775 
" clip-path="url(#p5c5d975f5b)" style="fill: none; stroke: #7b2cbf; stroke-width: 0.8; stroke-linecap: round"/>
    <path d="M 147.001172 268.316644 
L 149.242148 266.130775 
L 149.646258 269.235077 
z
" clip-path="url(#p5c5d975f5b)" style="fill: #7b2cbf; stroke: #7b2cbf; stroke-width: 0.8; stroke-linecap: round"/>
   </g>
   <g id="patch_63">
    <path d="M 201.247641 291.841123 
Q 205.104109 271.209019 208.79624 251.456117 
" clip-path="url(#p5c5d975f5b)" style="fill: none; stroke: #7b2cbf; stroke-width: 0.8; stroke-linecap: round"/>
    <path d="M 206.905619 253.951222 
L 208.79624 251.456117 
L 209.657952 254.465677 
z
" clip-path="url(#p5c5d975f5b)" style="fill: #7b2cbf; stroke: #7b2cbf; stroke-width: 0.8; stroke-linecap: round"/>
   </g>
   <g id="patch_64">
    <path d="M 325.488 291.810881 
Q 325.488 274.380282 325.488 257.84411 
" clip-path="url(#p5c5d975f5b)" style="fill: none; stroke: #7b2cbf; stroke-width: 0.8; stroke-linecap: round"/>
    <path d="M 324.088 260.64411 
L 325.488 257.84411 
L 326.888 260.64411 
z
" clip-path="url(#p5c5d975f5b)" style="fill: #7b2cbf; stroke: #7b2cbf; stroke-width: 0.8; stroke-linecap: round"/>
   </g>
   <g id="patch_65">
    <path d="M 76.272 96.5472 
L 59.399497 108.805791 
L 65.844219 128.640609 
L 86.699781 128.640609 
L 93.144503 108.805791 
z
" clip-path="url(#p5c5d975f5b)" style="fill: #3a8a4d; stroke: #000000; stroke-width: 0.9; stroke-linejoin: miter"/>
   </g>
   <g id="patch_66">
    <path d="M 173.424 139.632 
L 215.664 139.632 
L 215.664 107.952 
L 173.424 107.952 
z
" clip-path="url(#p5c5d975f5b)" style="fill: #e89c2a; stroke: #000000; stroke-width: 0.9; stroke-linejoin: miter"/>
   </g>
   <g id="patch_67">
    <path d="M 215.664 139.632 
L 257.904 139.632 
L 257.904 107.952 
L 215.664 107.952 
z
" clip-path="url(#p5c5d975f5b)" style="fill: #f1b966; stroke: #000000; stroke-width: 0.9; stroke-linejoin: miter"/>
   </g>
   <g id="patch_68">
    <path d="M 126.96 81.7632 
C 133.121198 81.7632 139.03088 80.962079 143.387505 79.536274 
C 147.74413 78.11047 150.192 76.176392 150.192 74.16 
C 150.192 72.143608 147.74413 70.20953 143.387505 68.783726 
C 139.03088 67.357921 133.121198 66.5568 126.96 66.5568 
C 120.798802 66.5568 114.88912 67.357921 110.532495 68.783726 
C 106.17587 70.20953 103.728 72.143608 103.728 74.16 
C 103.728 76.176392 106.17587 78.11047 110.532495 79.536274 
C 114.88912 80.962079 120.798802 81.7632 126.96 81.7632 
z
" clip-path="url(#p5c5d975f5b)" style="fill: #5a3a9c; stroke: #000000; stroke-width: 0.9; stroke-linejoin: miter"/>
   </g>
   <g id="patch_69">
    <path d="M 342.384 94.4352 
L 380.4 94.4352 
L 380.4 79.2288 
L 342.384 79.2288 
z
" clip-path="url(#p5c5d975f5b)" style="fill: #888888; stroke: #000000; stroke-width: 0.8; stroke-linejoin: miter"/>
   </g>
   <g id="patch_70">
    <path d="M 361.392 126.5376 
C 363.184349 126.5376 364.903529 125.825492 366.17091 124.55811 
C 367.438292 123.290729 368.1504 121.571549 368.1504 119.7792 
C 368.1504 117.986851 367.438292 116.267671 366.17091 115.00029 
C 364.903529 113.732908 363.184349 113.0208 361.392 113.0208 
C 359.599651 113.0208 357.880471 113.732908 356.61309 115.00029 
C 355.345708 116.267671 354.6336 117.986851 354.6336 119.7792 
C 354.6336 121.571549 355.345708 123.290729 356.61309 124.55811 
C 357.880471 125.825492 359.599651 126.5376 361.392 126.5376 
z
" clip-path="url(#p5c5d975f5b)" style="fill: #a04020; stroke: #000000; stroke-width: 0.8; stroke-linejoin: miter"/>
   </g>
   <g id="text_15">
    <text style="font-weight: 700; font-size: 6.5px; font-family: 'Liberation Sans', 'Arial', 'DejaVu Sans', sans-serif; text-anchor: middle" x="66.768" y="196.224859" transform="rotate(-0 66.768 196.224859)">lux-box</text>
   </g>
   <g id="text_16">
    <text style="font-style: italic; font-weight: 700; font-size: 6.5px; font-family: 'Liberation Sans', 'Arial', 'DejaVu Sans', sans-serif; text-anchor: middle; fill: #ffffff" x="91.056" y="196.224859" transform="rotate(-0 91.056 196.224859)">abaI</text>
   </g>
   <g id="text_17">
    <text style="font-style: italic; font-weight: 700; font-size: 6.5px; font-family: 'Liberation Sans', 'Arial', 'DejaVu Sans', sans-serif; text-anchor: middle" x="170.256" y="196.224859" transform="rotate(-0 170.256 196.224859)">csu</text>
   </g>
   <g id="text_18">
    <text style="font-style: italic; font-weight: 700; font-size: 6.5px; font-family: 'Liberation Sans', 'Arial', 'DejaVu Sans', sans-serif; text-anchor: middle" x="218.832" y="196.224859" transform="rotate(-0 218.832 196.224859)">bap</text>
   </g>
   <g id="text_19">
    <text style="font-style: italic; font-weight: 700; font-size: 6.5px; font-family: 'Liberation Sans', 'Arial', 'DejaVu Sans', sans-serif; text-anchor: middle" x="267.408" y="196.224859" transform="rotate(-0 267.408 196.224859)">pgaABCD</text>
   </g>
   <g id="text_20">
    <text style="font-style: italic; font-weight: 700; font-size: 6.5px; font-family: 'Liberation Sans', 'Arial', 'DejaVu Sans', sans-serif; text-anchor: middle" x="315.984" y="196.224859" transform="rotate(-0 315.984 196.224859)">adeFGH</text>
   </g>
   <g id="text_21">
    <text style="font-style: italic; font-weight: 700; font-size: 6.5px; font-family: 'Liberation Sans', 'Arial', 'DejaVu Sans', sans-serif; text-anchor: middle" x="364.56" y="196.224859" transform="rotate(-0 364.56 196.224859)">ompA</text>
   </g>
   <g id="patch_71">
    <path d="M 82.1856 247.344 
L 86.85554 253.77162 
L 94.41166 251.316488 
L 94.41166 243.371512 
L 86.85554 240.91638 
z
" clip-path="url(#p5c5d975f5b)" style="fill: #2e5c8a; stroke: #000000; stroke-width: 0.6; stroke-linejoin: miter"/>
   </g>
   <g id="patch_72">
    <path d="M 96.5472 247.344 
L 100.1376 245.4432 
L 103.728 249.2448 
L 107.3184 245.4432 
L 110.9088 249.2448 
L 114.4992 245.4432 
L 118.0896 249.2448 
" clip-path="url(#p5c5d975f5b)" style="fill: none; stroke: #2e5c8a; stroke-linejoin: miter"/>
   </g>
   <g id="text_22">
    <text style="font-size: 4.5px; font-family: 'Liberation Sans', 'Arial', 'DejaVu Sans', sans-serif; text-anchor: start; fill: #2e5c8a" x="119.7792" y="250.408472" transform="rotate(-0 119.7792 250.408472)">OH</text>
   </g>
   <g id="patch_73">
    <path d="M 143.4336 255.792 
L 148.10354 262.21962 
L 155.65966 259.764488 
L 155.65966 251.819512 
L 148.10354 249.36438 
z
" clip-path="url(#p5c5d975f5b)" style="fill: #2e5c8a; stroke: #000000; stroke-width: 0.6; stroke-linejoin: miter"/>
   </g>
   <g id="patch_74">
    <path d="M 157.7952 255.792 
L 161.3856 253.8912 
L 164.976 257.6928 
L 168.5664 253.8912 
L 172.1568 257.6928 
L 175.7472 253.8912 
L 179.3376 257.6928 
" clip-path="url(#p5c5d975f5b)" style="fill: none; stroke: #2e5c8a; stroke-linejoin: miter"/>
   </g>
   <g id="text_23">
    <text style="font-size: 4.5px; font-family: 'Liberation Sans', 'Arial', 'DejaVu Sans', sans-serif; text-anchor: start; fill: #2e5c8a" x="181.0272" y="258.856472" transform="rotate(-0 181.0272 258.856472)">OH</text>
   </g>
   <g id="patch_75">
    <path d="M 202.5696 241.008 
L 207.23954 247.43562 
L 214.79566 244.980488 
L 214.79566 237.035512 
L 207.23954 234.58038 
z
" clip-path="url(#p5c5d975f5b)" style="fill: #2e5c8a; stroke: #000000; stroke-width: 0.6; stroke-linejoin: miter"/>
   </g>
   <g id="patch_76">
    <path d="M 216.9312 241.008 
L 220.5216 239.1072 
L 224.112 242.9088 
L 227.7024 239.1072 
L 231.2928 242.9088 
L 234.8832 239.1072 
L 238.4736 242.9088 
" clip-path="url(#p5c5d975f5b)" style="fill: none; stroke: #2e5c8a; stroke-linejoin: miter"/>
   </g>
   <g id="text_24">
    <text style="font-size: 4.5px; font-family: 'Liberation Sans', 'Arial', 'DejaVu Sans', sans-serif; text-anchor: start; fill: #2e5c8a" x="240.1632" y="244.072472" transform="rotate(-0 240.1632 244.072472)">OH</text>
   </g>
   <g id="patch_77">
    <path d="M 261.7056 253.68 
L 266.37554 260.10762 
L 273.93166 257.652488 
L 273.93166 249.707512 
L 266.37554 247.25238 
z
" clip-path="url(#p5c5d975f5b)" style="fill: #2e5c8a; stroke: #000000; stroke-width: 0.6; stroke-linejoin: miter"/>
   </g>
   <g id="patch_78">
    <path d="M 276.0672 253.68 
L 279.6576 251.7792 
L 283.248 255.5808 
L 286.8384 251.7792 
L 290.4288 255.5808 
L 294.0192 251.7792 
L 297.6096 255.5808 
" clip-path="url(#p5c5d975f5b)" style="fill: none; stroke: #2e5c8a; stroke-linejoin: miter"/>
   </g>
   <g id="text_25">
    <text style="font-size: 4.5px; font-family: 'Liberation Sans', 'Arial', 'DejaVu Sans', sans-serif; text-anchor: start; fill: #2e5c8a" x="299.2992" y="256.744472" transform="rotate(-0 299.2992 256.744472)">OH</text>
   </g>
   <g id="patch_79">
    <path d="M 318.7296 247.344 
L 323.39954 253.77162 
L 330.95566 251.316488 
L 330.95566 243.371512 
L 323.39954 240.91638 
z
" clip-path="url(#p5c5d975f5b)" style="fill: #2e5c8a; stroke: #000000; stroke-width: 0.6; stroke-linejoin: miter"/>
   </g>
   <g id="patch_80">
    <path d="M 333.0912 247.344 
L 336.6816 245.4432 
L 340.272 249.2448 
L 343.8624 245.4432 
L 347.4528 249.2448 
L 351.0432 245.4432 
L 354.6336 249.2448 
" clip-path="url(#p5c5d975f5b)" style="fill: none; stroke: #2e5c8a; stroke-linejoin: miter"/>
   </g>
   <g id="text_26">
    <text style="font-size: 4.5px; font-family: 'Liberation Sans', 'Arial', 'DejaVu Sans', sans-serif; text-anchor: start; fill: #2e5c8a" x="356.3232" y="250.408472" transform="rotate(-0 356.3232 250.408472)">OH</text>
   </g>
   <g id="text_27">
    <text style="font-style: italic; font-size: 5.8px; font-family: 'Liberation Sans', 'Arial', 'DejaVu Sans', sans-serif; text-anchor: start; fill: #2e5c8a" x="226.224" y="183.1392" transform="rotate(-0 226.224 183.1392)">AHL binds AbaR</text>
   </g>
   <g id="patch_81">
    <path d="M 84.855543 296.82573 
C 84.301611 296.165579 83.649914 295.594056 82.923107 295.131029 
C 82.196301 294.668002 81.402906 294.3189 80.570503 294.095859 
C 79.738101 293.872817 78.87645 293.778451 78.015503 293.816041 
C 77.154557 293.85363 76.304409 294.022735 75.494614 294.317477 
C 74.684818 294.612218 73.924869 295.029141 73.241183 295.553751 
C 72.557498 296.078361 71.958092 296.704509 71.463804 297.410426 
C 70.969515 298.116344 70.586137 298.893756 70.326999 299.715637 
C 70.067861 300.537519 69.936 301.394234 69.936 302.256 
C 69.936 303.117766 70.067861 303.974481 70.326999 304.796363 
C 70.586137 305.618244 70.969515 306.395656 71.463804 307.101574 
C 71.958092 307.807491 72.557498 308.433639 73.241183 308.958249 
C 73.924869 309.482859 74.684818 309.899782 75.494614 310.194523 
C 76.304409 310.489265 77.154557 310.65837 78.015503 310.695959 
C 78.87645 310.733549 79.738101 310.639183 80.570503 310.416141 
C 81.402906 310.1931 82.196301 309.843998 82.923107 309.380971 
C 83.649914 308.917944 84.301611 308.346421 84.855543 307.68627 
L 78.384 302.256 
z
" clip-path="url(#p5c5d975f5b)" style="fill: #7b2cbf; stroke: #000000; stroke-width: 0.7; stroke-linejoin: miter"/>
   </g>
   <g id="patch_82">
    <path d="M 146.103543 296.82573 
C 145.549611 296.165579 144.897914 295.594056 144.171107 295.131029 
C 143.444301 294.668002 142.650906 294.3189 141.818503 294.095859 
C 140.986101 293.872817 140.12445 293.778451 139.263503 293.816041 
C 138.402557 293.85363 137.552409 294.022735 136.742614 294.317477 
C 135.932818 294.612218 135.172869 295.029141 134.489183 295.553751 
C 133.805498 296.078361 133.206092 296.704509 132.711804 297.410426 
C 132.217515 298.116344 131.834137 298.893756 131.574999 299.715637 
C 131.315861 300.537519 131.184 301.394234 131.184 302.256 
C 131.184 303.117766 131.315861 303.974481 131.574999 304.796363 
C 131.834137 305.618244 132.217515 306.395656 132.711804 307.101574 
C 133.206092 307.807491 133.805498 308.433639 134.489183 308.958249 
C 135.172869 309.482859 135.932818 309.899782 136.742614 310.194523 
C 137.552409 310.489265 138.402557 310.65837 139.263503 310.695959 
C 140.12445 310.733549 140.986101 310.639183 141.818503 310.416141 
C 142.650906 310.1931 143.444301 309.843998 144.171107 309.380971 
C 144.897914 308.917944 145.549611 308.346421 146.103543 307.68627 
L 139.632 302.256 
z
" clip-path="url(#p5c5d975f5b)" style="fill: #7b2cbf; stroke: #000000; stroke-width: 0.7; stroke-linejoin: miter"/>
   </g>
   <g id="patch_83">
    <path d="M 207.351543 296.82573 
C 206.797611 296.165579 206.145914 295.594056 205.419107 295.131029 
C 204.692301 294.668002 203.898906 294.3189 203.066503 294.095859 
C 202.234101 293.872817 201.37245 293.778451 200.511503 293.816041 
C 199.650557 293.85363 198.800409 294.022735 197.990614 294.317477 
C 197.180818 294.612218 196.420869 295.029141 195.737183 295.553751 
C 195.053498 296.078361 194.454092 296.704509 193.959804 297.410426 
C 193.465515 298.116344 193.082137 298.893756 192.822999 299.715637 
C 192.563861 300.537519 192.432 301.394234 192.432 302.256 
C 192.432 303.117766 192.563861 303.974481 192.822999 304.796363 
C 193.082137 305.618244 193.465515 306.395656 193.959804 307.101574 
C 194.454092 307.807491 195.053498 308.433639 195.737183 308.958249 
C 196.420869 309.482859 197.180818 309.899782 197.990614 310.194523 
C 198.800409 310.489265 199.650557 310.65837 200.511503 310.695959 
C 201.37245 310.733549 202.234101 310.639183 203.066503 310.416141 
C 203.898906 310.1931 204.692301 309.843998 205.419107 309.380971 
C 206.145914 308.917944 206.797611 308.346421 207.351543 307.68627 
L 200.88 302.256 
z
" clip-path="url(#p5c5d975f5b)" style="fill: #7b2cbf; stroke: #000000; stroke-width: 0.7; stroke-linejoin: miter"/>
   </g>
   <g id="patch_84">
    <path d="M 331.959543 296.82573 
C 331.405611 296.165579 330.753914 295.594056 330.027107 295.131029 
C 329.300301 294.668002 328.506906 294.3189 327.674503 294.095859 
C 326.842101 293.872817 325.98045 293.778451 325.119503 293.816041 
C 324.258557 293.85363 323.408409 294.022735 322.598614 294.317477 
C 321.788818 294.612218 321.028869 295.029141 320.345183 295.553751 
C 319.661498 296.078361 319.062092 296.704509 318.567804 297.410426 
C 318.073515 298.116344 317.690137 298.893756 317.430999 299.715637 
C 317.171861 300.537519 317.04 301.394234 317.04 302.256 
C 317.04 303.117766 317.171861 303.974481 317.430999 304.796363 
C 317.690137 305.618244 318.073515 306.395656 318.567804 307.101574 
C 319.062092 307.807491 319.661498 308.433639 320.345183 308.958249 
C 321.028869 309.482859 321.788818 309.899782 322.598614 310.194523 
C 323.408409 310.489265 324.258557 310.65837 325.119503 310.695959 
C 325.98045 310.733549 326.842101 310.639183 327.674503 310.416141 
C 328.506906 310.1931 329.300301 309.843998 330.027107 309.380971 
C 330.753914 308.917944 331.405611 308.346421 331.959543 307.68627 
L 325.488 302.256 
z
" clip-path="url(#p5c5d975f5b)" style="fill: #7b2cbf; stroke: #000000; stroke-width: 0.7; stroke-linejoin: miter"/>
   </g>
   <g id="legend_1">
    <g id="patch_85">
     <path d="M 30.369 365.62432 
L 37.409 365.62432 
L 37.409 361.14432 
L 30.369 361.14432 
z
" style="fill: #3a8a4d; stroke: #3a8a4d; stroke-linejoin: miter"/>
    </g>
    <g id="text_28">
     <text style="font-size: 6.4px; font-family: 'Liberation Sans', 'Arial', 'DejaVu Sans', sans-serif; text-anchor: start" x="39.649" y="365.62432" transform="rotate(-0 39.649 365.62432)">AbaI (synthase)</text>
    </g>
    <g id="patch_86">
     <path d="M 89.588 365.62432 
L 96.628 365.62432 
L 96.628 361.14432 
L 89.588 361.14432 
z
" style="fill: #e89c2a; stroke: #e89c2a; stroke-linejoin: miter"/>
    </g>
    <g id="text_29">
     <text style="font-size: 6.4px; font-family: 'Liberation Sans', 'Arial', 'DejaVu Sans', sans-serif; text-anchor: start" x="98.868" y="365.62432" transform="rotate(-0 98.868 365.62432)">AbaR (receptor)</text>
    </g>
    <g id="patch_87">
     <path d="M 149.513 365.62432 
L 156.553 365.62432 
L 156.553 361.14432 
L 149.513 361.14432 
z
" style="fill: #d62828; stroke: #d62828; stroke-linejoin: miter"/>
    </g>
    <g id="text_30">
     <text style="font-size: 6.4px; font-family: 'Liberation Sans', 'Arial', 'DejaVu Sans', sans-serif; text-anchor: start" x="158.793" y="365.62432" transform="rotate(-0 158.793 365.62432)">AbaM (brake)</text>
    </g>
    <g id="patch_88">
     <path d="M 202.679 365.62432 
L 209.719 365.62432 
L 209.719 361.14432 
L 202.679 361.14432 
z
" style="fill: #2e5c8a; stroke: #2e5c8a; stroke-linejoin: miter"/>
    </g>
    <g id="text_31">
     <text style="font-size: 6.4px; font-family: 'Liberation Sans', 'Arial', 'DejaVu Sans', sans-serif; text-anchor: start" x="211.959" y="365.62432" transform="rotate(-0 211.959 365.62432)">AHL signal</text>
    </g>
    <g id="patch_89">
     <path d="M 247.788 365.62432 
L 254.828 365.62432 
L 254.828 361.14432 
L 247.788 361.14432 
z
" style="fill: #7b2cbf; stroke: #7b2cbf; stroke-linejoin: miter"/>
    </g>
    <g id="text_32">
     <text style="font-size: 6.4px; font-family: 'Liberation Sans', 'Arial', 'DejaVu Sans', sans-serif; text-anchor: start" x="257.068" y="365.62432" transform="rotate(-0 257.068 365.62432)">QQ enzymes</text>
    </g>
    <g id="line2d_3">
     <path d="M 299.53 363.38432 
L 303.05 363.38432 
L 306.57 363.38432 
" style="fill: none; stroke: #000000; stroke-linecap: square"/>
     <defs>
      <path id="m938eb2f1a8" d="M 2.5 0 
L -2.5 -2.5 
L -2.5 2.5 
z
" style="stroke: #000000; stroke-linejoin: miter"/>
     </defs>
     <g>
      <use xlink:href="#m938eb2f1a8" x="303.05" y="363.38432" style="stroke: #000000; stroke-linejoin: miter"/>
     </g>
    </g>
    <g id="text_33">
     <text style="font-size: 6.4px; font-family: 'Liberation Sans', 'Arial', 'DejaVu Sans', sans-serif; text-anchor: start" x="308.81" y="365.62432" transform="rotate(-0 308.81 365.62432)">activation</text>
    </g>
    <g id="line2d_4">
     <path d="M 340.966 363.38432 
L 344.486 363.38432 
L 348.006 363.38432 
" style="fill: none; stroke: #d62828; stroke-width: 1.4; stroke-linecap: square"/>
     <defs>
      <path id="m79c4614264" d="M 4 0 
L -4 -0 
" style="stroke: #d62828"/>
     </defs>
     <g>
      <use xlink:href="#m79c4614264" x="344.486" y="363.38432" style="fill: #d62828; stroke: #d62828"/>
     </g>
    </g>
    <g id="text_34">
     <text style="font-size: 6.4px; font-family: 'Liberation Sans', 'Arial', 'DejaVu Sans', sans-serif; text-anchor: start" x="350.246" y="365.62432" transform="rotate(-0 350.246 365.62432)">inhibition</text>
    </g>
    <g id="line2d_5">
     <path d="M 380.627 363.38432 
L 384.147 363.38432 
L 387.667 363.38432 
" style="fill: none; stroke-dasharray: 1.8,1.35; stroke-dashoffset: 0; stroke: #2e5c8a; stroke-width: 0.9"/>
    </g>
    <g id="text_35">
     <text style="font-size: 6.4px; font-family: 'Liberation Sans', 'Arial', 'DejaVu Sans', sans-serif; text-anchor: start" x="389.907" y="365.62432" transform="rotate(-0 389.907 365.62432)">diffusion</text>
    </g>
   </g>
   <g id="text_36">
    <text style="font-weight: 700; font-size: 8px; font-family: 'Liberation Sans', 'Arial', 'DejaVu Sans', sans-serif; text-anchor: middle; fill: #ffffff" x="76.272" y="116.35675" transform="rotate(-0 76.272 116.35675)">AbaI</text>
   </g>
   <g id="line2d_6">
    <path d="M 215.664 137.52 
L 215.664 110.064 
" clip-path="url(#p5c5d975f5b)" style="fill: none; stroke: #000000; stroke-width: 0.6; stroke-linecap: square"/>
   </g>
   <g id="text_37">
    <text style="font-size: 6.5px; font-family: 'Liberation Sans', 'Arial', 'DejaVu Sans', sans-serif" transform="translate(180.995563 121.972203)">AHL-bind</text>
    <text style="font-size: 6.5px; font-family: 'Liberation Sans', 'Arial', 'DejaVu Sans', sans-serif" transform="translate(190.032594 128.973516)">(N)</text>
   </g>
   <g id="text_38">
    <text style="font-size: 6.5px; font-family: 'Liberation Sans', 'Arial', 'DejaVu Sans', sans-serif" transform="translate(222.160523 121.972203)">HTH-DNA</text>
    <text style="font-size: 6.5px; font-family: 'Liberation Sans', 'Arial', 'DejaVu Sans', sans-serif" transform="translate(232.272594 128.973516)">(C)</text>
   </g>
   <g id="patch_90">
    <path d="M 202.992 85.9872 
L 228.336 85.9872 
L 215.664 103.728 
z
" clip-path="url(#p5c5d975f5b)" style="fill: #d62828; stroke: #000000; stroke-width: 0.8; stroke-linejoin: miter"/>
   </g>
   <g id="patch_91">
    <path d="M 215.664 105.7311 
Q 215.664 106.41915 215.664 107.1072 
" clip-path="url(#p5c5d975f5b)" style="fill: none; stroke: #d62828; stroke-width: 1.4; stroke-linecap: round"/>
    <path d="M 222.664 104.3311 
L 222.664 105.7311 
L 208.664 105.7311 
L 208.664 104.3311 
" clip-path="url(#p5c5d975f5b)" style="fill: none; stroke: #d62828; stroke-width: 1.4; stroke-linecap: round"/>
   </g>
   <g id="text_39">
    <text style="font-weight: 700; font-size: 6.8px; font-family: 'Liberation Sans', 'Arial', 'DejaVu Sans', sans-serif; text-anchor: middle; fill: #ffffff" x="126.96" y="75.918437" transform="rotate(-0 126.96 75.918437)">ABUW_1132</text>
   </g>
   <g id="text_40">
    <text style="font-style: italic; font-size: 6px; font-family: 'Liberation Sans', 'Arial', 'DejaVu Sans', sans-serif; text-anchor: start; fill: #2e1a55" x="157.3728" y="75.711562" transform="rotate(-0 157.3728 75.711562)">LysR-type</text>
   </g>
   <g id="text_41">
    <text style="font-weight: 700; font-size: 7.5px; font-family: 'Liberation Sans', 'Arial', 'DejaVu Sans', sans-serif; text-anchor: middle; fill: #ffffff" x="361.392" y="88.771453" transform="rotate(-0 361.392 88.771453)">RelA</text>
   </g>
   <g id="text_42">
    <text style="font-weight: 700; font-size: 5.5px; font-family: 'Liberation Sans', 'Arial', 'DejaVu Sans', sans-serif; text-anchor: middle; fill: #ffffff" x="361.392" y="121.201466" transform="rotate(-0 361.392 121.201466)">(p)ppGpp</text>
   </g>
   <g id="text_43">
    <text style="font-weight: 700; font-size: 5px; font-family: 'Liberation Sans', 'Arial', 'DejaVu Sans', sans-serif; text-anchor: middle; fill: #ffffff" x="88.944" y="248.636969" transform="rotate(-0 88.944 248.636969)">O</text>
   </g>
   <g id="text_44">
    <text style="font-weight: 700; font-size: 5px; font-family: 'Liberation Sans', 'Arial', 'DejaVu Sans', sans-serif; text-anchor: middle; fill: #ffffff" x="150.192" y="257.084969" transform="rotate(-0 150.192 257.084969)">O</text>
   </g>
   <g id="text_45">
    <text style="font-weight: 700; font-size: 5px; font-family: 'Liberation Sans', 'Arial', 'DejaVu Sans', sans-serif; text-anchor: middle; fill: #ffffff" x="209.328" y="242.300969" transform="rotate(-0 209.328 242.300969)">O</text>
   </g>
   <g id="text_46">
    <text style="font-weight: 700; font-size: 5px; font-family: 'Liberation Sans', 'Arial', 'DejaVu Sans', sans-serif; text-anchor: middle; fill: #ffffff" x="268.464" y="254.972969" transform="rotate(-0 268.464 254.972969)">O</text>
   </g>
   <g id="text_47">
    <text style="font-weight: 700; font-size: 5px; font-family: 'Liberation Sans', 'Arial', 'DejaVu Sans', sans-serif; text-anchor: middle; fill: #ffffff" x="325.488" y="248.636969" transform="rotate(-0 325.488 248.636969)">O</text>
   </g>
   <g id="text_48">
    <text style="font-weight: 700; font-size: 6.5px; font-family: 'Liberation Sans', 'Arial', 'DejaVu Sans', sans-serif; text-anchor: middle; fill: #7b2cbf" x="78.384" y="321.750469" transform="rotate(-0 78.384 321.750469)">MomL</text>
   </g>
   <g id="text_49">
    <text style="font-weight: 700; font-size: 6.5px; font-family: 'Liberation Sans', 'Arial', 'DejaVu Sans', sans-serif; text-anchor: middle; fill: #7b2cbf" x="139.632" y="321.750469" transform="rotate(-0 139.632 321.750469)">AaL</text>
   </g>
   <g id="text_50">
    <text style="font-weight: 700; font-size: 6.5px; font-family: 'Liberation Sans', 'Arial', 'DejaVu Sans', sans-serif; text-anchor: middle; fill: #7b2cbf" x="200.88" y="321.750469" transform="rotate(-0 200.88 321.750469)">AidA</text>
   </g>
   <g id="text_51">
    <text style="font-weight: 700; font-size: 6.5px; font-family: 'Liberation Sans', 'Arial', 'DejaVu Sans', sans-serif; text-anchor: middle; fill: #7b2cbf" x="325.488" y="321.750469" transform="rotate(-0 325.488 321.750469)">PvdQ</text>
   </g>
   <g id="text_52">
    <text style="font-weight: 700; font-size: 6.8px; font-family: 'Liberation Sans', 'Arial', 'DejaVu Sans', sans-serif; text-anchor: middle; fill: #ffffff" x="215.664" y="94.504037" transform="rotate(-0 215.664 94.504037)">AbaM</text>
   </g>
   <g id="patch_92">
    <path d="M 33.1872 55.9968 
L 410.8128 55.9968 
Q 412.9248 55.9968 412.9248 53.8848 
L 412.9248 37.4112 
Q 412.9248 35.2992 410.8128 35.2992 
L 33.1872 35.2992 
Q 31.0752 35.2992 31.0752 37.4112 
L 31.0752 53.8848 
Q 31.0752 55.9968 33.1872 55.9968 
z
" clip-path="url(#p5c5d975f5b)" style="fill: #f9f7f1; stroke: #bbbbbb; stroke-width: 0.5; stroke-linejoin: miter"/>
   </g>
   <g id="text_53">
    <text style="font-weight: 700; font-size: 6.8px; font-family: 'Liberation Sans', 'Arial', 'DejaVu Sans', sans-serif; text-anchor: start; fill: #222222" x="38.6784" y="47.406438" transform="rotate(-0 38.6784 47.406438)">QS cycle:</text>
   </g>
   <g id="patch_93">
    <path d="M 83.4528 49.2384 
C 84.404985 49.2384 85.3183 48.860093 85.991596 48.186796 
C 86.664893 47.5135 87.0432 46.600185 87.0432 45.648 
C 87.0432 44.695815 86.664893 43.7825 85.991596 43.109204 
C 85.3183 42.435907 84.404985 42.0576 83.4528 42.0576 
C 82.500615 42.0576 81.5873 42.435907 80.914004 43.109204 
C 80.240707 43.7825 79.8624 44.695815 79.8624 45.648 
C 79.8624 46.600185 80.240707 47.5135 80.914004 48.186796 
C 81.5873 48.860093 82.500615 49.2384 83.4528 49.2384 
z
" clip-path="url(#p5c5d975f5b)" style="fill: #333333; stroke: #000000; stroke-width: 0.5; stroke-linejoin: miter"/>
   </g>
   <g id="text_54">
    <text style="font-size: 6.2px; font-family: 'Liberation Sans', 'Arial', 'DejaVu Sans', sans-serif; text-anchor: start; fill: #222222" x="88.944" y="47.251281" transform="rotate(-0 88.944 47.251281)">Synthesis</text>
   </g>
   <g id="patch_94">
    <path d="M 137.6608 49.2384 
C 138.612985 49.2384 139.5263 48.860093 140.199596 48.186796 
C 140.872893 47.5135 141.2512 46.600185 141.2512 45.648 
C 141.2512 44.695815 140.872893 43.7825 140.199596 43.109204 
C 139.5263 42.435907 138.612985 42.0576 137.6608 42.0576 
C 136.708615 42.0576 135.7953 42.435907 135.122004 43.109204 
C 134.448707 43.7825 134.0704 44.695815 134.0704 45.648 
C 134.0704 46.600185 134.448707 47.5135 135.122004 48.186796 
C 135.7953 48.860093 136.708615 49.2384 137.6608 49.2384 
z
" clip-path="url(#p5c5d975f5b)" style="fill: #333333; stroke: #000000; stroke-width: 0.5; stroke-linejoin: miter"/>
   </g>
   <g id="text_55">
    <text style="font-size: 6.2px; font-family: 'Liberation Sans', 'Arial', 'DejaVu Sans', sans-serif; text-anchor: start; fill: #222222" x="143.152" y="47.251281" transform="rotate(-0 143.152 47.251281)">Diffusion</text>
   </g>
   <g id="patch_95">
    <path d="M 191.8688 49.2384 
C 192.820985 49.2384 193.7343 48.860093 194.407596 48.186796 
C 195.080893 47.5135 195.4592 46.600185 195.4592 45.648 
C 195.4592 44.695815 195.080893 43.7825 194.407596 43.109204 
C 193.7343 42.435907 192.820985 42.0576 191.8688 42.0576 
C 190.916615 42.0576 190.0033 42.435907 189.330004 43.109204 
C 188.656707 43.7825 188.2784 44.695815 188.2784 45.648 
C 188.2784 46.600185 188.656707 47.5135 189.330004 48.186796 
C 190.0033 48.860093 190.916615 49.2384 191.8688 49.2384 
z
" clip-path="url(#p5c5d975f5b)" style="fill: #333333; stroke: #000000; stroke-width: 0.5; stroke-linejoin: miter"/>
   </g>
   <g id="text_56">
    <text style="font-size: 6.2px; font-family: 'Liberation Sans', 'Arial', 'DejaVu Sans', sans-serif; text-anchor: start; fill: #222222" x="197.36" y="47.251281" transform="rotate(-0 197.36 47.251281)">Accumulation</text>
   </g>
   <g id="patch_96">
    <path d="M 246.0768 49.2384 
C 247.028985 49.2384 247.9423 48.860093 248.615596 48.186796 
C 249.288893 47.5135 249.6672 46.600185 249.6672 45.648 
C 249.6672 44.695815 249.288893 43.7825 248.615596 43.109204 
C 247.9423 42.435907 247.028985 42.0576 246.0768 42.0576 
C 245.124615 42.0576 244.2113 42.435907 243.538004 43.109204 
C 242.864707 43.7825 242.4864 44.695815 242.4864 45.648 
C 242.4864 46.600185 242.864707 47.5135 243.538004 48.186796 
C 244.2113 48.860093 245.124615 49.2384 246.0768 49.2384 
z
" clip-path="url(#p5c5d975f5b)" style="fill: #333333; stroke: #000000; stroke-width: 0.5; stroke-linejoin: miter"/>
   </g>
   <g id="text_57">
    <text style="font-size: 6.2px; font-family: 'Liberation Sans', 'Arial', 'DejaVu Sans', sans-serif; text-anchor: start; fill: #222222" x="251.568" y="47.251281" transform="rotate(-0 251.568 47.251281)">Binding</text>
   </g>
   <g id="patch_97">
    <path d="M 300.2848 49.2384 
C 301.236985 49.2384 302.1503 48.860093 302.823596 48.186796 
C 303.496893 47.5135 303.8752 46.600185 303.8752 45.648 
C 303.8752 44.695815 303.496893 43.7825 302.823596 43.109204 
C 302.1503 42.435907 301.236985 42.0576 300.2848 42.0576 
C 299.332615 42.0576 298.4193 42.435907 297.746004 43.109204 
C 297.072707 43.7825 296.6944 44.695815 296.6944 45.648 
C 296.6944 46.600185 297.072707 47.5135 297.746004 48.186796 
C 298.4193 48.860093 299.332615 49.2384 300.2848 49.2384 
z
" clip-path="url(#p5c5d975f5b)" style="fill: #333333; stroke: #000000; stroke-width: 0.5; stroke-linejoin: miter"/>
   </g>
   <g id="text_58">
    <text style="font-size: 6.2px; font-family: 'Liberation Sans', 'Arial', 'DejaVu Sans', sans-serif; text-anchor: start; fill: #222222" x="305.776" y="47.251281" transform="rotate(-0 305.776 47.251281)">Transcription</text>
   </g>
   <g id="patch_98">
    <path d="M 354.4928 49.2384 
C 355.444985 49.2384 356.3583 48.860093 357.031596 48.186796 
C 357.704893 47.5135 358.0832 46.600185 358.0832 45.648 
C 358.0832 44.695815 357.704893 43.7825 357.031596 43.109204 
C 356.3583 42.435907 355.444985 42.0576 354.4928 42.0576 
C 353.540615 42.0576 352.6273 42.435907 351.954004 43.109204 
C 351.280707 43.7825 350.9024 44.695815 350.9024 45.648 
C 350.9024 46.600185 351.280707 47.5135 351.954004 48.186796 
C 352.6273 48.860093 353.540615 49.2384 354.4928 49.2384 
z
" clip-path="url(#p5c5d975f5b)" style="fill: #333333; stroke: #000000; stroke-width: 0.5; stroke-linejoin: miter"/>
   </g>
   <g id="text_59">
    <text style="font-size: 6.2px; font-family: 'Liberation Sans', 'Arial', 'DejaVu Sans', sans-serif; text-anchor: start; fill: #222222" x="359.984" y="47.251281" transform="rotate(-0 359.984 47.251281)">Output</text>
   </g>
   <g id="text_60">
    <text style="font-weight: 700; font-size: 5.5px; font-family: 'Liberation Sans', 'Arial', 'DejaVu Sans', sans-serif; text-anchor: middle; fill: #ffffff" x="83.4528" y="47.070266" transform="rotate(-0 83.4528 47.070266)">1</text>
   </g>
   <g id="text_61">
    <text style="font-weight: 700; font-size: 5.5px; font-family: 'Liberation Sans', 'Arial', 'DejaVu Sans', sans-serif; text-anchor: middle; fill: #ffffff" x="137.6608" y="47.070266" transform="rotate(-0 137.6608 47.070266)">2</text>
   </g>
   <g id="text_62">
    <text style="font-weight: 700; font-size: 5.5px; font-family: 'Liberation Sans', 'Arial', 'DejaVu Sans', sans-serif; text-anchor: middle; fill: #ffffff" x="191.8688" y="47.070266" transform="rotate(-0 191.8688 47.070266)">3</text>
   </g>
   <g id="text_63">
    <text style="font-weight: 700; font-size: 5.5px; font-family: 'Liberation Sans', 'Arial', 'DejaVu Sans', sans-serif; text-anchor: middle; fill: #ffffff" x="246.0768" y="47.070266" transform="rotate(-0 246.0768 47.070266)">4</text>
   </g>
   <g id="text_64">
    <text style="font-weight: 700; font-size: 5.5px; font-family: 'Liberation Sans', 'Arial', 'DejaVu Sans', sans-serif; text-anchor: middle; fill: #ffffff" x="300.2848" y="47.070266" transform="rotate(-0 300.2848 47.070266)">5</text>
   </g>
   <g id="text_65">
    <text style="font-weight: 700; font-size: 5.5px; font-family: 'Liberation Sans', 'Arial', 'DejaVu Sans', sans-serif; text-anchor: middle; fill: #ffffff" x="354.4928" y="47.070266" transform="rotate(-0 354.4928 47.070266)">6</text>
   </g>
  </g>
 </g>
 <defs>
  <clipPath id="p5c5d975f5b">
   <rect x="10.8" y="10.8" width="422.4" height="354.816"/>
  </clipPath>
 </defs>
</svg>
