<?xml version="1.0" encoding="utf-8" standalone="no"?>
<!DOCTYPE svg PUBLIC "-//W3C//DTD SVG 1.1//EN"
  "http://www.w3.org/Graphics/SVG/1.1/DTD/svg11.dtd">
<svg xmlns:xlink="http://www.w3.org/1999/xlink" width="432.266667pt" height="361.2192pt" viewBox="0 0 432.266667 361.2192" xmlns="http://www.w3.org/2000/svg" version="1.1">
 <metadata>
  <rdf:RDF xmlns:dc="http://purl.org/dc/elements/1.1/" xmlns:cc="http://creativecommons.org/ns#" xmlns:rdf="http://www.w3.org/1999/02/22-rdf-syntax-ns#">
   <cc:Work>
    <dc:type rdf:resource="http://purl.org/dc/dcmitype/StillImage"/>
    <dc:date>2026-05-17T11:05:25.712961</dc:date>
    <dc:format>image/svg+xml</dc:format>
    <dc:creator>
     <cc:Agent>
      <dc:title>Matplotlib v3.10.9, https://matplotlib.org/</dc:title>
     </cc:Agent>
    </dc:creator>
   </cc:Work>
  </rdf:RDF>
 </metadata>
 <defs>
  <style type="text/css">*{stroke-linejoin: round; stroke-linecap: butt}</style>
 </defs>
 <g id="figure_1">
  <g id="patch_1">
   <path d="M 0 361.2192 
L 432.266667 361.2192 
L 432.266667 0 
L 0 0 
z
" style="fill: #ffffff"/>
  </g>
  <g id="axes_1">
   <g id="patch_2">
    <path d="M 48.992 188.208 
L 383.274667 188.208 
Q 401.754667 188.208 401.754667 169.728 
L 401.754667 65.418667 
Q 401.754667 46.938667 383.274667 46.938667 
L 48.992 46.938667 
Q 30.512 46.938667 30.512 65.418667 
L 30.512 169.728 
Q 30.512 188.208 48.992 188.208 
z
" clip-path="url(#p0683e15012)" style="fill: #fdf6e7; stroke: #444444; stroke-width: 1.4; stroke-linejoin: miter"/>
   </g>
   <g id="patch_3">
    <path d="M 37.904 305.248 
L 394.362667 305.248 
Q 401.754667 305.248 401.754667 297.856 
L 401.754667 206.277333 
Q 401.754667 198.885333 394.362667 198.885333 
L 37.904 198.885333 
Q 30.512 198.885333 30.512 206.277333 
L 30.512 297.856 
Q 30.512 305.248 37.904 305.248 
z
" clip-path="url(#p0683e15012)" style="fill: #eef4fb; stroke: #a9c2da; stroke-width: 0.6; stroke-linejoin: miter"/>
   </g>
   <g id="line2d_1">
    <path d="M 31.333333 188.208 
L 400.933333 188.208 
" clip-path="url(#p0683e15012)" style="fill: none; stroke: #444444; stroke-width: 1.6; stroke-linecap: square"/>
   </g>
   <g id="text_1">
    <text style="font-weight: 700; font-size: 10px; font-family: 'Liberation Sans', 'Arial', 'DejaVu Sans', sans-serif; text-anchor: middle" x="216.133333" y="23.652604" transform="rotate(-0 216.133333 23.652604)">Acinetobacter baumannii cell — schematic</text>
   </g>
   <g id="text_2">
    <text style="font-style: italic; font-size: 9px; font-family: 'Liberation Sans', 'Arial', 'DejaVu Sans', sans-serif; text-anchor: middle; fill: #444444" x="216.133333" y="35.71401" transform="rotate(-0 216.133333 35.71401)">AbaI / AbaR / AbaM quorum-sensing circuit</text>
   </g>
   <g id="patch_4">
    <path d="M 39.546667 189.645333 
C 39.927852 189.645333 40.293476 189.493887 40.563015 189.224348 
C 40.832553 188.954809 40.984 188.589185 40.984 188.208 
C 40.984 187.826815 40.832553 187.461191 40.563015 187.191652 
C 40.293476 186.922113 39.927852 186.770667 39.546667 186.770667 
C 39.165481 186.770667 38.799857 186.922113 38.530319 187.191652 
C 38.26078 187.461191 38.109333 187.826815 38.109333 188.208 
C 38.109333 188.589185 38.26078 188.954809 38.530319 189.224348 
C 38.799857 189.493887 39.165481 189.645333 39.546667 189.645333 
z
" clip-path="url(#p0683e15012)" style="fill: #9ec3e3; stroke: #444444; stroke-width: 0.3; stroke-linejoin: miter"/>
   </g>
   <g id="patch_5">
    <path d="M 48.581333 189.645333 
C 48.962519 189.645333 49.328143 189.493887 49.597681 189.224348 
C 49.86722 188.954809 50.018667 188.589185 50.018667 188.208 
C 50.018667 187.826815 49.86722 187.461191 49.597681 187.191652 
C 49.328143 186.922113 48.962519 186.770667 48.581333 186.770667 
C 48.200148 186.770667 47.834524 186.922113 47.564985 187.191652 
C 47.295447 187.461191 47.144 187.826815 47.144 188.208 
C 47.144 188.589185 47.295447 188.954809 47.564985 189.224348 
C 47.834524 189.493887 48.200148 189.645333 48.581333 189.645333 
z
" clip-path="url(#p0683e15012)" style="fill: #9ec3e3; stroke: #444444; stroke-width: 0.3; stroke-linejoin: miter"/>
   </g>
   <g id="patch_6">
    <path d="M 57.616 189.645333 
C 57.997185 189.645333 58.362809 189.493887 58.632348 189.224348 
C 58.901887 188.954809 59.053333 188.589185 59.053333 188.208 
C 59.053333 187.826815 58.901887 187.461191 58.632348 187.191652 
C 58.362809 186.922113 57.997185 186.770667 57.616 186.770667 
C 57.234815 186.770667 56.869191 186.922113 56.599652 187.191652 
C 56.330113 187.461191 56.178667 187.826815 56.178667 188.208 
C 56.178667 188.589185 56.330113 188.954809 56.599652 189.224348 
C 56.869191 189.493887 57.234815 189.645333 57.616 189.645333 
z
" clip-path="url(#p0683e15012)" style="fill: #9ec3e3; stroke: #444444; stroke-width: 0.3; stroke-linejoin: miter"/>
   </g>
   <g id="patch_7">
    <path d="M 66.650667 189.645333 
C 67.031852 189.645333 67.397476 189.493887 67.667015 189.224348 
C 67.936553 188.954809 68.088 188.589185 68.088 188.208 
C 68.088 187.826815 67.936553 187.461191 67.667015 187.191652 
C 67.397476 186.922113 67.031852 186.770667 66.650667 186.770667 
C 66.269481 186.770667 65.903857 186.922113 65.634319 187.191652 
C 65.36478 187.461191 65.213333 187.826815 65.213333 188.208 
C 65.213333 188.589185 65.36478 188.954809 65.634319 189.224348 
C 65.903857 189.493887 66.269481 189.645333 66.650667 189.645333 
z
" clip-path="url(#p0683e15012)" style="fill: #9ec3e3; stroke: #444444; stroke-width: 0.3; stroke-linejoin: miter"/>
   </g>
   <g id="patch_8">
    <path d="M 75.685333 189.645333 
C 76.066519 189.645333 76.432143 189.493887 76.701681 189.224348 
C 76.97122 188.954809 77.122667 188.589185 77.122667 188.208 
C 77.122667 187.826815 76.97122 187.461191 76.701681 187.191652 
C 76.432143 186.922113 76.066519 186.770667 75.685333 186.770667 
C 75.304148 186.770667 74.938524 186.922113 74.668985 187.191652 
C 74.399447 187.461191 74.248 187.826815 74.248 188.208 
C 74.248 188.589185 74.399447 188.954809 74.668985 189.224348 
C 74.938524 189.493887 75.304148 189.645333 75.685333 189.645333 
z
" clip-path="url(#p0683e15012)" style="fill: #9ec3e3; stroke: #444444; stroke-width: 0.3; stroke-linejoin: miter"/>
   </g>
   <g id="patch_9">
    <path d="M 84.72 189.645333 
C 85.101185 189.645333 85.466809 189.493887 85.736348 189.224348 
C 86.005887 188.954809 86.157333 188.589185 86.157333 188.208 
C 86.157333 187.826815 86.005887 187.461191 85.736348 187.191652 
C 85.466809 186.922113 85.101185 186.770667 84.72 186.770667 
C 84.338815 186.770667 83.973191 186.922113 83.703652 187.191652 
C 83.434113 187.461191 83.282667 187.826815 83.282667 188.208 
C 83.282667 188.589185 83.434113 188.954809 83.703652 189.224348 
C 83.973191 189.493887 84.338815 189.645333 84.72 189.645333 
z
" clip-path="url(#p0683e15012)" style="fill: #9ec3e3; stroke: #444444; stroke-width: 0.3; stroke-linejoin: miter"/>
   </g>
   <g id="patch_10">
    <path d="M 93.754667 189.645333 
C 94.135852 189.645333 94.501476 189.493887 94.771015 189.224348 
C 95.040553 188.954809 95.192 188.589185 95.192 188.208 
C 95.192 187.826815 95.040553 187.461191 94.771015 187.191652 
C 94.501476 186.922113 94.135852 186.770667 93.754667 186.770667 
C 93.373481 186.770667 93.007857 186.922113 92.738319 187.191652 
C 92.46878 187.461191 92.317333 187.826815 92.317333 188.208 
C 92.317333 188.589185 92.46878 188.954809 92.738319 189.224348 
C 93.007857 189.493887 93.373481 189.645333 93.754667 189.645333 
z
" clip-path="url(#p0683e15012)" style="fill: #9ec3e3; stroke: #444444; stroke-width: 0.3; stroke-linejoin: miter"/>
   </g>
   <g id="patch_11">
    <path d="M 102.789333 189.645333 
C 103.170519 189.645333 103.536143 189.493887 103.805681 189.224348 
C 104.07522 188.954809 104.226667 188.589185 104.226667 188.208 
C 104.226667 187.826815 104.07522 187.461191 103.805681 187.191652 
C 103.536143 186.922113 103.170519 186.770667 102.789333 186.770667 
C 102.408148 186.770667 102.042524 186.922113 101.772985 187.191652 
C 101.503447 187.461191 101.352 187.826815 101.352 188.208 
C 101.352 188.589185 101.503447 188.954809 101.772985 189.224348 
C 102.042524 189.493887 102.408148 189.645333 102.789333 189.645333 
z
" clip-path="url(#p0683e15012)" style="fill: #9ec3e3; stroke: #444444; stroke-width: 0.3; stroke-linejoin: miter"/>
   </g>
   <g id="patch_12">
    <path d="M 111.824 189.645333 
C 112.205185 189.645333 112.570809 189.493887 112.840348 189.224348 
C 113.109887 188.954809 113.261333 188.589185 113.261333 188.208 
C 113.261333 187.826815 113.109887 187.461191 112.840348 187.191652 
C 112.570809 186.922113 112.205185 186.770667 111.824 186.770667 
C 111.442815 186.770667 111.077191 186.922113 110.807652 187.191652 
C 110.538113 187.461191 110.386667 187.826815 110.386667 188.208 
C 110.386667 188.589185 110.538113 188.954809 110.807652 189.224348 
C 111.077191 189.493887 111.442815 189.645333 111.824 189.645333 
z
" clip-path="url(#p0683e15012)" style="fill: #9ec3e3; stroke: #444444; stroke-width: 0.3; stroke-linejoin: miter"/>
   </g>
   <g id="patch_13">
    <path d="M 120.858667 189.645333 
C 121.239852 189.645333 121.605476 189.493887 121.875015 189.224348 
C 122.144553 188.954809 122.296 188.589185 122.296 188.208 
C 122.296 187.826815 122.144553 187.461191 121.875015 187.191652 
C 121.605476 186.922113 121.239852 186.770667 120.858667 186.770667 
C 120.477481 186.770667 120.111857 186.922113 119.842319 187.191652 
C 119.57278 187.461191 119.421333 187.826815 119.421333 188.208 
C 119.421333 188.589185 119.57278 188.954809 119.842319 189.224348 
C 120.111857 189.493887 120.477481 189.645333 120.858667 189.645333 
z
" clip-path="url(#p0683e15012)" style="fill: #9ec3e3; stroke: #444444; stroke-width: 0.3; stroke-linejoin: miter"/>
   </g>
   <g id="patch_14">
    <path d="M 129.893333 189.645333 
C 130.274519 189.645333 130.640143 189.493887 130.909681 189.224348 
C 131.17922 188.954809 131.330667 188.589185 131.330667 188.208 
C 131.330667 187.826815 131.17922 187.461191 130.909681 187.191652 
C 130.640143 186.922113 130.274519 186.770667 129.893333 186.770667 
C 129.512148 186.770667 129.146524 186.922113 128.876985 187.191652 
C 128.607447 187.461191 128.456 187.826815 128.456 188.208 
C 128.456 188.589185 128.607447 188.954809 128.876985 189.224348 
C 129.146524 189.493887 129.512148 189.645333 129.893333 189.645333 
z
" clip-path="url(#p0683e15012)" style="fill: #9ec3e3; stroke: #444444; stroke-width: 0.3; stroke-linejoin: miter"/>
   </g>
   <g id="patch_15">
    <path d="M 138.928 189.645333 
C 139.309185 189.645333 139.674809 189.493887 139.944348 189.224348 
C 140.213887 188.954809 140.365333 188.589185 140.365333 188.208 
C 140.365333 187.826815 140.213887 187.461191 139.944348 187.191652 
C 139.674809 186.922113 139.309185 186.770667 138.928 186.770667 
C 138.546815 186.770667 138.181191 186.922113 137.911652 187.191652 
C 137.642113 187.461191 137.490667 187.826815 137.490667 188.208 
C 137.490667 188.589185 137.642113 188.954809 137.911652 189.224348 
C 138.181191 189.493887 138.546815 189.645333 138.928 189.645333 
z
" clip-path="url(#p0683e15012)" style="fill: #9ec3e3; stroke: #444444; stroke-width: 0.3; stroke-linejoin: miter"/>
   </g>
   <g id="patch_16">
    <path d="M 147.962667 189.645333 
C 148.343852 189.645333 148.709476 189.493887 148.979015 189.224348 
C 149.248553 188.954809 149.4 188.589185 149.4 188.208 
C 149.4 187.826815 149.248553 187.461191 148.979015 187.191652 
C 148.709476 186.922113 148.343852 186.770667 147.962667 186.770667 
C 147.581481 186.770667 147.215857 186.922113 146.946319 187.191652 
C 146.67678 187.461191 146.525333 187.826815 146.525333 188.208 
C 146.525333 188.589185 146.67678 188.954809 146.946319 189.224348 
C 147.215857 189.493887 147.581481 189.645333 147.962667 189.645333 
z
" clip-path="url(#p0683e15012)" style="fill: #9ec3e3; stroke: #444444; stroke-width: 0.3; stroke-linejoin: miter"/>
   </g>
   <g id="patch_17">
    <path d="M 156.997333 189.645333 
C 157.378519 189.645333 157.744143 189.493887 158.013681 189.224348 
C 158.28322 188.954809 158.434667 188.589185 158.434667 188.208 
C 158.434667 187.826815 158.28322 187.461191 158.013681 187.191652 
C 157.744143 186.922113 157.378519 186.770667 156.997333 186.770667 
C 156.616148 186.770667 156.250524 186.922113 155.980985 187.191652 
C 155.711447 187.461191 155.56 187.826815 155.56 188.208 
C 155.56 188.589185 155.711447 188.954809 155.980985 189.224348 
C 156.250524 189.493887 156.616148 189.645333 156.997333 189.645333 
z
" clip-path="url(#p0683e15012)" style="fill: #9ec3e3; stroke: #444444; stroke-width: 0.3; stroke-linejoin: miter"/>
   </g>
   <g id="patch_18">
    <path d="M 166.032 189.645333 
C 166.413185 189.645333 166.778809 189.493887 167.048348 189.224348 
C 167.317887 188.954809 167.469333 188.589185 167.469333 188.208 
C 167.469333 187.826815 167.317887 187.461191 167.048348 187.191652 
C 166.778809 186.922113 166.413185 186.770667 166.032 186.770667 
C 165.650815 186.770667 165.285191 186.922113 165.015652 187.191652 
C 164.746113 187.461191 164.594667 187.826815 164.594667 188.208 
C 164.594667 188.589185 164.746113 188.954809 165.015652 189.224348 
C 165.285191 189.493887 165.650815 189.645333 166.032 189.645333 
z
" clip-path="url(#p0683e15012)" style="fill: #9ec3e3; stroke: #444444; stroke-width: 0.3; stroke-linejoin: miter"/>
   </g>
   <g id="patch_19">
    <path d="M 175.066667 189.645333 
C 175.447852 189.645333 175.813476 189.493887 176.083015 189.224348 
C 176.352553 188.954809 176.504 188.589185 176.504 188.208 
C 176.504 187.826815 176.352553 187.461191 176.083015 187.191652 
C 175.813476 186.922113 175.447852 186.770667 175.066667 186.770667 
C 174.685481 186.770667 174.319857 186.922113 174.050319 187.191652 
C 173.78078 187.461191 173.629333 187.826815 173.629333 188.208 
C 173.629333 188.589185 173.78078 188.954809 174.050319 189.224348 
C 174.319857 189.493887 174.685481 189.645333 175.066667 189.645333 
z
" clip-path="url(#p0683e15012)" style="fill: #9ec3e3; stroke: #444444; stroke-width: 0.3; stroke-linejoin: miter"/>
   </g>
   <g id="patch_20">
    <path d="M 184.101333 189.645333 
C 184.482519 189.645333 184.848143 189.493887 185.117681 189.224348 
C 185.38722 188.954809 185.538667 188.589185 185.538667 188.208 
C 185.538667 187.826815 185.38722 187.461191 185.117681 187.191652 
C 184.848143 186.922113 184.482519 186.770667 184.101333 186.770667 
C 183.720148 186.770667 183.354524 186.922113 183.084985 187.191652 
C 182.815447 187.461191 182.664 187.826815 182.664 188.208 
C 182.664 188.589185 182.815447 188.954809 183.084985 189.224348 
C 183.354524 189.493887 183.720148 189.645333 184.101333 189.645333 
z
" clip-path="url(#p0683e15012)" style="fill: #9ec3e3; stroke: #444444; stroke-width: 0.3; stroke-linejoin: miter"/>
   </g>
   <g id="patch_21">
    <path d="M 193.136 189.645333 
C 193.517185 189.645333 193.882809 189.493887 194.152348 189.224348 
C 194.421887 188.954809 194.573333 188.589185 194.573333 188.208 
C 194.573333 187.826815 194.421887 187.461191 194.152348 187.191652 
C 193.882809 186.922113 193.517185 186.770667 193.136 186.770667 
C 192.754815 186.770667 192.389191 186.922113 192.119652 187.191652 
C 191.850113 187.461191 191.698667 187.826815 191.698667 188.208 
C 191.698667 188.589185 191.850113 188.954809 192.119652 189.224348 
C 192.389191 189.493887 192.754815 189.645333 193.136 189.645333 
z
" clip-path="url(#p0683e15012)" style="fill: #9ec3e3; stroke: #444444; stroke-width: 0.3; stroke-linejoin: miter"/>
   </g>
   <g id="patch_22">
    <path d="M 202.170667 189.645333 
C 202.551852 189.645333 202.917476 189.493887 203.187015 189.224348 
C 203.456553 188.954809 203.608 188.589185 203.608 188.208 
C 203.608 187.826815 203.456553 187.461191 203.187015 187.191652 
C 202.917476 186.922113 202.551852 186.770667 202.170667 186.770667 
C 201.789481 186.770667 201.423857 186.922113 201.154319 187.191652 
C 200.88478 187.461191 200.733333 187.826815 200.733333 188.208 
C 200.733333 188.589185 200.88478 188.954809 201.154319 189.224348 
C 201.423857 189.493887 201.789481 189.645333 202.170667 189.645333 
z
" clip-path="url(#p0683e15012)" style="fill: #9ec3e3; stroke: #444444; stroke-width: 0.3; stroke-linejoin: miter"/>
   </g>
   <g id="patch_23">
    <path d="M 211.205333 189.645333 
C 211.586519 189.645333 211.952143 189.493887 212.221681 189.224348 
C 212.49122 188.954809 212.642667 188.589185 212.642667 188.208 
C 212.642667 187.826815 212.49122 187.461191 212.221681 187.191652 
C 211.952143 186.922113 211.586519 186.770667 211.205333 186.770667 
C 210.824148 186.770667 210.458524 186.922113 210.188985 187.191652 
C 209.919447 187.461191 209.768 187.826815 209.768 188.208 
C 209.768 188.589185 209.919447 188.954809 210.188985 189.224348 
C 210.458524 189.493887 210.824148 189.645333 211.205333 189.645333 
z
" clip-path="url(#p0683e15012)" style="fill: #9ec3e3; stroke: #444444; stroke-width: 0.3; stroke-linejoin: miter"/>
   </g>
   <g id="patch_24">
    <path d="M 220.24 189.645333 
C 220.621185 189.645333 220.986809 189.493887 221.256348 189.224348 
C 221.525887 188.954809 221.677333 188.589185 221.677333 188.208 
C 221.677333 187.826815 221.525887 187.461191 221.256348 187.191652 
C 220.986809 186.922113 220.621185 186.770667 220.24 186.770667 
C 219.858815 186.770667 219.493191 186.922113 219.223652 187.191652 
C 218.954113 187.461191 218.802667 187.826815 218.802667 188.208 
C 218.802667 188.589185 218.954113 188.954809 219.223652 189.224348 
C 219.493191 189.493887 219.858815 189.645333 220.24 189.645333 
z
" clip-path="url(#p0683e15012)" style="fill: #9ec3e3; stroke: #444444; stroke-width: 0.3; stroke-linejoin: miter"/>
   </g>
   <g id="patch_25">
    <path d="M 229.274667 189.645333 
C 229.655852 189.645333 230.021476 189.493887 230.291015 189.224348 
C 230.560553 188.954809 230.712 188.589185 230.712 188.208 
C 230.712 187.826815 230.560553 187.461191 230.291015 187.191652 
C 230.021476 186.922113 229.655852 186.770667 229.274667 186.770667 
C 228.893481 186.770667 228.527857 186.922113 228.258319 187.191652 
C 227.98878 187.461191 227.837333 187.826815 227.837333 188.208 
C 227.837333 188.589185 227.98878 188.954809 228.258319 189.224348 
C 228.527857 189.493887 228.893481 189.645333 229.274667 189.645333 
z
" clip-path="url(#p0683e15012)" style="fill: #9ec3e3; stroke: #444444; stroke-width: 0.3; stroke-linejoin: miter"/>
   </g>
   <g id="patch_26">
    <path d="M 238.309333 189.645333 
C 238.690519 189.645333 239.056143 189.493887 239.325681 189.224348 
C 239.59522 188.954809 239.746667 188.589185 239.746667 188.208 
C 239.746667 187.826815 239.59522 187.461191 239.325681 187.191652 
C 239.056143 186.922113 238.690519 186.770667 238.309333 186.770667 
C 237.928148 186.770667 237.562524 186.922113 237.292985 187.191652 
C 237.023447 187.461191 236.872 187.826815 236.872 188.208 
C 236.872 188.589185 237.023447 188.954809 237.292985 189.224348 
C 237.562524 189.493887 237.928148 189.645333 238.309333 189.645333 
z
" clip-path="url(#p0683e15012)" style="fill: #9ec3e3; stroke: #444444; stroke-width: 0.3; stroke-linejoin: miter"/>
   </g>
   <g id="patch_27">
    <path d="M 247.344 189.645333 
C 247.725185 189.645333 248.090809 189.493887 248.360348 189.224348 
C 248.629887 188.954809 248.781333 188.589185 248.781333 188.208 
C 248.781333 187.826815 248.629887 187.461191 248.360348 187.191652 
C 248.090809 186.922113 247.725185 186.770667 247.344 186.770667 
C 246.962815 186.770667 246.597191 186.922113 246.327652 187.191652 
C 246.058113 187.461191 245.906667 187.826815 245.906667 188.208 
C 245.906667 188.589185 246.058113 188.954809 246.327652 189.224348 
C 246.597191 189.493887 246.962815 189.645333 247.344 189.645333 
z
" clip-path="url(#p0683e15012)" style="fill: #9ec3e3; stroke: #444444; stroke-width: 0.3; stroke-linejoin: miter"/>
   </g>
   <g id="patch_28">
    <path d="M 256.378667 189.645333 
C 256.759852 189.645333 257.125476 189.493887 257.395015 189.224348 
C 257.664553 188.954809 257.816 188.589185 257.816 188.208 
C 257.816 187.826815 257.664553 187.461191 257.395015 187.191652 
C 257.125476 186.922113 256.759852 186.770667 256.378667 186.770667 
C 255.997481 186.770667 255.631857 186.922113 255.362319 187.191652 
C 255.09278 187.461191 254.941333 187.826815 254.941333 188.208 
C 254.941333 188.589185 255.09278 188.954809 255.362319 189.224348 
C 255.631857 189.493887 255.997481 189.645333 256.378667 189.645333 
z
" clip-path="url(#p0683e15012)" style="fill: #9ec3e3; stroke: #444444; stroke-width: 0.3; stroke-linejoin: miter"/>
   </g>
   <g id="patch_29">
    <path d="M 265.413333 189.645333 
C 265.794519 189.645333 266.160143 189.493887 266.429681 189.224348 
C 266.69922 188.954809 266.850667 188.589185 266.850667 188.208 
C 266.850667 187.826815 266.69922 187.461191 266.429681 187.191652 
C 266.160143 186.922113 265.794519 186.770667 265.413333 186.770667 
C 265.032148 186.770667 264.666524 186.922113 264.396985 187.191652 
C 264.127447 187.461191 263.976 187.826815 263.976 188.208 
C 263.976 188.589185 264.127447 188.954809 264.396985 189.224348 
C 264.666524 189.493887 265.032148 189.645333 265.413333 189.645333 
z
" clip-path="url(#p0683e15012)" style="fill: #9ec3e3; stroke: #444444; stroke-width: 0.3; stroke-linejoin: miter"/>
   </g>
   <g id="patch_30">
    <path d="M 274.448 189.645333 
C 274.829185 189.645333 275.194809 189.493887 275.464348 189.224348 
C 275.733887 188.954809 275.885333 188.589185 275.885333 188.208 
C 275.885333 187.826815 275.733887 187.461191 275.464348 187.191652 
C 275.194809 186.922113 274.829185 186.770667 274.448 186.770667 
C 274.066815 186.770667 273.701191 186.922113 273.431652 187.191652 
C 273.162113 187.461191 273.010667 187.826815 273.010667 188.208 
C 273.010667 188.589185 273.162113 188.954809 273.431652 189.224348 
C 273.701191 189.493887 274.066815 189.645333 274.448 189.645333 
z
" clip-path="url(#p0683e15012)" style="fill: #9ec3e3; stroke: #444444; stroke-width: 0.3; stroke-linejoin: miter"/>
   </g>
   <g id="patch_31">
    <path d="M 283.482667 189.645333 
C 283.863852 189.645333 284.229476 189.493887 284.499015 189.224348 
C 284.768553 188.954809 284.92 188.589185 284.92 188.208 
C 284.92 187.826815 284.768553 187.461191 284.499015 187.191652 
C 284.229476 186.922113 283.863852 186.770667 283.482667 186.770667 
C 283.101481 186.770667 282.735857 186.922113 282.466319 187.191652 
C 282.19678 187.461191 282.045333 187.826815 282.045333 188.208 
C 282.045333 188.589185 282.19678 188.954809 282.466319 189.224348 
C 282.735857 189.493887 283.101481 189.645333 283.482667 189.645333 
z
" clip-path="url(#p0683e15012)" style="fill: #9ec3e3; stroke: #444444; stroke-width: 0.3; stroke-linejoin: miter"/>
   </g>
   <g id="patch_32">
    <path d="M 292.517333 189.645333 
C 292.898519 189.645333 293.264143 189.493887 293.533681 189.224348 
C 293.80322 188.954809 293.954667 188.589185 293.954667 188.208 
C 293.954667 187.826815 293.80322 187.461191 293.533681 187.191652 
C 293.264143 186.922113 292.898519 186.770667 292.517333 186.770667 
C 292.136148 186.770667 291.770524 186.922113 291.500985 187.191652 
C 291.231447 187.461191 291.08 187.826815 291.08 188.208 
C 291.08 188.589185 291.231447 188.954809 291.500985 189.224348 
C 291.770524 189.493887 292.136148 189.645333 292.517333 189.645333 
z
" clip-path="url(#p0683e15012)" style="fill: #9ec3e3; stroke: #444444; stroke-width: 0.3; stroke-linejoin: miter"/>
   </g>
   <g id="patch_33">
    <path d="M 301.552 189.645333 
C 301.933185 189.645333 302.298809 189.493887 302.568348 189.224348 
C 302.837887 188.954809 302.989333 188.589185 302.989333 188.208 
C 302.989333 187.826815 302.837887 187.461191 302.568348 187.191652 
C 302.298809 186.922113 301.933185 186.770667 301.552 186.770667 
C 301.170815 186.770667 300.805191 186.922113 300.535652 187.191652 
C 300.266113 187.461191 300.114667 187.826815 300.114667 188.208 
C 300.114667 188.589185 300.266113 188.954809 300.535652 189.224348 
C 300.805191 189.493887 301.170815 189.645333 301.552 189.645333 
z
" clip-path="url(#p0683e15012)" style="fill: #9ec3e3; stroke: #444444; stroke-width: 0.3; stroke-linejoin: miter"/>
   </g>
   <g id="patch_34">
    <path d="M 310.586667 189.645333 
C 310.967852 189.645333 311.333476 189.493887 311.603015 189.224348 
C 311.872553 188.954809 312.024 188.589185 312.024 188.208 
C 312.024 187.826815 311.872553 187.461191 311.603015 187.191652 
C 311.333476 186.922113 310.967852 186.770667 310.586667 186.770667 
C 310.205481 186.770667 309.839857 186.922113 309.570319 187.191652 
C 309.30078 187.461191 309.149333 187.826815 309.149333 188.208 
C 309.149333 188.589185 309.30078 188.954809 309.570319 189.224348 
C 309.839857 189.493887 310.205481 189.645333 310.586667 189.645333 
z
" clip-path="url(#p0683e15012)" style="fill: #9ec3e3; stroke: #444444; stroke-width: 0.3; stroke-linejoin: miter"/>
   </g>
   <g id="patch_35">
    <path d="M 319.621333 189.645333 
C 320.002519 189.645333 320.368143 189.493887 320.637681 189.224348 
C 320.90722 188.954809 321.058667 188.589185 321.058667 188.208 
C 321.058667 187.826815 320.90722 187.461191 320.637681 187.191652 
C 320.368143 186.922113 320.002519 186.770667 319.621333 186.770667 
C 319.240148 186.770667 318.874524 186.922113 318.604985 187.191652 
C 318.335447 187.461191 318.184 187.826815 318.184 188.208 
C 318.184 188.589185 318.335447 188.954809 318.604985 189.224348 
C 318.874524 189.493887 319.240148 189.645333 319.621333 189.645333 
z
" clip-path="url(#p0683e15012)" style="fill: #9ec3e3; stroke: #444444; stroke-width: 0.3; stroke-linejoin: miter"/>
   </g>
   <g id="patch_36">
    <path d="M 328.656 189.645333 
C 329.037185 189.645333 329.402809 189.493887 329.672348 189.224348 
C 329.941887 188.954809 330.093333 188.589185 330.093333 188.208 
C 330.093333 187.826815 329.941887 187.461191 329.672348 187.191652 
C 329.402809 186.922113 329.037185 186.770667 328.656 186.770667 
C 328.274815 186.770667 327.909191 186.922113 327.639652 187.191652 
C 327.370113 187.461191 327.218667 187.826815 327.218667 188.208 
C 327.218667 188.589185 327.370113 188.954809 327.639652 189.224348 
C 327.909191 189.493887 328.274815 189.645333 328.656 189.645333 
z
" clip-path="url(#p0683e15012)" style="fill: #9ec3e3; stroke: #444444; stroke-width: 0.3; stroke-linejoin: miter"/>
   </g>
   <g id="patch_37">
    <path d="M 337.690667 189.645333 
C 338.071852 189.645333 338.437476 189.493887 338.707015 189.224348 
C 338.976553 188.954809 339.128 188.589185 339.128 188.208 
C 339.128 187.826815 338.976553 187.461191 338.707015 187.191652 
C 338.437476 186.922113 338.071852 186.770667 337.690667 186.770667 
C 337.309481 186.770667 336.943857 186.922113 336.674319 187.191652 
C 336.40478 187.461191 336.253333 187.826815 336.253333 188.208 
C 336.253333 188.589185 336.40478 188.954809 336.674319 189.224348 
C 336.943857 189.493887 337.309481 189.645333 337.690667 189.645333 
z
" clip-path="url(#p0683e15012)" style="fill: #9ec3e3; stroke: #444444; stroke-width: 0.3; stroke-linejoin: miter"/>
   </g>
   <g id="patch_38">
    <path d="M 346.725333 189.645333 
C 347.106519 189.645333 347.472143 189.493887 347.741681 189.224348 
C 348.01122 188.954809 348.162667 188.589185 348.162667 188.208 
C 348.162667 187.826815 348.01122 187.461191 347.741681 187.191652 
C 347.472143 186.922113 347.106519 186.770667 346.725333 186.770667 
C 346.344148 186.770667 345.978524 186.922113 345.708985 187.191652 
C 345.439447 187.461191 345.288 187.826815 345.288 188.208 
C 345.288 188.589185 345.439447 188.954809 345.708985 189.224348 
C 345.978524 189.493887 346.344148 189.645333 346.725333 189.645333 
z
" clip-path="url(#p0683e15012)" style="fill: #9ec3e3; stroke: #444444; stroke-width: 0.3; stroke-linejoin: miter"/>
   </g>
   <g id="patch_39">
    <path d="M 355.76 189.645333 
C 356.141185 189.645333 356.506809 189.493887 356.776348 189.224348 
C 357.045887 188.954809 357.197333 188.589185 357.197333 188.208 
C 357.197333 187.826815 357.045887 187.461191 356.776348 187.191652 
C 356.506809 186.922113 356.141185 186.770667 355.76 186.770667 
C 355.378815 186.770667 355.013191 186.922113 354.743652 187.191652 
C 354.474113 187.461191 354.322667 187.826815 354.322667 188.208 
C 354.322667 188.589185 354.474113 188.954809 354.743652 189.224348 
C 355.013191 189.493887 355.378815 189.645333 355.76 189.645333 
z
" clip-path="url(#p0683e15012)" style="fill: #9ec3e3; stroke: #444444; stroke-width: 0.3; stroke-linejoin: miter"/>
   </g>
   <g id="patch_40">
    <path d="M 364.794667 189.645333 
C 365.175852 189.645333 365.541476 189.493887 365.811015 189.224348 
C 366.080553 188.954809 366.232 188.589185 366.232 188.208 
C 366.232 187.826815 366.080553 187.461191 365.811015 187.191652 
C 365.541476 186.922113 365.175852 186.770667 364.794667 186.770667 
C 364.413481 186.770667 364.047857 186.922113 363.778319 187.191652 
C 363.50878 187.461191 363.357333 187.826815 363.357333 188.208 
C 363.357333 188.589185 363.50878 188.954809 363.778319 189.224348 
C 364.047857 189.493887 364.413481 189.645333 364.794667 189.645333 
z
" clip-path="url(#p0683e15012)" style="fill: #9ec3e3; stroke: #444444; stroke-width: 0.3; stroke-linejoin: miter"/>
   </g>
   <g id="patch_41">
    <path d="M 373.829333 189.645333 
C 374.210519 189.645333 374.576143 189.493887 374.845681 189.224348 
C 375.11522 188.954809 375.266667 188.589185 375.266667 188.208 
C 375.266667 187.826815 375.11522 187.461191 374.845681 187.191652 
C 374.576143 186.922113 374.210519 186.770667 373.829333 186.770667 
C 373.448148 186.770667 373.082524 186.922113 372.812985 187.191652 
C 372.543447 187.461191 372.392 187.826815 372.392 188.208 
C 372.392 188.589185 372.543447 188.954809 372.812985 189.224348 
C 373.082524 189.493887 373.448148 189.645333 373.829333 189.645333 
z
" clip-path="url(#p0683e15012)" style="fill: #9ec3e3; stroke: #444444; stroke-width: 0.3; stroke-linejoin: miter"/>
   </g>
   <g id="patch_42">
    <path d="M 382.864 189.645333 
C 383.245185 189.645333 383.610809 189.493887 383.880348 189.224348 
C 384.149887 188.954809 384.301333 188.589185 384.301333 188.208 
C 384.301333 187.826815 384.149887 187.461191 383.880348 187.191652 
C 383.610809 186.922113 383.245185 186.770667 382.864 186.770667 
C 382.482815 186.770667 382.117191 186.922113 381.847652 187.191652 
C 381.578113 187.461191 381.426667 187.826815 381.426667 188.208 
C 381.426667 188.589185 381.578113 188.954809 381.847652 189.224348 
C 382.117191 189.493887 382.482815 189.645333 382.864 189.645333 
z
" clip-path="url(#p0683e15012)" style="fill: #9ec3e3; stroke: #444444; stroke-width: 0.3; stroke-linejoin: miter"/>
   </g>
   <g id="patch_43">
    <path d="M 391.898667 189.645333 
C 392.279852 189.645333 392.645476 189.493887 392.915015 189.224348 
C 393.184553 188.954809 393.336 188.589185 393.336 188.208 
C 393.336 187.826815 393.184553 187.461191 392.915015 187.191652 
C 392.645476 186.922113 392.279852 186.770667 391.898667 186.770667 
C 391.517481 186.770667 391.151857 186.922113 390.882319 187.191652 
C 390.61278 187.461191 390.461333 187.826815 390.461333 188.208 
C 390.461333 188.589185 390.61278 188.954809 390.882319 189.224348 
C 391.151857 189.493887 391.517481 189.645333 391.898667 189.645333 
z
" clip-path="url(#p0683e15012)" style="fill: #9ec3e3; stroke: #444444; stroke-width: 0.3; stroke-linejoin: miter"/>
   </g>
   <g id="text_3">
    <text style="font-style: italic; font-size: 6.5px; font-family: 'Liberation Sans', 'Arial', 'DejaVu Sans', sans-serif; text-anchor: middle; fill: #234d2c" x="74.453333" y="120.448" transform="rotate(-0 74.453333 120.448)">synthase</text>
   </g>
   <g id="text_4">
    <text style="font-weight: 700; font-size: 7.5px; font-family: 'Liberation Sans', 'Arial', 'DejaVu Sans', sans-serif; text-anchor: middle; fill: #a35400" x="209.973333" y="133.275156" transform="rotate(-0 209.973333 133.275156)">AbaR (LuxR-type receptor)</text>
   </g>
   <g id="text_5">
    <text style="font-style: italic; font-size: 6.5px; font-family: 'Liberation Sans', 'Arial', 'DejaVu Sans', sans-serif; text-anchor: start; fill: #d62828" x="228.453333" y="77.366193" transform="rotate(-0 228.453333 77.366193)">(brake)</text>
   </g>
   <g id="text_6">
    <text style="font-style: italic; font-size: 6px; font-family: 'Liberation Sans', 'Arial', 'DejaVu Sans', sans-serif; text-anchor: start; fill: #333333" x="86.773333" y="68.293333" transform="rotate(-0 86.773333 68.293333)">activates</text>
   </g>
   <g id="text_7">
    <text style="font-style: italic; font-size: 5.8px; font-family: 'Liberation Sans', 'Arial', 'DejaVu Sans', sans-serif; fill: #555555" transform="translate(337.468708 116.848521)">nutritional /</text>
    <text style="font-style: italic; font-size: 5.8px; font-family: 'Liberation Sans', 'Arial', 'DejaVu Sans', sans-serif; fill: #555555" transform="translate(329.730693 123.095846)">stringent sensing</text>
   </g>
   <g id="line2d_2">
    <path d="M 39.546667 173.013333 
L 392.72 173.013333 
" clip-path="url(#p0683e15012)" style="fill: none; stroke-dasharray: 4.2,2.1; stroke-dashoffset: 0; stroke: #222222; stroke-width: 1.4"/>
   </g>
   <g id="text_8">
    <text style="font-style: italic; font-size: 6px; font-family: 'Liberation Sans', 'Arial', 'DejaVu Sans', sans-serif; text-anchor: start; fill: #333333" x="115.52" y="150.426667" transform="rotate(-0 115.52 150.426667)">binds lux-box</text>
   </g>
   <g id="text_9">
    <text style="font-weight: 700; font-size: 7.5px; font-family: 'Liberation Sans', 'Arial', 'DejaVu Sans', sans-serif; text-anchor: middle; fill: #2e5c8a" x="203.813333" y="249.808" transform="rotate(-0 203.813333 249.808)">3-OH-C12-HSL (AHL)</text>
   </g>
   <g id="text_10">
    <text style="font-style: italic; font-size: 6.8px; font-family: 'Liberation Sans', 'Arial', 'DejaVu Sans', sans-serif; text-anchor: middle; fill: #4a235a" x="156.586667" y="259.253333" transform="rotate(-0 156.586667 259.253333)">Lactonases (MomL, AaL, AidA) + acylase (PvdQ) — cleave AHL</text>
   </g>
   <g id="text_11">
    <text style="font-style: italic; font-size: 8px; font-family: 'Liberation Sans', 'Arial', 'DejaVu Sans', sans-serif; text-anchor: start; fill: #555555" x="37.493333" y="55.973333" transform="rotate(-0 37.493333 55.973333)">Cytoplasm</text>
   </g>
   <g id="text_12">
    <text style="font-style: italic; font-size: 8px; font-family: 'Liberation Sans', 'Arial', 'DejaVu Sans', sans-serif; text-anchor: start; fill: #3a6a91" x="37.493333" y="205.866667" transform="rotate(-0 37.493333 205.866667)">Extracellular space</text>
   </g>
   <g id="text_13">
    <text style="font-size: 6.5px; font-family: 'Liberation Sans', 'Arial', 'DejaVu Sans', sans-serif; text-anchor: start; fill: #444444" x="37.493333" y="70.950469" transform="rotate(-0 37.493333 70.950469)">SAM + 3-OH-C12-ACP</text>
   </g>
   <g id="patch_44">
    <path d="M 53.386113 75.755716 
Q 59.055192 80.614926 64.130058 84.964812 
" clip-path="url(#p0683e15012)" style="fill: none; stroke: #000000; stroke-width: 0.7; stroke-linecap: round"/>
    <path d="M 62.915248 82.079637 
L 64.130058 84.964812 
L 61.093032 84.205555 
z
" clip-path="url(#p0683e15012)" style="stroke: #000000; stroke-width: 0.7; stroke-linecap: round"/>
   </g>
   <g id="patch_45">
    <path d="M 108.279657 65.051503 
Q 97.518333 81.032177 79.472508 78.243276 
" clip-path="url(#p0683e15012)" style="fill: none; stroke: #000000; stroke-width: 0.9; stroke-linecap: round"/>
    <path d="M 82.390593 80.313247 
L 79.472508 78.243276 
L 82.879336 77.150791 
z
" clip-path="url(#p0683e15012)" style="stroke: #000000; stroke-width: 0.9; stroke-linecap: round"/>
   </g>
   <g id="patch_46">
    <path d="M 351.653333 79.329699 
Q 351.653333 84.105196 351.653333 87.874462 
" clip-path="url(#p0683e15012)" style="fill: none; stroke: #000000; stroke-width: 0.9; stroke-linecap: round"/>
    <path d="M 353.253333 84.674462 
L 351.653333 87.874462 
L 350.053333 84.674462 
z
" clip-path="url(#p0683e15012)" style="stroke: #000000; stroke-width: 0.9; stroke-linecap: round"/>
   </g>
   <g id="patch_47">
    <path d="M 53.92 178.352 
L 76.506667 178.352 
L 76.506667 167.674667 
L 53.92 167.674667 
z
" clip-path="url(#p0683e15012)" style="fill: #ffe599; stroke: #000000; stroke-width: 0.7; stroke-linejoin: miter"/>
   </g>
   <g id="patch_48">
    <path d="M 78.56 178.352 
L 99.093333 178.352 
L 99.093333 167.674667 
L 78.56 167.674667 
z
" clip-path="url(#p0683e15012)" style="fill: #3a8a4d; stroke: #000000; stroke-width: 0.7; stroke-linejoin: miter"/>
   </g>
   <g id="patch_49">
    <path d="M 148.373333 179.173333 
L 183.28 179.173333 
L 183.28 166.853333 
L 148.373333 166.853333 
z
" clip-path="url(#p0683e15012)" style="fill: #e6e6e6; stroke: #000000; stroke-width: 0.6; stroke-linejoin: miter"/>
   </g>
   <g id="patch_50">
    <path d="M 195.6 179.173333 
L 230.506667 179.173333 
L 230.506667 166.853333 
L 195.6 166.853333 
z
" clip-path="url(#p0683e15012)" style="fill: #e6e6e6; stroke: #000000; stroke-width: 0.6; stroke-linejoin: miter"/>
   </g>
   <g id="patch_51">
    <path d="M 242.826667 179.173333 
L 277.733333 179.173333 
L 277.733333 166.853333 
L 242.826667 166.853333 
z
" clip-path="url(#p0683e15012)" style="fill: #e6e6e6; stroke: #000000; stroke-width: 0.6; stroke-linejoin: miter"/>
   </g>
   <g id="patch_52">
    <path d="M 290.053333 179.173333 
L 324.96 179.173333 
L 324.96 166.853333 
L 290.053333 166.853333 
z
" clip-path="url(#p0683e15012)" style="fill: #e6e6e6; stroke: #000000; stroke-width: 0.6; stroke-linejoin: miter"/>
   </g>
   <g id="patch_53">
    <path d="M 337.28 179.173333 
L 372.186667 179.173333 
L 372.186667 166.853333 
L 337.28 166.853333 
z
" clip-path="url(#p0683e15012)" style="fill: #e6e6e6; stroke: #000000; stroke-width: 0.6; stroke-linejoin: miter"/>
   </g>
   <g id="text_14">
    <text style="font-style: italic; font-size: 6.5px; font-family: 'Liberation Sans', 'Arial', 'DejaVu Sans', sans-serif; text-anchor: middle; fill: #444444" x="318.8" y="189.44" transform="rotate(-0 318.8 189.44)">target regulons (biofilm, motility, virulence, efflux)</text>
   </g>
   <g id="patch_54">
    <path d="M 192.166314 121.077177 
Q 142.113303 173.105857 71.285405 165.935174 
" clip-path="url(#p0683e15012)" style="fill: none; stroke: #000000; stroke-width: 0.9; stroke-linecap: round"/>
    <path d="M 74.307968 167.84936 
L 71.285405 165.935174 
L 74.630292 164.665635 
z
" clip-path="url(#p0683e15012)" style="stroke: #000000; stroke-width: 0.9; stroke-linecap: round"/>
   </g>
   <g id="patch_55">
    <path d="M 245.126334 121.608281 
Q 248.634442 147.212101 267.251675 163.651651 
" clip-path="url(#p0683e15012)" style="fill: none; stroke: #000000; stroke-width: 0.9; stroke-linecap: round"/>
    <path d="M 265.912048 160.334212 
L 267.251675 163.651651 
L 263.793948 162.732889 
z
" clip-path="url(#p0683e15012)" style="stroke: #000000; stroke-width: 0.9; stroke-linecap: round"/>
   </g>
   <g id="patch_56">
    <path d="M 74.609489 115.457651 
Q 78.560009 165.826783 82.423109 215.081305 
" clip-path="url(#p0683e15012)" style="fill: none; stroke: #2e5c8a; stroke-linecap: round"/>
    <path d="M 83.767998 211.765996 
L 82.423109 215.081305 
L 80.577795 212.016208 
z
" clip-path="url(#p0683e15012)" style="fill: #2e5c8a; stroke: #2e5c8a; stroke-linecap: round"/>
   </g>
   <g id="patch_57">
    <path d="M 107.306667 207.972135 
Q 107.306667 193.545975 107.306667 179.119815 
" clip-path="url(#p0683e15012)" style="fill: none; stroke-dasharray: 1.6,1.2; stroke-dashoffset: 0; stroke: #2e5c8a; stroke-width: 0.8; stroke-linecap: round"/>
   </g>
   <g id="patch_58">
    <path d="M 189.44 207.972135 
Q 189.44 193.545975 189.44 179.119815 
" clip-path="url(#p0683e15012)" style="fill: none; stroke-dasharray: 1.6,1.2; stroke-dashoffset: 0; stroke: #2e5c8a; stroke-width: 0.8; stroke-linecap: round"/>
   </g>
   <g id="patch_59">
    <path d="M 288 207.972135 
Q 288 193.545975 288 179.119815 
" clip-path="url(#p0683e15012)" style="fill: none; stroke-dasharray: 1.6,1.2; stroke-dashoffset: 0; stroke: #2e5c8a; stroke-width: 0.8; stroke-linecap: round"/>
   </g>
   <g id="patch_60">
    <path d="M 189.959663 169.02669 
Q 197.139954 141.058939 184.649022 116.146638 
" clip-path="url(#p0683e15012)" style="fill: none; stroke-dasharray: 1.8,1.35; stroke-dashoffset: 0; stroke: #2e5c8a; stroke-width: 0.9; stroke-linecap: round"/>
    <path d="M 184.653016 119.724345 
L 184.649022 116.146638 
L 187.513584 118.290067 
z
" clip-path="url(#p0683e15012)" style="fill: #2e5c8a; stroke-dasharray: 1.8,1.35; stroke-dashoffset: 0; stroke: #2e5c8a; stroke-width: 0.9; stroke-linecap: round"/>
   </g>
   <g id="patch_61">
    <path d="M 77.031781 267.587581 
Q 81.640348 250.628051 86.014371 234.531649 
" clip-path="url(#p0683e15012)" style="fill: none; stroke: #7b2cbf; stroke-width: 0.8; stroke-linecap: round"/>
    <path d="M 83.92912 236.866542 
L 86.014371 234.531649 
L 86.631135 237.600786 
z
" clip-path="url(#p0683e15012)" style="fill: #7b2cbf; stroke: #7b2cbf; stroke-width: 0.8; stroke-linecap: round"/>
   </g>
   <g id="patch_62">
    <path d="M 136.708786 267.632297 
Q 141.186471 254.736563 145.370774 242.685771 
" clip-path="url(#p0683e15012)" style="fill: none; stroke: #7b2cbf; stroke-width: 0.8; stroke-linecap: round"/>
    <path d="M 143.129798 244.871641 
L 145.370774 242.685771 
L 145.774884 245.790073 
z
" clip-path="url(#p0683e15012)" style="fill: #7b2cbf; stroke: #7b2cbf; stroke-width: 0.8; stroke-linecap: round"/>
   </g>
   <g id="patch_63">
    <path d="M 195.967454 267.554119 
Q 199.706746 247.548911 203.2817 228.422904 
" clip-path="url(#p0683e15012)" style="fill: none; stroke: #7b2cbf; stroke-width: 0.8; stroke-linecap: round"/>
    <path d="M 201.391079 230.91801 
L 203.2817 228.422904 
L 204.143412 231.432465 
z
" clip-path="url(#p0683e15012)" style="fill: #7b2cbf; stroke: #7b2cbf; stroke-width: 0.8; stroke-linecap: round"/>
   </g>
   <g id="patch_64">
    <path d="M 316.746667 267.523013 
Q 316.746667 250.628975 316.746667 234.629364 
" clip-path="url(#p0683e15012)" style="fill: none; stroke: #7b2cbf; stroke-width: 0.8; stroke-linecap: round"/>
    <path d="M 315.346667 237.429364 
L 316.746667 234.629364 
L 318.146667 237.429364 
z
" clip-path="url(#p0683e15012)" style="fill: #7b2cbf; stroke: #7b2cbf; stroke-width: 0.8; stroke-linecap: round"/>
   </g>
   <g id="patch_65">
    <path d="M 74.453333 77.738667 
L 58.049511 89.656742 
L 64.315213 108.940592 
L 84.591453 108.940592 
L 90.857156 89.656742 
z
" clip-path="url(#p0683e15012)" style="fill: #3a8a4d; stroke: #000000; stroke-width: 0.9; stroke-linejoin: miter"/>
   </g>
   <g id="patch_66">
    <path d="M 168.906667 119.626667 
L 209.973333 119.626667 
L 209.973333 88.826667 
L 168.906667 88.826667 
z
" clip-path="url(#p0683e15012)" style="fill: #e89c2a; stroke: #000000; stroke-width: 0.9; stroke-linejoin: miter"/>
   </g>
   <g id="patch_67">
    <path d="M 209.973333 119.626667 
L 251.04 119.626667 
L 251.04 88.826667 
L 209.973333 88.826667 
z
" clip-path="url(#p0683e15012)" style="fill: #f1b966; stroke: #000000; stroke-width: 0.9; stroke-linejoin: miter"/>
   </g>
   <g id="patch_68">
    <path d="M 123.733333 63.365333 
C 129.723387 63.365333 135.468911 62.586466 139.704518 61.200267 
C 143.940126 59.814068 146.32 57.933715 146.32 55.973333 
C 146.32 54.012952 143.940126 52.132599 139.704518 50.7464 
C 135.468911 49.360201 129.723387 48.581333 123.733333 48.581333 
C 117.743279 48.581333 111.997756 49.360201 107.762148 50.7464 
C 103.52654 52.132599 101.146667 54.012952 101.146667 55.973333 
C 101.146667 57.933715 103.52654 59.814068 107.762148 61.200267 
C 111.997756 62.586466 117.743279 63.365333 123.733333 63.365333 
z
" clip-path="url(#p0683e15012)" style="fill: #5a3a9c; stroke: #000000; stroke-width: 0.9; stroke-linejoin: miter"/>
   </g>
   <g id="patch_69">
    <path d="M 333.173333 75.685333 
L 370.133333 75.685333 
L 370.133333 60.901333 
L 333.173333 60.901333 
z
" clip-path="url(#p0683e15012)" style="fill: #888888; stroke: #000000; stroke-width: 0.8; stroke-linejoin: miter"/>
   </g>
   <g id="patch_70">
    <path d="M 351.653333 106.896 
C 353.395895 106.896 355.067319 106.203673 356.299496 104.971496 
C 357.531673 103.739319 358.224 102.067895 358.224 100.325333 
C 358.224 98.582772 357.531673 96.911347 356.299496 95.67917 
C 355.067319 94.446994 353.395895 93.754667 351.653333 93.754667 
C 349.910772 93.754667 348.239347 94.446994 347.00717 95.67917 
C 345.774994 96.911347 345.082667 98.582772 345.082667 100.325333 
C 345.082667 102.067895 345.774994 103.739319 347.00717 104.971496 
C 348.239347 106.203673 349.910772 106.896 351.653333 106.896 
z
" clip-path="url(#p0683e15012)" style="fill: #a04020; stroke: #000000; stroke-width: 0.8; stroke-linejoin: miter"/>
   </g>
   <g id="text_15">
    <text style="font-weight: 700; font-size: 6.5px; font-family: 'Liberation Sans', 'Arial', 'DejaVu Sans', sans-serif; text-anchor: middle" x="65.213333" y="174.694193" transform="rotate(-0 65.213333 174.694193)">lux-box</text>
   </g>
   <g id="text_16">
    <text style="font-style: italic; font-weight: 700; font-size: 6.5px; font-family: 'Liberation Sans', 'Arial', 'DejaVu Sans', sans-serif; text-anchor: middle; fill: #ffffff" x="88.826667" y="174.694193" transform="rotate(-0 88.826667 174.694193)">abaI</text>
   </g>
   <g id="text_17">
    <text style="font-style: italic; font-weight: 700; font-size: 6.5px; font-family: 'Liberation Sans', 'Arial', 'DejaVu Sans', sans-serif; text-anchor: middle" x="165.826667" y="174.694193" transform="rotate(-0 165.826667 174.694193)">csu</text>
   </g>
   <g id="text_18">
    <text style="font-style: italic; font-weight: 700; font-size: 6.5px; font-family: 'Liberation Sans', 'Arial', 'DejaVu Sans', sans-serif; text-anchor: middle" x="213.053333" y="174.694193" transform="rotate(-0 213.053333 174.694193)">bap</text>
   </g>
   <g id="text_19">
    <text style="font-style: italic; font-weight: 700; font-size: 6.5px; font-family: 'Liberation Sans', 'Arial', 'DejaVu Sans', sans-serif; text-anchor: middle" x="260.28" y="174.694193" transform="rotate(-0 260.28 174.694193)">pgaABCD</text>
   </g>
   <g id="text_20">
    <text style="font-style: italic; font-weight: 700; font-size: 6.5px; font-family: 'Liberation Sans', 'Arial', 'DejaVu Sans', sans-serif; text-anchor: middle" x="307.506667" y="174.694193" transform="rotate(-0 307.506667 174.694193)">adeFGH</text>
   </g>
   <g id="text_21">
    <text style="font-style: italic; font-weight: 700; font-size: 6.5px; font-family: 'Liberation Sans', 'Arial', 'DejaVu Sans', sans-serif; text-anchor: middle" x="354.733333" y="174.694193" transform="rotate(-0 354.733333 174.694193)">ompA</text>
   </g>
   <g id="patch_71">
    <path d="M 80.202667 224.346667 
L 84.742886 230.595742 
L 92.089114 228.208808 
L 92.089114 220.484526 
L 84.742886 218.097591 
z
" clip-path="url(#p0683e15012)" style="fill: #2e5c8a; stroke: #000000; stroke-width: 0.6; stroke-linejoin: miter"/>
   </g>
   <g id="patch_72">
    <path d="M 94.165333 224.346667 
L 97.656 222.498667 
L 101.146667 226.194667 
L 104.637333 222.498667 
L 108.128 226.194667 
L 111.618667 222.498667 
L 115.109333 226.194667 
" clip-path="url(#p0683e15012)" style="fill: none; stroke: #2e5c8a; stroke-linejoin: miter"/>
   </g>
   <g id="text_22">
    <text style="font-size: 4.5px; font-family: 'Liberation Sans', 'Arial', 'DejaVu Sans', sans-serif; text-anchor: start; fill: #2e5c8a" x="116.752" y="227.358339" transform="rotate(-0 116.752 227.358339)">OH</text>
   </g>
   <g id="patch_73">
    <path d="M 139.749333 232.56 
L 144.289552 238.809075 
L 151.635781 236.422141 
L 151.635781 228.697859 
L 144.289552 226.310925 
z
" clip-path="url(#p0683e15012)" style="fill: #2e5c8a; stroke: #000000; stroke-width: 0.6; stroke-linejoin: miter"/>
   </g>
   <g id="patch_74">
    <path d="M 153.712 232.56 
L 157.202667 230.712 
L 160.693333 234.408 
L 164.184 230.712 
L 167.674667 234.408 
L 171.165333 230.712 
L 174.656 234.408 
" clip-path="url(#p0683e15012)" style="fill: none; stroke: #2e5c8a; stroke-linejoin: miter"/>
   </g>
   <g id="text_23">
    <text style="font-size: 4.5px; font-family: 'Liberation Sans', 'Arial', 'DejaVu Sans', sans-serif; text-anchor: start; fill: #2e5c8a" x="176.298667" y="235.571672" transform="rotate(-0 176.298667 235.571672)">OH</text>
   </g>
   <g id="patch_75">
    <path d="M 197.242667 218.186667 
L 201.782886 224.435742 
L 209.129114 222.048808 
L 209.129114 214.324526 
L 201.782886 211.937591 
z
" clip-path="url(#p0683e15012)" style="fill: #2e5c8a; stroke: #000000; stroke-width: 0.6; stroke-linejoin: miter"/>
   </g>
   <g id="patch_76">
    <path d="M 211.205333 218.186667 
L 214.696 216.338667 
L 218.186667 220.034667 
L 221.677333 216.338667 
L 225.168 220.034667 
L 228.658667 216.338667 
L 232.149333 220.034667 
" clip-path="url(#p0683e15012)" style="fill: none; stroke: #2e5c8a; stroke-linejoin: miter"/>
   </g>
   <g id="text_24">
    <text style="font-size: 4.5px; font-family: 'Liberation Sans', 'Arial', 'DejaVu Sans', sans-serif; text-anchor: start; fill: #2e5c8a" x="233.792" y="221.198339" transform="rotate(-0 233.792 221.198339)">OH</text>
   </g>
   <g id="patch_77">
    <path d="M 254.736 230.506667 
L 259.276219 236.755742 
L 266.622448 234.368808 
L 266.622448 226.644526 
L 259.276219 224.257591 
z
" clip-path="url(#p0683e15012)" style="fill: #2e5c8a; stroke: #000000; stroke-width: 0.6; stroke-linejoin: miter"/>
   </g>
   <g id="patch_78">
    <path d="M 268.698667 230.506667 
L 272.189333 228.658667 
L 275.68 232.354667 
L 279.170667 228.658667 
L 282.661333 232.354667 
L 286.152 228.658667 
L 289.642667 232.354667 
" clip-path="url(#p0683e15012)" style="fill: none; stroke: #2e5c8a; stroke-linejoin: miter"/>
   </g>
   <g id="text_25">
    <text style="font-size: 4.5px; font-family: 'Liberation Sans', 'Arial', 'DejaVu Sans', sans-serif; text-anchor: start; fill: #2e5c8a" x="291.285333" y="233.518339" transform="rotate(-0 291.285333 233.518339)">OH</text>
   </g>
   <g id="patch_79">
    <path d="M 310.176 224.346667 
L 314.716219 230.595742 
L 322.062448 228.208808 
L 322.062448 220.484526 
L 314.716219 218.097591 
z
" clip-path="url(#p0683e15012)" style="fill: #2e5c8a; stroke: #000000; stroke-width: 0.6; stroke-linejoin: miter"/>
   </g>
   <g id="patch_80">
    <path d="M 324.138667 224.346667 
L 327.629333 222.498667 
L 331.12 226.194667 
L 334.610667 222.498667 
L 338.101333 226.194667 
L 341.592 222.498667 
L 345.082667 226.194667 
" clip-path="url(#p0683e15012)" style="fill: none; stroke: #2e5c8a; stroke-linejoin: miter"/>
   </g>
   <g id="text_26">
    <text style="font-size: 4.5px; font-family: 'Liberation Sans', 'Arial', 'DejaVu Sans', sans-serif; text-anchor: start; fill: #2e5c8a" x="346.725333" y="227.358339" transform="rotate(-0 346.725333 227.358339)">OH</text>
   </g>
   <g id="text_27">
    <text style="font-style: italic; font-size: 6px; font-family: 'Liberation Sans', 'Arial', 'DejaVu Sans', sans-serif; text-anchor: start; fill: #2e5c8a" x="214.08" y="142.213333" transform="rotate(-0 214.08 142.213333)">AHL binds AbaR</text>
   </g>
   <g id="patch_81">
    <path d="M 82.798445 272.453904 
C 82.259899 271.812091 81.626305 271.256443 80.919687 270.806278 
C 80.21307 270.356113 79.441714 270.016709 78.632434 269.799863 
C 77.823154 269.583017 76.985437 269.491272 76.148406 269.527817 
C 75.311375 269.564363 74.484842 269.72877 73.697541 270.015325 
C 72.91024 270.301879 72.1714 270.70722 71.506706 271.217258 
C 70.842012 271.727296 70.259257 272.33605 69.778698 273.022359 
C 69.298139 273.708668 68.925411 274.464485 68.673471 275.263536 
C 68.421532 276.062588 68.293333 276.895505 68.293333 277.733333 
C 68.293333 278.571162 68.421532 279.404079 68.673471 280.20313 
C 68.925411 281.002182 69.298139 281.757999 69.778698 282.444308 
C 70.259257 283.130617 70.842012 283.739371 71.506706 284.249409 
C 72.1714 284.759446 72.91024 285.164788 73.697541 285.451342 
C 74.484842 285.737896 75.311375 285.902304 76.148406 285.938849 
C 76.985437 285.975395 77.823154 285.88365 78.632434 285.666804 
C 79.441714 285.449958 80.21307 285.110553 80.919687 284.660388 
C 81.626305 284.210224 82.259899 283.654576 82.798445 283.012762 
L 76.506667 277.733333 
z
" clip-path="url(#p0683e15012)" style="fill: #7b2cbf; stroke: #000000; stroke-width: 0.7; stroke-linejoin: miter"/>
   </g>
   <g id="patch_82">
    <path d="M 142.345112 272.453904 
C 141.806566 271.812091 141.172971 271.256443 140.466354 270.806278 
C 139.759737 270.356113 138.988381 270.016709 138.1791 269.799863 
C 137.36982 269.583017 136.532104 269.491272 135.695073 269.527817 
C 134.858042 269.564363 134.031509 269.72877 133.244208 270.015325 
C 132.456907 270.301879 131.718067 270.70722 131.053373 271.217258 
C 130.388679 271.727296 129.805923 272.33605 129.325365 273.022359 
C 128.844806 273.708668 128.472078 274.464485 128.220138 275.263536 
C 127.968198 276.062588 127.84 276.895505 127.84 277.733333 
C 127.84 278.571162 127.968198 279.404079 128.220138 280.20313 
C 128.472078 281.002182 128.844806 281.757999 129.325365 282.444308 
C 129.805923 283.130617 130.388679 283.739371 131.053373 284.249409 
C 131.718067 284.759446 132.456907 285.164788 133.244208 285.451342 
C 134.031509 285.737896 134.858042 285.902304 135.695073 285.938849 
C 136.532104 285.975395 137.36982 285.88365 138.1791 285.666804 
C 138.988381 285.449958 139.759737 285.110553 140.466354 284.660388 
C 141.172971 284.210224 141.806566 283.654576 142.345112 283.012762 
L 136.053333 277.733333 
z
" clip-path="url(#p0683e15012)" style="fill: #7b2cbf; stroke: #000000; stroke-width: 0.7; stroke-linejoin: miter"/>
   </g>
   <g id="patch_83">
    <path d="M 201.891778 272.453904 
C 201.353233 271.812091 200.719638 271.256443 200.013021 270.806278 
C 199.306403 270.356113 198.535047 270.016709 197.725767 269.799863 
C 196.916487 269.583017 196.07877 269.491272 195.241739 269.527817 
C 194.404708 269.564363 193.578176 269.72877 192.790875 270.015325 
C 192.003573 270.301879 191.264733 270.70722 190.600039 271.217258 
C 189.935345 271.727296 189.35259 272.33605 188.872031 273.022359 
C 188.391473 273.708668 188.018745 274.464485 187.766805 275.263536 
C 187.514865 276.062588 187.386667 276.895505 187.386667 277.733333 
C 187.386667 278.571162 187.514865 279.404079 187.766805 280.20313 
C 188.018745 281.002182 188.391473 281.757999 188.872031 282.444308 
C 189.35259 283.130617 189.935345 283.739371 190.600039 284.249409 
C 191.264733 284.759446 192.003573 285.164788 192.790875 285.451342 
C 193.578176 285.737896 194.404708 285.902304 195.241739 285.938849 
C 196.07877 285.975395 196.916487 285.88365 197.725767 285.666804 
C 198.535047 285.449958 199.306403 285.110553 200.013021 284.660388 
C 200.719638 284.210224 201.353233 283.654576 201.891778 283.012762 
L 195.6 277.733333 
z
" clip-path="url(#p0683e15012)" style="fill: #7b2cbf; stroke: #000000; stroke-width: 0.7; stroke-linejoin: miter"/>
   </g>
   <g id="patch_84">
    <path d="M 323.038445 272.453904 
C 322.499899 271.812091 321.866305 271.256443 321.159687 270.806278 
C 320.45307 270.356113 319.681714 270.016709 318.872434 269.799863 
C 318.063154 269.583017 317.225437 269.491272 316.388406 269.527817 
C 315.551375 269.564363 314.724842 269.72877 313.937541 270.015325 
C 313.15024 270.301879 312.4114 270.70722 311.746706 271.217258 
C 311.082012 271.727296 310.499257 272.33605 310.018698 273.022359 
C 309.538139 273.708668 309.165411 274.464485 308.913471 275.263536 
C 308.661532 276.062588 308.533333 276.895505 308.533333 277.733333 
C 308.533333 278.571162 308.661532 279.404079 308.913471 280.20313 
C 309.165411 281.002182 309.538139 281.757999 310.018698 282.444308 
C 310.499257 283.130617 311.082012 283.739371 311.746706 284.249409 
C 312.4114 284.759446 313.15024 285.164788 313.937541 285.451342 
C 314.724842 285.737896 315.551375 285.902304 316.388406 285.938849 
C 317.225437 285.975395 318.063154 285.88365 318.872434 285.666804 
C 319.681714 285.449958 320.45307 285.110553 321.159687 284.660388 
C 321.866305 284.210224 322.499899 283.654576 323.038445 283.012762 
L 316.746667 277.733333 
z
" clip-path="url(#p0683e15012)" style="fill: #7b2cbf; stroke: #000000; stroke-width: 0.7; stroke-linejoin: miter"/>
   </g>
   <g id="legend_1">
    <g id="patch_85">
     <path d="M 18.253333 338.181075 
L 24.853333 338.181075 
L 24.853333 333.981075 
L 18.253333 333.981075 
z
" style="fill: #3a8a4d; stroke: #3a8a4d; stroke-linejoin: miter"/>
    </g>
    <g id="text_28">
     <text style="font-size: 6px; font-family: 'Liberation Sans', 'Arial', 'DejaVu Sans', sans-serif; text-anchor: start" x="26.953333" y="338.181075" transform="rotate(-0 26.953333 338.181075)">AbaI (synthase)</text>
    </g>
    <g id="patch_86">
     <path d="M 18.253333 346.7742 
L 24.853333 346.7742 
L 24.853333 342.5742 
L 18.253333 342.5742 
z
" style="fill: #e89c2a; stroke: #e89c2a; stroke-linejoin: miter"/>
    </g>
    <g id="text_29">
     <text style="font-size: 6px; font-family: 'Liberation Sans', 'Arial', 'DejaVu Sans', sans-serif; text-anchor: start" x="26.953333" y="346.7742" transform="rotate(-0 26.953333 346.7742)">AbaR (receptor)</text>
    </g>
    <g id="patch_87">
     <path d="M 73.833021 338.181075 
L 80.433021 338.181075 
L 80.433021 333.981075 
L 73.833021 333.981075 
z
" style="fill: #d62828; stroke: #d62828; stroke-linejoin: miter"/>
    </g>
    <g id="text_30">
     <text style="font-size: 6px; font-family: 'Liberation Sans', 'Arial', 'DejaVu Sans', sans-serif; text-anchor: start" x="82.533021" y="338.181075" transform="rotate(-0 82.533021 338.181075)">AbaM (brake)</text>
    </g>
    <g id="patch_88">
     <path d="M 73.833021 346.7742 
L 80.433021 346.7742 
L 80.433021 342.5742 
L 73.833021 342.5742 
z
" style="fill: #2e5c8a; stroke: #2e5c8a; stroke-linejoin: miter"/>
    </g>
    <g id="text_31">
     <text style="font-size: 6px; font-family: 'Liberation Sans', 'Arial', 'DejaVu Sans', sans-serif; text-anchor: start" x="82.533021" y="346.7742" transform="rotate(-0 82.533021 346.7742)">AHL signal</text>
    </g>
    <g id="patch_89">
     <path d="M 123.076146 338.181075 
L 129.676146 338.181075 
L 129.676146 333.981075 
L 123.076146 333.981075 
z
" style="fill: #7b2cbf; stroke: #7b2cbf; stroke-linejoin: miter"/>
    </g>
    <g id="text_32">
     <text style="font-size: 6px; font-family: 'Liberation Sans', 'Arial', 'DejaVu Sans', sans-serif; text-anchor: start" x="131.776146" y="338.181075" transform="rotate(-0 131.776146 338.181075)">QQ enzymes</text>
    </g>
    <g id="line2d_3">
     <path d="M 123.076146 344.6742 
L 126.376146 344.6742 
L 129.676146 344.6742 
" style="fill: none; stroke: #000000; stroke-linecap: square"/>
     <defs>
      <path id="m18fd85d4b4" d="M 2.5 0 
L -2.5 -2.5 
L -2.5 2.5 
z
" style="stroke: #000000; stroke-linejoin: miter"/>
     </defs>
     <g>
      <use xlink:href="#m18fd85d4b4" x="126.376146" y="344.6742" style="stroke: #000000; stroke-linejoin: miter"/>
     </g>
    </g>
    <g id="text_33">
     <text style="font-size: 6px; font-family: 'Liberation Sans', 'Arial', 'DejaVu Sans', sans-serif; text-anchor: start" x="131.776146" y="346.7742" transform="rotate(-0 131.776146 346.7742)">activation</text>
    </g>
    <g id="line2d_4">
     <path d="M 170.984271 336.081075 
L 174.284271 336.081075 
L 177.584271 336.081075 
" style="fill: none; stroke: #d62828; stroke-width: 1.4; stroke-linecap: square"/>
     <defs>
      <path id="m30ef6be9eb" d="M 4 0 
L -4 -0 
" style="stroke: #d62828"/>
     </defs>
     <g>
      <use xlink:href="#m30ef6be9eb" x="174.284271" y="336.081075" style="fill: #d62828; stroke: #d62828"/>
     </g>
    </g>
    <g id="text_34">
     <text style="font-size: 6px; font-family: 'Liberation Sans', 'Arial', 'DejaVu Sans', sans-serif; text-anchor: start" x="179.684271" y="338.181075" transform="rotate(-0 179.684271 338.181075)">inhibition</text>
    </g>
    <g id="line2d_5">
     <path d="M 170.984271 344.6742 
L 174.284271 344.6742 
L 177.584271 344.6742 
" style="fill: none; stroke-dasharray: 1.8,1.35; stroke-dashoffset: 0; stroke: #2e5c8a; stroke-width: 0.9"/>
    </g>
    <g id="text_35">
     <text style="font-size: 6px; font-family: 'Liberation Sans', 'Arial', 'DejaVu Sans', sans-serif; text-anchor: start" x="179.684271" y="346.7742" transform="rotate(-0 179.684271 346.7742)">diffusion</text>
    </g>
   </g>
   <g id="text_36">
    <text style="font-weight: 700; font-size: 8px; font-family: 'Liberation Sans', 'Arial', 'DejaVu Sans', sans-serif; text-anchor: middle; fill: #ffffff" x="74.453333" y="97.055417" transform="rotate(-0 74.453333 97.055417)">AbaI</text>
   </g>
   <g id="line2d_6">
    <path d="M 209.973333 117.573333 
L 209.973333 90.88 
" clip-path="url(#p0683e15012)" style="fill: none; stroke: #000000; stroke-width: 0.6; stroke-linecap: square"/>
   </g>
   <g id="text_37">
    <text style="font-size: 6.5px; font-family: 'Liberation Sans', 'Arial', 'DejaVu Sans', sans-serif" transform="translate(175.891563 102.40687)">AHL-bind</text>
    <text style="font-size: 6.5px; font-family: 'Liberation Sans', 'Arial', 'DejaVu Sans', sans-serif" transform="translate(184.928594 109.408182)">(N)</text>
   </g>
   <g id="text_38">
    <text style="font-size: 6.5px; font-family: 'Liberation Sans', 'Arial', 'DejaVu Sans', sans-serif" transform="translate(215.88319 102.40687)">HTH-DNA</text>
    <text style="font-size: 6.5px; font-family: 'Liberation Sans', 'Arial', 'DejaVu Sans', sans-serif" transform="translate(225.99526 109.408182)">(C)</text>
   </g>
   <g id="patch_90">
    <path d="M 197.653333 67.472 
L 222.293333 67.472 
L 209.973333 84.72 
z
" clip-path="url(#p0683e15012)" style="fill: #d62828; stroke: #000000; stroke-width: 0.8; stroke-linejoin: miter"/>
   </g>
   <g id="patch_91">
    <path d="M 209.973333 86.718792 
Q 209.973333 87.362062 209.973333 88.005333 
" clip-path="url(#p0683e15012)" style="fill: none; stroke: #d62828; stroke-width: 1.4; stroke-linecap: round"/>
    <path d="M 216.973333 85.318792 
L 216.973333 86.718792 
L 202.973333 86.718792 
L 202.973333 85.318792 
" clip-path="url(#p0683e15012)" style="fill: none; stroke: #d62828; stroke-width: 1.4; stroke-linecap: round"/>
   </g>
   <g id="text_39">
    <text style="font-weight: 700; font-size: 6.8px; font-family: 'Liberation Sans', 'Arial', 'DejaVu Sans', sans-serif; text-anchor: middle; fill: #ffffff" x="123.733333" y="57.731771" transform="rotate(-0 123.733333 57.731771)">ABUW_1132</text>
   </g>
   <g id="text_40">
    <text style="font-style: italic; font-size: 6px; font-family: 'Liberation Sans', 'Arial', 'DejaVu Sans', sans-serif; text-anchor: start; fill: #2e1a55" x="153.301333" y="57.524896" transform="rotate(-0 153.301333 57.524896)">LysR-type</text>
   </g>
   <g id="text_41">
    <text style="font-weight: 700; font-size: 7.5px; font-family: 'Liberation Sans', 'Arial', 'DejaVu Sans', sans-serif; text-anchor: middle; fill: #ffffff" x="351.653333" y="70.232786" transform="rotate(-0 351.653333 70.232786)">RelA</text>
   </g>
   <g id="text_42">
    <text style="font-weight: 700; font-size: 5.5px; font-family: 'Liberation Sans', 'Arial', 'DejaVu Sans', sans-serif; text-anchor: middle; fill: #ffffff" x="351.653333" y="101.747599" transform="rotate(-0 351.653333 101.747599)">(p)ppGpp</text>
   </g>
   <g id="text_43">
    <text style="font-weight: 700; font-size: 5px; font-family: 'Liberation Sans', 'Arial', 'DejaVu Sans', sans-serif; text-anchor: middle; fill: #ffffff" x="86.773333" y="225.639635" transform="rotate(-0 86.773333 225.639635)">O</text>
   </g>
   <g id="text_44">
    <text style="font-weight: 700; font-size: 5px; font-family: 'Liberation Sans', 'Arial', 'DejaVu Sans', sans-serif; text-anchor: middle; fill: #ffffff" x="146.32" y="233.852969" transform="rotate(-0 146.32 233.852969)">O</text>
   </g>
   <g id="text_45">
    <text style="font-weight: 700; font-size: 5px; font-family: 'Liberation Sans', 'Arial', 'DejaVu Sans', sans-serif; text-anchor: middle; fill: #ffffff" x="203.813333" y="219.479635" transform="rotate(-0 203.813333 219.479635)">O</text>
   </g>
   <g id="text_46">
    <text style="font-weight: 700; font-size: 5px; font-family: 'Liberation Sans', 'Arial', 'DejaVu Sans', sans-serif; text-anchor: middle; fill: #ffffff" x="261.306667" y="231.799635" transform="rotate(-0 261.306667 231.799635)">O</text>
   </g>
   <g id="text_47">
    <text style="font-weight: 700; font-size: 5px; font-family: 'Liberation Sans', 'Arial', 'DejaVu Sans', sans-serif; text-anchor: middle; fill: #ffffff" x="316.746667" y="225.639635" transform="rotate(-0 316.746667 225.639635)">O</text>
   </g>
   <g id="text_48">
    <text style="font-weight: 700; font-size: 6.5px; font-family: 'Liberation Sans', 'Arial', 'DejaVu Sans', sans-serif; text-anchor: middle; fill: #7b2cbf" x="76.506667" y="296.817135" transform="rotate(-0 76.506667 296.817135)">MomL</text>
   </g>
   <g id="text_49">
    <text style="font-weight: 700; font-size: 6.5px; font-family: 'Liberation Sans', 'Arial', 'DejaVu Sans', sans-serif; text-anchor: middle; fill: #7b2cbf" x="136.053333" y="296.817135" transform="rotate(-0 136.053333 296.817135)">AaL</text>
   </g>
   <g id="text_50">
    <text style="font-weight: 700; font-size: 6.5px; font-family: 'Liberation Sans', 'Arial', 'DejaVu Sans', sans-serif; text-anchor: middle; fill: #7b2cbf" x="195.6" y="296.817135" transform="rotate(-0 195.6 296.817135)">AidA</text>
   </g>
   <g id="text_51">
    <text style="font-weight: 700; font-size: 6.5px; font-family: 'Liberation Sans', 'Arial', 'DejaVu Sans', sans-serif; text-anchor: middle; fill: #7b2cbf" x="316.746667" y="296.817135" transform="rotate(-0 316.746667 296.817135)">PvdQ</text>
   </g>
   <g id="text_52">
    <text style="font-weight: 700; font-size: 6.8px; font-family: 'Liberation Sans', 'Arial', 'DejaVu Sans', sans-serif; text-anchor: middle; fill: #ffffff" x="209.973333" y="75.801104" transform="rotate(-0 209.973333 75.801104)">AbaM</text>
   </g>
   <g id="text_53">
    <text style="font-weight: 700; font-size: 6.5px; font-family: 'Liberation Sans', 'Arial', 'DejaVu Sans', sans-serif; text-anchor: start; fill: #222222" x="31.333333" y="341.014193" transform="rotate(-0 31.333333 341.014193)">QS cycle:</text>
   </g>
   <g id="patch_92">
    <path d="M 74.453333 343.44 
C 75.542434 343.44 76.587075 343.007296 77.357185 342.237185 
C 78.127296 341.467075 78.56 340.422434 78.56 339.333333 
C 78.56 338.244233 78.127296 337.199592 77.357185 336.429481 
C 76.587075 335.659371 75.542434 335.226667 74.453333 335.226667 
C 73.364233 335.226667 72.319592 335.659371 71.549481 336.429481 
C 70.779371 337.199592 70.346667 338.244233 70.346667 339.333333 
C 70.346667 340.422434 70.779371 341.467075 71.549481 342.237185 
C 72.319592 343.007296 73.364233 343.44 74.453333 343.44 
z
" clip-path="url(#p0683e15012)" style="fill: #333333; stroke: #000000; stroke-width: 0.5; stroke-linejoin: miter"/>
   </g>
   <g id="text_54">
    <text style="font-size: 6px; font-family: 'Liberation Sans', 'Arial', 'DejaVu Sans', sans-serif; text-anchor: start; fill: #222222" x="79.792" y="340.884896" transform="rotate(-0 79.792 340.884896)">Synthesis</text>
   </g>
   <g id="patch_93">
    <path d="M 129.893333 343.44 
C 130.982434 343.44 132.027075 343.007296 132.797185 342.237185 
C 133.567296 341.467075 134 340.422434 134 339.333333 
C 134 338.244233 133.567296 337.199592 132.797185 336.429481 
C 132.027075 335.659371 130.982434 335.226667 129.893333 335.226667 
C 128.804233 335.226667 127.759592 335.659371 126.989481 336.429481 
C 126.219371 337.199592 125.786667 338.244233 125.786667 339.333333 
C 125.786667 340.422434 126.219371 341.467075 126.989481 342.237185 
C 127.759592 343.007296 128.804233 343.44 129.893333 343.44 
z
" clip-path="url(#p0683e15012)" style="fill: #333333; stroke: #000000; stroke-width: 0.5; stroke-linejoin: miter"/>
   </g>
   <g id="text_55">
    <text style="font-size: 6px; font-family: 'Liberation Sans', 'Arial', 'DejaVu Sans', sans-serif; text-anchor: start; fill: #222222" x="135.232" y="340.884896" transform="rotate(-0 135.232 340.884896)">Diffusion</text>
   </g>
   <g id="patch_94">
    <path d="M 185.333333 343.44 
C 186.422434 343.44 187.467075 343.007296 188.237185 342.237185 
C 189.007296 341.467075 189.44 340.422434 189.44 339.333333 
C 189.44 338.244233 189.007296 337.199592 188.237185 336.429481 
C 187.467075 335.659371 186.422434 335.226667 185.333333 335.226667 
C 184.244233 335.226667 183.199592 335.659371 182.429481 336.429481 
C 181.659371 337.199592 181.226667 338.244233 181.226667 339.333333 
C 181.226667 340.422434 181.659371 341.467075 182.429481 342.237185 
C 183.199592 343.007296 184.244233 343.44 185.333333 343.44 
z
" clip-path="url(#p0683e15012)" style="fill: #333333; stroke: #000000; stroke-width: 0.5; stroke-linejoin: miter"/>
   </g>
   <g id="text_56">
    <text style="font-size: 6px; font-family: 'Liberation Sans', 'Arial', 'DejaVu Sans', sans-serif; text-anchor: start; fill: #222222" x="190.672" y="340.884896" transform="rotate(-0 190.672 340.884896)">Accumulation</text>
   </g>
   <g id="patch_95">
    <path d="M 240.773333 343.44 
C 241.862434 343.44 242.907075 343.007296 243.677185 342.237185 
C 244.447296 341.467075 244.88 340.422434 244.88 339.333333 
C 244.88 338.244233 244.447296 337.199592 243.677185 336.429481 
C 242.907075 335.659371 241.862434 335.226667 240.773333 335.226667 
C 239.684233 335.226667 238.639592 335.659371 237.869481 336.429481 
C 237.099371 337.199592 236.666667 338.244233 236.666667 339.333333 
C 236.666667 340.422434 237.099371 341.467075 237.869481 342.237185 
C 238.639592 343.007296 239.684233 343.44 240.773333 343.44 
z
" clip-path="url(#p0683e15012)" style="fill: #333333; stroke: #000000; stroke-width: 0.5; stroke-linejoin: miter"/>
   </g>
   <g id="text_57">
    <text style="font-size: 6px; font-family: 'Liberation Sans', 'Arial', 'DejaVu Sans', sans-serif; text-anchor: start; fill: #222222" x="246.112" y="340.884896" transform="rotate(-0 246.112 340.884896)">Binding</text>
   </g>
   <g id="patch_96">
    <path d="M 296.213333 343.44 
C 297.302434 343.44 298.347075 343.007296 299.117185 342.237185 
C 299.887296 341.467075 300.32 340.422434 300.32 339.333333 
C 300.32 338.244233 299.887296 337.199592 299.117185 336.429481 
C 298.347075 335.659371 297.302434 335.226667 296.213333 335.226667 
C 295.124233 335.226667 294.079592 335.659371 293.309481 336.429481 
C 292.539371 337.199592 292.106667 338.244233 292.106667 339.333333 
C 292.106667 340.422434 292.539371 341.467075 293.309481 342.237185 
C 294.079592 343.007296 295.124233 343.44 296.213333 343.44 
z
" clip-path="url(#p0683e15012)" style="fill: #333333; stroke: #000000; stroke-width: 0.5; stroke-linejoin: miter"/>
   </g>
   <g id="text_58">
    <text style="font-size: 6px; font-family: 'Liberation Sans', 'Arial', 'DejaVu Sans', sans-serif; text-anchor: start; fill: #222222" x="301.552" y="340.884896" transform="rotate(-0 301.552 340.884896)">Transcription</text>
   </g>
   <g id="patch_97">
    <path d="M 351.653333 343.44 
C 352.742434 343.44 353.787075 343.007296 354.557185 342.237185 
C 355.327296 341.467075 355.76 340.422434 355.76 339.333333 
C 355.76 338.244233 355.327296 337.199592 354.557185 336.429481 
C 353.787075 335.659371 352.742434 335.226667 351.653333 335.226667 
C 350.564233 335.226667 349.519592 335.659371 348.749481 336.429481 
C 347.979371 337.199592 347.546667 338.244233 347.546667 339.333333 
C 347.546667 340.422434 347.979371 341.467075 348.749481 342.237185 
C 349.519592 343.007296 350.564233 343.44 351.653333 343.44 
z
" clip-path="url(#p0683e15012)" style="fill: #333333; stroke: #000000; stroke-width: 0.5; stroke-linejoin: miter"/>
   </g>
   <g id="text_59">
    <text style="font-size: 6px; font-family: 'Liberation Sans', 'Arial', 'DejaVu Sans', sans-serif; text-anchor: start; fill: #222222" x="356.992" y="340.884896" transform="rotate(-0 356.992 340.884896)">Output</text>
   </g>
   <g id="text_60">
    <text style="font-weight: 700; font-size: 6px; font-family: 'Liberation Sans', 'Arial', 'DejaVu Sans', sans-serif; text-anchor: middle; fill: #ffffff" x="74.453333" y="340.884896" transform="rotate(-0 74.453333 340.884896)">1</text>
   </g>
   <g id="text_61">
    <text style="font-weight: 700; font-size: 6px; font-family: 'Liberation Sans', 'Arial', 'DejaVu Sans', sans-serif; text-anchor: middle; fill: #ffffff" x="129.893333" y="340.884896" transform="rotate(-0 129.893333 340.884896)">2</text>
   </g>
   <g id="text_62">
    <text style="font-weight: 700; font-size: 6px; font-family: 'Liberation Sans', 'Arial', 'DejaVu Sans', sans-serif; text-anchor: middle; fill: #ffffff" x="185.333333" y="340.884896" transform="rotate(-0 185.333333 340.884896)">3</text>
   </g>
   <g id="text_63">
    <text style="font-weight: 700; font-size: 6px; font-family: 'Liberation Sans', 'Arial', 'DejaVu Sans', sans-serif; text-anchor: middle; fill: #ffffff" x="240.773333" y="340.884896" transform="rotate(-0 240.773333 340.884896)">4</text>
   </g>
   <g id="text_64">
    <text style="font-weight: 700; font-size: 6px; font-family: 'Liberation Sans', 'Arial', 'DejaVu Sans', sans-serif; text-anchor: middle; fill: #ffffff" x="296.213333" y="340.884896" transform="rotate(-0 296.213333 340.884896)">5</text>
   </g>
   <g id="text_65">
    <text style="font-weight: 700; font-size: 6px; font-family: 'Liberation Sans', 'Arial', 'DejaVu Sans', sans-serif; text-anchor: middle; fill: #ffffff" x="351.653333" y="340.884896" transform="rotate(-0 351.653333 340.884896)">6</text>
   </g>
  </g>
 </g>
 <defs>
  <clipPath id="p0683e15012">
   <rect x="10.8" y="10.8" width="410.666667" height="332.64"/>
  </clipPath>
 </defs>
</svg>
