<?xml version="1.0" encoding="utf-8" standalone="no"?>
<!DOCTYPE svg PUBLIC "-//W3C//DTD SVG 1.1//EN"
  "http://www.w3.org/Graphics/SVG/1.1/DTD/svg11.dtd">
<svg xmlns:xlink="http://www.w3.org/1999/xlink" width="434.176744pt" height="387.40864pt" viewBox="0 0 434.176744 387.40864" xmlns="http://www.w3.org/2000/svg" version="1.1">
 <metadata>
  <rdf:RDF xmlns:dc="http://purl.org/dc/elements/1.1/" xmlns:cc="http://creativecommons.org/ns#" xmlns:rdf="http://www.w3.org/1999/02/22-rdf-syntax-ns#">
   <cc:Work>
    <dc:type rdf:resource="http://purl.org/dc/dcmitype/StillImage"/>
    <dc:date>2026-05-17T11:06:53.847304</dc:date>
    <dc:format>image/svg+xml</dc:format>
    <dc:creator>
     <cc:Agent>
      <dc:title>Matplotlib v3.10.9, https://matplotlib.org/</dc:title>
     </cc:Agent>
    </dc:creator>
   </cc:Work>
  </rdf:RDF>
 </metadata>
 <defs>
  <style type="text/css">*{stroke-linejoin: round; stroke-linecap: butt}</style>
 </defs>
 <g id="figure_1">
  <g id="patch_1">
   <path d="M 0 387.40864 
L 434.176744 387.40864 
L 434.176744 0 
L 0 0 
z
" style="fill: #ffffff"/>
  </g>
  <g id="axes_1">
   <g id="patch_2">
    <path d="M 49.169637 189.033153 
L 385.007107 189.033153 
Q 403.57306 189.033153 403.57306 170.4672 
L 403.57306 65.672707 
Q 403.57306 47.106753 385.007107 47.106753 
L 49.169637 47.106753 
Q 30.603684 47.106753 30.603684 65.672707 
L 30.603684 170.4672 
Q 30.603684 189.033153 49.169637 189.033153 
z
" clip-path="url(#pa72fc43cac)" style="fill: #fdf6e7; stroke: #444444; stroke-width: 1.4; stroke-linejoin: miter"/>
   </g>
   <g id="patch_3">
    <path d="M 38.030065 306.617526 
L 396.146679 306.617526 
Q 403.57306 306.617526 403.57306 299.191144 
L 403.57306 207.18653 
Q 403.57306 199.760149 396.146679 199.760149 
L 38.030065 199.760149 
Q 30.603684 199.760149 30.603684 207.18653 
L 30.603684 299.191144 
Q 30.603684 306.617526 38.030065 306.617526 
z
" clip-path="url(#pa72fc43cac)" style="fill: #eef4fb; stroke: #a9c2da; stroke-width: 0.6; stroke-linejoin: miter"/>
   </g>
   <g id="line2d_1">
    <path d="M 31.428837 189.033153 
L 402.747907 189.033153 
" clip-path="url(#pa72fc43cac)" style="fill: none; stroke: #444444; stroke-width: 1.6; stroke-linecap: square"/>
   </g>
   <g id="text_1">
    <text style="font-weight: 700; font-size: 10px; font-family: 'Liberation Sans', 'Arial', 'DejaVu Sans', sans-serif; text-anchor: middle" x="217.088372" y="23.700356" transform="rotate(-0 217.088372 23.700356)">Acinetobacter baumannii cell — schematic</text>
   </g>
   <g id="text_2">
    <text style="font-style: italic; font-size: 9px; font-family: 'Liberation Sans', 'Arial', 'DejaVu Sans', sans-serif; text-anchor: middle; fill: #444444" x="217.088372" y="35.819065" transform="rotate(-0 217.088372 35.819065)">AbaI / AbaR / AbaM quorum-sensing circuit</text>
   </g>
   <g id="patch_4">
    <path d="M 39.680372 190.477172 
C 40.06333 190.477172 40.430655 190.325021 40.701447 190.054229 
C 40.97224 189.783436 41.124391 189.416112 41.124391 189.033153 
C 41.124391 188.650195 40.97224 188.28287 40.701447 188.012078 
C 40.430655 187.741286 40.06333 187.589135 39.680372 187.589135 
C 39.297414 187.589135 38.930089 187.741286 38.659297 188.012078 
C 38.388504 188.28287 38.236353 188.650195 38.236353 189.033153 
C 38.236353 189.416112 38.388504 189.783436 38.659297 190.054229 
C 38.930089 190.325021 39.297414 190.477172 39.680372 190.477172 
z
" clip-path="url(#pa72fc43cac)" style="fill: #9ec3e3; stroke: #444444; stroke-width: 0.3; stroke-linejoin: miter"/>
   </g>
   <g id="patch_5">
    <path d="M 48.75706 190.477172 
C 49.140019 190.477172 49.507343 190.325021 49.778136 190.054229 
C 50.048928 189.783436 50.201079 189.416112 50.201079 189.033153 
C 50.201079 188.650195 50.048928 188.28287 49.778136 188.012078 
C 49.507343 187.741286 49.140019 187.589135 48.75706 187.589135 
C 48.374102 187.589135 48.006777 187.741286 47.735985 188.012078 
C 47.465193 188.28287 47.313042 188.650195 47.313042 189.033153 
C 47.313042 189.416112 47.465193 189.783436 47.735985 190.054229 
C 48.006777 190.325021 48.374102 190.477172 48.75706 190.477172 
z
" clip-path="url(#pa72fc43cac)" style="fill: #9ec3e3; stroke: #444444; stroke-width: 0.3; stroke-linejoin: miter"/>
   </g>
   <g id="patch_6">
    <path d="M 57.833749 190.477172 
C 58.216707 190.477172 58.584032 190.325021 58.854824 190.054229 
C 59.125617 189.783436 59.277767 189.416112 59.277767 189.033153 
C 59.277767 188.650195 59.125617 188.28287 58.854824 188.012078 
C 58.584032 187.741286 58.216707 187.589135 57.833749 187.589135 
C 57.450791 187.589135 57.083466 187.741286 56.812673 188.012078 
C 56.541881 188.28287 56.38973 188.650195 56.38973 189.033153 
C 56.38973 189.416112 56.541881 189.783436 56.812673 190.054229 
C 57.083466 190.325021 57.450791 190.477172 57.833749 190.477172 
z
" clip-path="url(#pa72fc43cac)" style="fill: #9ec3e3; stroke: #444444; stroke-width: 0.3; stroke-linejoin: miter"/>
   </g>
   <g id="patch_7">
    <path d="M 66.910437 190.477172 
C 67.293395 190.477172 67.66072 190.325021 67.931513 190.054229 
C 68.202305 189.783436 68.354456 189.416112 68.354456 189.033153 
C 68.354456 188.650195 68.202305 188.28287 67.931513 188.012078 
C 67.66072 187.741286 67.293395 187.589135 66.910437 187.589135 
C 66.527479 187.589135 66.160154 187.741286 65.889362 188.012078 
C 65.61857 188.28287 65.466419 188.650195 65.466419 189.033153 
C 65.466419 189.416112 65.61857 189.783436 65.889362 190.054229 
C 66.160154 190.325021 66.527479 190.477172 66.910437 190.477172 
z
" clip-path="url(#pa72fc43cac)" style="fill: #9ec3e3; stroke: #444444; stroke-width: 0.3; stroke-linejoin: miter"/>
   </g>
   <g id="patch_8">
    <path d="M 75.987126 190.477172 
C 76.370084 190.477172 76.737409 190.325021 77.008201 190.054229 
C 77.278993 189.783436 77.431144 189.416112 77.431144 189.033153 
C 77.431144 188.650195 77.278993 188.28287 77.008201 188.012078 
C 76.737409 187.741286 76.370084 187.589135 75.987126 187.589135 
C 75.604167 187.589135 75.236843 187.741286 74.96605 188.012078 
C 74.695258 188.28287 74.543107 188.650195 74.543107 189.033153 
C 74.543107 189.416112 74.695258 189.783436 74.96605 190.054229 
C 75.236843 190.325021 75.604167 190.477172 75.987126 190.477172 
z
" clip-path="url(#pa72fc43cac)" style="fill: #9ec3e3; stroke: #444444; stroke-width: 0.3; stroke-linejoin: miter"/>
   </g>
   <g id="patch_9">
    <path d="M 85.063814 190.477172 
C 85.446772 190.477172 85.814097 190.325021 86.084889 190.054229 
C 86.355682 189.783436 86.507833 189.416112 86.507833 189.033153 
C 86.507833 188.650195 86.355682 188.28287 86.084889 188.012078 
C 85.814097 187.741286 85.446772 187.589135 85.063814 187.589135 
C 84.680856 187.589135 84.313531 187.741286 84.042739 188.012078 
C 83.771946 188.28287 83.619795 188.650195 83.619795 189.033153 
C 83.619795 189.416112 83.771946 189.783436 84.042739 190.054229 
C 84.313531 190.325021 84.680856 190.477172 85.063814 190.477172 
z
" clip-path="url(#pa72fc43cac)" style="fill: #9ec3e3; stroke: #444444; stroke-width: 0.3; stroke-linejoin: miter"/>
   </g>
   <g id="patch_10">
    <path d="M 94.140502 190.477172 
C 94.523461 190.477172 94.890785 190.325021 95.161578 190.054229 
C 95.43237 189.783436 95.584521 189.416112 95.584521 189.033153 
C 95.584521 188.650195 95.43237 188.28287 95.161578 188.012078 
C 94.890785 187.741286 94.523461 187.589135 94.140502 187.589135 
C 93.757544 187.589135 93.390219 187.741286 93.119427 188.012078 
C 92.848635 188.28287 92.696484 188.650195 92.696484 189.033153 
C 92.696484 189.416112 92.848635 189.783436 93.119427 190.054229 
C 93.390219 190.325021 93.757544 190.477172 94.140502 190.477172 
z
" clip-path="url(#pa72fc43cac)" style="fill: #9ec3e3; stroke: #444444; stroke-width: 0.3; stroke-linejoin: miter"/>
   </g>
   <g id="patch_11">
    <path d="M 103.217191 190.477172 
C 103.600149 190.477172 103.967474 190.325021 104.238266 190.054229 
C 104.509058 189.783436 104.661209 189.416112 104.661209 189.033153 
C 104.661209 188.650195 104.509058 188.28287 104.238266 188.012078 
C 103.967474 187.741286 103.600149 187.589135 103.217191 187.589135 
C 102.834232 187.589135 102.466908 187.741286 102.196115 188.012078 
C 101.925323 188.28287 101.773172 188.650195 101.773172 189.033153 
C 101.773172 189.416112 101.925323 189.783436 102.196115 190.054229 
C 102.466908 190.325021 102.834232 190.477172 103.217191 190.477172 
z
" clip-path="url(#pa72fc43cac)" style="fill: #9ec3e3; stroke: #444444; stroke-width: 0.3; stroke-linejoin: miter"/>
   </g>
   <g id="patch_12">
    <path d="M 112.293879 190.477172 
C 112.676837 190.477172 113.044162 190.325021 113.314954 190.054229 
C 113.585747 189.783436 113.737898 189.416112 113.737898 189.033153 
C 113.737898 188.650195 113.585747 188.28287 113.314954 188.012078 
C 113.044162 187.741286 112.676837 187.589135 112.293879 187.589135 
C 111.910921 187.589135 111.543596 187.741286 111.272804 188.012078 
C 111.002011 188.28287 110.84986 188.650195 110.84986 189.033153 
C 110.84986 189.416112 111.002011 189.783436 111.272804 190.054229 
C 111.543596 190.325021 111.910921 190.477172 112.293879 190.477172 
z
" clip-path="url(#pa72fc43cac)" style="fill: #9ec3e3; stroke: #444444; stroke-width: 0.3; stroke-linejoin: miter"/>
   </g>
   <g id="patch_13">
    <path d="M 121.370567 190.477172 
C 121.753526 190.477172 122.12085 190.325021 122.391643 190.054229 
C 122.662435 189.783436 122.814586 189.416112 122.814586 189.033153 
C 122.814586 188.650195 122.662435 188.28287 122.391643 188.012078 
C 122.12085 187.741286 121.753526 187.589135 121.370567 187.589135 
C 120.987609 187.589135 120.620284 187.741286 120.349492 188.012078 
C 120.0787 188.28287 119.926549 188.650195 119.926549 189.033153 
C 119.926549 189.416112 120.0787 189.783436 120.349492 190.054229 
C 120.620284 190.325021 120.987609 190.477172 121.370567 190.477172 
z
" clip-path="url(#pa72fc43cac)" style="fill: #9ec3e3; stroke: #444444; stroke-width: 0.3; stroke-linejoin: miter"/>
   </g>
   <g id="patch_14">
    <path d="M 130.447256 190.477172 
C 130.830214 190.477172 131.197539 190.325021 131.468331 190.054229 
C 131.739124 189.783436 131.891274 189.416112 131.891274 189.033153 
C 131.891274 188.650195 131.739124 188.28287 131.468331 188.012078 
C 131.197539 187.741286 130.830214 187.589135 130.447256 187.589135 
C 130.064298 187.589135 129.696973 187.741286 129.42618 188.012078 
C 129.155388 188.28287 129.003237 188.650195 129.003237 189.033153 
C 129.003237 189.416112 129.155388 189.783436 129.42618 190.054229 
C 129.696973 190.325021 130.064298 190.477172 130.447256 190.477172 
z
" clip-path="url(#pa72fc43cac)" style="fill: #9ec3e3; stroke: #444444; stroke-width: 0.3; stroke-linejoin: miter"/>
   </g>
   <g id="patch_15">
    <path d="M 139.523944 190.477172 
C 139.906902 190.477172 140.274227 190.325021 140.54502 190.054229 
C 140.815812 189.783436 140.967963 189.416112 140.967963 189.033153 
C 140.967963 188.650195 140.815812 188.28287 140.54502 188.012078 
C 140.274227 187.741286 139.906902 187.589135 139.523944 187.589135 
C 139.140986 187.589135 138.773661 187.741286 138.502869 188.012078 
C 138.232076 188.28287 138.079926 188.650195 138.079926 189.033153 
C 138.079926 189.416112 138.232076 189.783436 138.502869 190.054229 
C 138.773661 190.325021 139.140986 190.477172 139.523944 190.477172 
z
" clip-path="url(#pa72fc43cac)" style="fill: #9ec3e3; stroke: #444444; stroke-width: 0.3; stroke-linejoin: miter"/>
   </g>
   <g id="patch_16">
    <path d="M 148.600633 190.477172 
C 148.983591 190.477172 149.350916 190.325021 149.621708 190.054229 
C 149.8925 189.783436 150.044651 189.416112 150.044651 189.033153 
C 150.044651 188.650195 149.8925 188.28287 149.621708 188.012078 
C 149.350916 187.741286 148.983591 187.589135 148.600633 187.589135 
C 148.217674 187.589135 147.85035 187.741286 147.579557 188.012078 
C 147.308765 188.28287 147.156614 188.650195 147.156614 189.033153 
C 147.156614 189.416112 147.308765 189.783436 147.579557 190.054229 
C 147.85035 190.325021 148.217674 190.477172 148.600633 190.477172 
z
" clip-path="url(#pa72fc43cac)" style="fill: #9ec3e3; stroke: #444444; stroke-width: 0.3; stroke-linejoin: miter"/>
   </g>
   <g id="patch_17">
    <path d="M 157.677321 190.477172 
C 158.060279 190.477172 158.427604 190.325021 158.698396 190.054229 
C 158.969189 189.783436 159.12134 189.416112 159.12134 189.033153 
C 159.12134 188.650195 158.969189 188.28287 158.698396 188.012078 
C 158.427604 187.741286 158.060279 187.589135 157.677321 187.589135 
C 157.294363 187.589135 156.927038 187.741286 156.656246 188.012078 
C 156.385453 188.28287 156.233302 188.650195 156.233302 189.033153 
C 156.233302 189.416112 156.385453 189.783436 156.656246 190.054229 
C 156.927038 190.325021 157.294363 190.477172 157.677321 190.477172 
z
" clip-path="url(#pa72fc43cac)" style="fill: #9ec3e3; stroke: #444444; stroke-width: 0.3; stroke-linejoin: miter"/>
   </g>
   <g id="patch_18">
    <path d="M 166.754009 190.477172 
C 167.136968 190.477172 167.504292 190.325021 167.775085 190.054229 
C 168.045877 189.783436 168.198028 189.416112 168.198028 189.033153 
C 168.198028 188.650195 168.045877 188.28287 167.775085 188.012078 
C 167.504292 187.741286 167.136968 187.589135 166.754009 187.589135 
C 166.371051 187.589135 166.003726 187.741286 165.732934 188.012078 
C 165.462142 188.28287 165.309991 188.650195 165.309991 189.033153 
C 165.309991 189.416112 165.462142 189.783436 165.732934 190.054229 
C 166.003726 190.325021 166.371051 190.477172 166.754009 190.477172 
z
" clip-path="url(#pa72fc43cac)" style="fill: #9ec3e3; stroke: #444444; stroke-width: 0.3; stroke-linejoin: miter"/>
   </g>
   <g id="patch_19">
    <path d="M 175.830698 190.477172 
C 176.213656 190.477172 176.580981 190.325021 176.851773 190.054229 
C 177.122565 189.783436 177.274716 189.416112 177.274716 189.033153 
C 177.274716 188.650195 177.122565 188.28287 176.851773 188.012078 
C 176.580981 187.741286 176.213656 187.589135 175.830698 187.589135 
C 175.447739 187.589135 175.080415 187.741286 174.809622 188.012078 
C 174.53883 188.28287 174.386679 188.650195 174.386679 189.033153 
C 174.386679 189.416112 174.53883 189.783436 174.809622 190.054229 
C 175.080415 190.325021 175.447739 190.477172 175.830698 190.477172 
z
" clip-path="url(#pa72fc43cac)" style="fill: #9ec3e3; stroke: #444444; stroke-width: 0.3; stroke-linejoin: miter"/>
   </g>
   <g id="patch_20">
    <path d="M 184.907386 190.477172 
C 185.290344 190.477172 185.657669 190.325021 185.928461 190.054229 
C 186.199254 189.783436 186.351405 189.416112 186.351405 189.033153 
C 186.351405 188.650195 186.199254 188.28287 185.928461 188.012078 
C 185.657669 187.741286 185.290344 187.589135 184.907386 187.589135 
C 184.524428 187.589135 184.157103 187.741286 183.886311 188.012078 
C 183.615518 188.28287 183.463367 188.650195 183.463367 189.033153 
C 183.463367 189.416112 183.615518 189.783436 183.886311 190.054229 
C 184.157103 190.325021 184.524428 190.477172 184.907386 190.477172 
z
" clip-path="url(#pa72fc43cac)" style="fill: #9ec3e3; stroke: #444444; stroke-width: 0.3; stroke-linejoin: miter"/>
   </g>
   <g id="patch_21">
    <path d="M 193.984074 190.477172 
C 194.367033 190.477172 194.734357 190.325021 195.00515 190.054229 
C 195.275942 189.783436 195.428093 189.416112 195.428093 189.033153 
C 195.428093 188.650195 195.275942 188.28287 195.00515 188.012078 
C 194.734357 187.741286 194.367033 187.589135 193.984074 187.589135 
C 193.601116 187.589135 193.233791 187.741286 192.962999 188.012078 
C 192.692207 188.28287 192.540056 188.650195 192.540056 189.033153 
C 192.540056 189.416112 192.692207 189.783436 192.962999 190.054229 
C 193.233791 190.325021 193.601116 190.477172 193.984074 190.477172 
z
" clip-path="url(#pa72fc43cac)" style="fill: #9ec3e3; stroke: #444444; stroke-width: 0.3; stroke-linejoin: miter"/>
   </g>
   <g id="patch_22">
    <path d="M 203.060763 190.477172 
C 203.443721 190.477172 203.811046 190.325021 204.081838 190.054229 
C 204.35263 189.783436 204.504781 189.416112 204.504781 189.033153 
C 204.504781 188.650195 204.35263 188.28287 204.081838 188.012078 
C 203.811046 187.741286 203.443721 187.589135 203.060763 187.589135 
C 202.677805 187.589135 202.31048 187.741286 202.039687 188.012078 
C 201.768895 188.28287 201.616744 188.650195 201.616744 189.033153 
C 201.616744 189.416112 201.768895 189.783436 202.039687 190.054229 
C 202.31048 190.325021 202.677805 190.477172 203.060763 190.477172 
z
" clip-path="url(#pa72fc43cac)" style="fill: #9ec3e3; stroke: #444444; stroke-width: 0.3; stroke-linejoin: miter"/>
   </g>
   <g id="patch_23">
    <path d="M 212.137451 190.477172 
C 212.520409 190.477172 212.887734 190.325021 213.158527 190.054229 
C 213.429319 189.783436 213.58147 189.416112 213.58147 189.033153 
C 213.58147 188.650195 213.429319 188.28287 213.158527 188.012078 
C 212.887734 187.741286 212.520409 187.589135 212.137451 187.589135 
C 211.754493 187.589135 211.387168 187.741286 211.116376 188.012078 
C 210.845583 188.28287 210.693433 188.650195 210.693433 189.033153 
C 210.693433 189.416112 210.845583 189.783436 211.116376 190.054229 
C 211.387168 190.325021 211.754493 190.477172 212.137451 190.477172 
z
" clip-path="url(#pa72fc43cac)" style="fill: #9ec3e3; stroke: #444444; stroke-width: 0.3; stroke-linejoin: miter"/>
   </g>
   <g id="patch_24">
    <path d="M 221.21414 190.477172 
C 221.597098 190.477172 221.964423 190.325021 222.235215 190.054229 
C 222.506007 189.783436 222.658158 189.416112 222.658158 189.033153 
C 222.658158 188.650195 222.506007 188.28287 222.235215 188.012078 
C 221.964423 187.741286 221.597098 187.589135 221.21414 187.589135 
C 220.831181 187.589135 220.463857 187.741286 220.193064 188.012078 
C 219.922272 188.28287 219.770121 188.650195 219.770121 189.033153 
C 219.770121 189.416112 219.922272 189.783436 220.193064 190.054229 
C 220.463857 190.325021 220.831181 190.477172 221.21414 190.477172 
z
" clip-path="url(#pa72fc43cac)" style="fill: #9ec3e3; stroke: #444444; stroke-width: 0.3; stroke-linejoin: miter"/>
   </g>
   <g id="patch_25">
    <path d="M 230.290828 190.477172 
C 230.673786 190.477172 231.041111 190.325021 231.311903 190.054229 
C 231.582696 189.783436 231.734847 189.416112 231.734847 189.033153 
C 231.734847 188.650195 231.582696 188.28287 231.311903 188.012078 
C 231.041111 187.741286 230.673786 187.589135 230.290828 187.589135 
C 229.90787 187.589135 229.540545 187.741286 229.269753 188.012078 
C 228.99896 188.28287 228.846809 188.650195 228.846809 189.033153 
C 228.846809 189.416112 228.99896 189.783436 229.269753 190.054229 
C 229.540545 190.325021 229.90787 190.477172 230.290828 190.477172 
z
" clip-path="url(#pa72fc43cac)" style="fill: #9ec3e3; stroke: #444444; stroke-width: 0.3; stroke-linejoin: miter"/>
   </g>
   <g id="patch_26">
    <path d="M 239.367516 190.477172 
C 239.750474 190.477172 240.117799 190.325021 240.388592 190.054229 
C 240.659384 189.783436 240.811535 189.416112 240.811535 189.033153 
C 240.811535 188.650195 240.659384 188.28287 240.388592 188.012078 
C 240.117799 187.741286 239.750474 187.589135 239.367516 187.589135 
C 238.984558 187.589135 238.617233 187.741286 238.346441 188.012078 
C 238.075649 188.28287 237.923498 188.650195 237.923498 189.033153 
C 237.923498 189.416112 238.075649 189.783436 238.346441 190.054229 
C 238.617233 190.325021 238.984558 190.477172 239.367516 190.477172 
z
" clip-path="url(#pa72fc43cac)" style="fill: #9ec3e3; stroke: #444444; stroke-width: 0.3; stroke-linejoin: miter"/>
   </g>
   <g id="patch_27">
    <path d="M 248.444205 190.477172 
C 248.827163 190.477172 249.194488 190.325021 249.46528 190.054229 
C 249.736072 189.783436 249.888223 189.416112 249.888223 189.033153 
C 249.888223 188.650195 249.736072 188.28287 249.46528 188.012078 
C 249.194488 187.741286 248.827163 187.589135 248.444205 187.589135 
C 248.061246 187.589135 247.693922 187.741286 247.423129 188.012078 
C 247.152337 188.28287 247.000186 188.650195 247.000186 189.033153 
C 247.000186 189.416112 247.152337 189.783436 247.423129 190.054229 
C 247.693922 190.325021 248.061246 190.477172 248.444205 190.477172 
z
" clip-path="url(#pa72fc43cac)" style="fill: #9ec3e3; stroke: #444444; stroke-width: 0.3; stroke-linejoin: miter"/>
   </g>
   <g id="patch_28">
    <path d="M 257.520893 190.477172 
C 257.903851 190.477172 258.271176 190.325021 258.541968 190.054229 
C 258.812761 189.783436 258.964912 189.416112 258.964912 189.033153 
C 258.964912 188.650195 258.812761 188.28287 258.541968 188.012078 
C 258.271176 187.741286 257.903851 187.589135 257.520893 187.589135 
C 257.137935 187.589135 256.77061 187.741286 256.499818 188.012078 
C 256.229025 188.28287 256.076874 188.650195 256.076874 189.033153 
C 256.076874 189.416112 256.229025 189.783436 256.499818 190.054229 
C 256.77061 190.325021 257.137935 190.477172 257.520893 190.477172 
z
" clip-path="url(#pa72fc43cac)" style="fill: #9ec3e3; stroke: #444444; stroke-width: 0.3; stroke-linejoin: miter"/>
   </g>
   <g id="patch_29">
    <path d="M 266.597581 190.477172 
C 266.98054 190.477172 267.347864 190.325021 267.618657 190.054229 
C 267.889449 189.783436 268.0416 189.416112 268.0416 189.033153 
C 268.0416 188.650195 267.889449 188.28287 267.618657 188.012078 
C 267.347864 187.741286 266.98054 187.589135 266.597581 187.589135 
C 266.214623 187.589135 265.847298 187.741286 265.576506 188.012078 
C 265.305714 188.28287 265.153563 188.650195 265.153563 189.033153 
C 265.153563 189.416112 265.305714 189.783436 265.576506 190.054229 
C 265.847298 190.325021 266.214623 190.477172 266.597581 190.477172 
z
" clip-path="url(#pa72fc43cac)" style="fill: #9ec3e3; stroke: #444444; stroke-width: 0.3; stroke-linejoin: miter"/>
   </g>
   <g id="patch_30">
    <path d="M 275.67427 190.477172 
C 276.057228 190.477172 276.424553 190.325021 276.695345 190.054229 
C 276.966137 189.783436 277.118288 189.416112 277.118288 189.033153 
C 277.118288 188.650195 276.966137 188.28287 276.695345 188.012078 
C 276.424553 187.741286 276.057228 187.589135 275.67427 187.589135 
C 275.291312 187.589135 274.923987 187.741286 274.653194 188.012078 
C 274.382402 188.28287 274.230251 188.650195 274.230251 189.033153 
C 274.230251 189.416112 274.382402 189.783436 274.653194 190.054229 
C 274.923987 190.325021 275.291312 190.477172 275.67427 190.477172 
z
" clip-path="url(#pa72fc43cac)" style="fill: #9ec3e3; stroke: #444444; stroke-width: 0.3; stroke-linejoin: miter"/>
   </g>
   <g id="patch_31">
    <path d="M 284.750958 190.477172 
C 285.133916 190.477172 285.501241 190.325021 285.772033 190.054229 
C 286.042826 189.783436 286.194977 189.416112 286.194977 189.033153 
C 286.194977 188.650195 286.042826 188.28287 285.772033 188.012078 
C 285.501241 187.741286 285.133916 187.589135 284.750958 187.589135 
C 284.368 187.589135 284.000675 187.741286 283.729883 188.012078 
C 283.45909 188.28287 283.30694 188.650195 283.30694 189.033153 
C 283.30694 189.416112 283.45909 189.783436 283.729883 190.054229 
C 284.000675 190.325021 284.368 190.477172 284.750958 190.477172 
z
" clip-path="url(#pa72fc43cac)" style="fill: #9ec3e3; stroke: #444444; stroke-width: 0.3; stroke-linejoin: miter"/>
   </g>
   <g id="patch_32">
    <path d="M 293.827647 190.477172 
C 294.210605 190.477172 294.57793 190.325021 294.848722 190.054229 
C 295.119514 189.783436 295.271665 189.416112 295.271665 189.033153 
C 295.271665 188.650195 295.119514 188.28287 294.848722 188.012078 
C 294.57793 187.741286 294.210605 187.589135 293.827647 187.589135 
C 293.444688 187.589135 293.077364 187.741286 292.806571 188.012078 
C 292.535779 188.28287 292.383628 188.650195 292.383628 189.033153 
C 292.383628 189.416112 292.535779 189.783436 292.806571 190.054229 
C 293.077364 190.325021 293.444688 190.477172 293.827647 190.477172 
z
" clip-path="url(#pa72fc43cac)" style="fill: #9ec3e3; stroke: #444444; stroke-width: 0.3; stroke-linejoin: miter"/>
   </g>
   <g id="patch_33">
    <path d="M 302.904335 190.477172 
C 303.287293 190.477172 303.654618 190.325021 303.92541 190.054229 
C 304.196203 189.783436 304.348353 189.416112 304.348353 189.033153 
C 304.348353 188.650195 304.196203 188.28287 303.92541 188.012078 
C 303.654618 187.741286 303.287293 187.589135 302.904335 187.589135 
C 302.521377 187.589135 302.154052 187.741286 301.88326 188.012078 
C 301.612467 188.28287 301.460316 188.650195 301.460316 189.033153 
C 301.460316 189.416112 301.612467 189.783436 301.88326 190.054229 
C 302.154052 190.325021 302.521377 190.477172 302.904335 190.477172 
z
" clip-path="url(#pa72fc43cac)" style="fill: #9ec3e3; stroke: #444444; stroke-width: 0.3; stroke-linejoin: miter"/>
   </g>
   <g id="patch_34">
    <path d="M 311.981023 190.477172 
C 312.363981 190.477172 312.731306 190.325021 313.002099 190.054229 
C 313.272891 189.783436 313.425042 189.416112 313.425042 189.033153 
C 313.425042 188.650195 313.272891 188.28287 313.002099 188.012078 
C 312.731306 187.741286 312.363981 187.589135 311.981023 187.589135 
C 311.598065 187.589135 311.23074 187.741286 310.959948 188.012078 
C 310.689156 188.28287 310.537005 188.650195 310.537005 189.033153 
C 310.537005 189.416112 310.689156 189.783436 310.959948 190.054229 
C 311.23074 190.325021 311.598065 190.477172 311.981023 190.477172 
z
" clip-path="url(#pa72fc43cac)" style="fill: #9ec3e3; stroke: #444444; stroke-width: 0.3; stroke-linejoin: miter"/>
   </g>
   <g id="patch_35">
    <path d="M 321.057712 190.477172 
C 321.44067 190.477172 321.807995 190.325021 322.078787 190.054229 
C 322.349579 189.783436 322.50173 189.416112 322.50173 189.033153 
C 322.50173 188.650195 322.349579 188.28287 322.078787 188.012078 
C 321.807995 187.741286 321.44067 187.589135 321.057712 187.589135 
C 320.674753 187.589135 320.307429 187.741286 320.036636 188.012078 
C 319.765844 188.28287 319.613693 188.650195 319.613693 189.033153 
C 319.613693 189.416112 319.765844 189.783436 320.036636 190.054229 
C 320.307429 190.325021 320.674753 190.477172 321.057712 190.477172 
z
" clip-path="url(#pa72fc43cac)" style="fill: #9ec3e3; stroke: #444444; stroke-width: 0.3; stroke-linejoin: miter"/>
   </g>
   <g id="patch_36">
    <path d="M 330.1344 190.477172 
C 330.517358 190.477172 330.884683 190.325021 331.155475 190.054229 
C 331.426268 189.783436 331.578419 189.416112 331.578419 189.033153 
C 331.578419 188.650195 331.426268 188.28287 331.155475 188.012078 
C 330.884683 187.741286 330.517358 187.589135 330.1344 187.589135 
C 329.751442 187.589135 329.384117 187.741286 329.113325 188.012078 
C 328.842532 188.28287 328.690381 188.650195 328.690381 189.033153 
C 328.690381 189.416112 328.842532 189.783436 329.113325 190.054229 
C 329.384117 190.325021 329.751442 190.477172 330.1344 190.477172 
z
" clip-path="url(#pa72fc43cac)" style="fill: #9ec3e3; stroke: #444444; stroke-width: 0.3; stroke-linejoin: miter"/>
   </g>
   <g id="patch_37">
    <path d="M 339.211088 190.477172 
C 339.594047 190.477172 339.961371 190.325021 340.232164 190.054229 
C 340.502956 189.783436 340.655107 189.416112 340.655107 189.033153 
C 340.655107 188.650195 340.502956 188.28287 340.232164 188.012078 
C 339.961371 187.741286 339.594047 187.589135 339.211088 187.589135 
C 338.82813 187.589135 338.460805 187.741286 338.190013 188.012078 
C 337.919221 188.28287 337.76707 188.650195 337.76707 189.033153 
C 337.76707 189.416112 337.919221 189.783436 338.190013 190.054229 
C 338.460805 190.325021 338.82813 190.477172 339.211088 190.477172 
z
" clip-path="url(#pa72fc43cac)" style="fill: #9ec3e3; stroke: #444444; stroke-width: 0.3; stroke-linejoin: miter"/>
   </g>
   <g id="patch_38">
    <path d="M 348.287777 190.477172 
C 348.670735 190.477172 349.03806 190.325021 349.308852 190.054229 
C 349.579644 189.783436 349.731795 189.416112 349.731795 189.033153 
C 349.731795 188.650195 349.579644 188.28287 349.308852 188.012078 
C 349.03806 187.741286 348.670735 187.589135 348.287777 187.589135 
C 347.904819 187.589135 347.537494 187.741286 347.266701 188.012078 
C 346.995909 188.28287 346.843758 188.650195 346.843758 189.033153 
C 346.843758 189.416112 346.995909 189.783436 347.266701 190.054229 
C 347.537494 190.325021 347.904819 190.477172 348.287777 190.477172 
z
" clip-path="url(#pa72fc43cac)" style="fill: #9ec3e3; stroke: #444444; stroke-width: 0.3; stroke-linejoin: miter"/>
   </g>
   <g id="patch_39">
    <path d="M 357.364465 190.477172 
C 357.747423 190.477172 358.114748 190.325021 358.38554 190.054229 
C 358.656333 189.783436 358.808484 189.416112 358.808484 189.033153 
C 358.808484 188.650195 358.656333 188.28287 358.38554 188.012078 
C 358.114748 187.741286 357.747423 187.589135 357.364465 187.589135 
C 356.981507 187.589135 356.614182 187.741286 356.34339 188.012078 
C 356.072597 188.28287 355.920447 188.650195 355.920447 189.033153 
C 355.920447 189.416112 356.072597 189.783436 356.34339 190.054229 
C 356.614182 190.325021 356.981507 190.477172 357.364465 190.477172 
z
" clip-path="url(#pa72fc43cac)" style="fill: #9ec3e3; stroke: #444444; stroke-width: 0.3; stroke-linejoin: miter"/>
   </g>
   <g id="patch_40">
    <path d="M 366.441153 190.477172 
C 366.824112 190.477172 367.191436 190.325021 367.462229 190.054229 
C 367.733021 189.783436 367.885172 189.416112 367.885172 189.033153 
C 367.885172 188.650195 367.733021 188.28287 367.462229 188.012078 
C 367.191436 187.741286 366.824112 187.589135 366.441153 187.589135 
C 366.058195 187.589135 365.69087 187.741286 365.420078 188.012078 
C 365.149286 188.28287 364.997135 188.650195 364.997135 189.033153 
C 364.997135 189.416112 365.149286 189.783436 365.420078 190.054229 
C 365.69087 190.325021 366.058195 190.477172 366.441153 190.477172 
z
" clip-path="url(#pa72fc43cac)" style="fill: #9ec3e3; stroke: #444444; stroke-width: 0.3; stroke-linejoin: miter"/>
   </g>
   <g id="patch_41">
    <path d="M 375.517842 190.477172 
C 375.9008 190.477172 376.268125 190.325021 376.538917 190.054229 
C 376.80971 189.783436 376.96186 189.416112 376.96186 189.033153 
C 376.96186 188.650195 376.80971 188.28287 376.538917 188.012078 
C 376.268125 187.741286 375.9008 187.589135 375.517842 187.589135 
C 375.134884 187.589135 374.767559 187.741286 374.496767 188.012078 
C 374.225974 188.28287 374.073823 188.650195 374.073823 189.033153 
C 374.073823 189.416112 374.225974 189.783436 374.496767 190.054229 
C 374.767559 190.325021 375.134884 190.477172 375.517842 190.477172 
z
" clip-path="url(#pa72fc43cac)" style="fill: #9ec3e3; stroke: #444444; stroke-width: 0.3; stroke-linejoin: miter"/>
   </g>
   <g id="patch_42">
    <path d="M 384.59453 190.477172 
C 384.977488 190.477172 385.344813 190.325021 385.615606 190.054229 
C 385.886398 189.783436 386.038549 189.416112 386.038549 189.033153 
C 386.038549 188.650195 385.886398 188.28287 385.615606 188.012078 
C 385.344813 187.741286 384.977488 187.589135 384.59453 187.589135 
C 384.211572 187.589135 383.844247 187.741286 383.573455 188.012078 
C 383.302663 188.28287 383.150512 188.650195 383.150512 189.033153 
C 383.150512 189.416112 383.302663 189.783436 383.573455 190.054229 
C 383.844247 190.325021 384.211572 190.477172 384.59453 190.477172 
z
" clip-path="url(#pa72fc43cac)" style="fill: #9ec3e3; stroke: #444444; stroke-width: 0.3; stroke-linejoin: miter"/>
   </g>
   <g id="patch_43">
    <path d="M 393.671219 190.477172 
C 394.054177 190.477172 394.421502 190.325021 394.692294 190.054229 
C 394.963086 189.783436 395.115237 189.416112 395.115237 189.033153 
C 395.115237 188.650195 394.963086 188.28287 394.692294 188.012078 
C 394.421502 187.741286 394.054177 187.589135 393.671219 187.589135 
C 393.28826 187.589135 392.920936 187.741286 392.650143 188.012078 
C 392.379351 188.28287 392.2272 188.650195 392.2272 189.033153 
C 392.2272 189.416112 392.379351 189.783436 392.650143 190.054229 
C 392.920936 190.325021 393.28826 190.477172 393.671219 190.477172 
z
" clip-path="url(#pa72fc43cac)" style="fill: #9ec3e3; stroke: #444444; stroke-width: 0.3; stroke-linejoin: miter"/>
   </g>
   <g id="text_3">
    <text style="font-style: italic; font-size: 6.5px; font-family: 'Liberation Sans', 'Arial', 'DejaVu Sans', sans-serif; text-anchor: middle; fill: #234d2c" x="74.749395" y="120.957991" transform="rotate(-0 74.749395 120.957991)">synthase</text>
   </g>
   <g id="text_4">
    <text style="font-weight: 700; font-size: 7.5px; font-family: 'Liberation Sans', 'Arial', 'DejaVu Sans', sans-serif; text-anchor: middle; fill: #a35400" x="210.899721" y="133.819528" transform="rotate(-0 210.899721 133.819528)">AbaR (LuxR-type receptor)</text>
   </g>
   <g id="text_5">
    <text style="font-style: italic; font-size: 6.5px; font-family: 'Liberation Sans', 'Arial', 'DejaVu Sans', sans-serif; text-anchor: start; fill: #d62828" x="229.465674" y="77.667985" transform="rotate(-0 229.465674 77.667985)">(brake)</text>
   </g>
   <g id="text_6">
    <text style="font-style: italic; font-size: 6px; font-family: 'Liberation Sans', 'Arial', 'DejaVu Sans', sans-serif; text-anchor: start; fill: #333333" x="87.126698" y="68.560744" transform="rotate(-0 87.126698 68.560744)">activates</text>
   </g>
   <g id="text_7">
    <text style="font-style: italic; font-size: 5.8px; font-family: 'Liberation Sans', 'Arial', 'DejaVu Sans', sans-serif; fill: #555555" transform="translate(339.054073 117.32222)">nutritional /</text>
    <text style="font-style: italic; font-size: 5.8px; font-family: 'Liberation Sans', 'Arial', 'DejaVu Sans', sans-serif; fill: #555555" transform="translate(331.316057 123.569545)">stringent sensing</text>
   </g>
   <g id="line2d_2">
    <path d="M 39.680372 173.767814 
L 394.496372 173.767814 
" clip-path="url(#pa72fc43cac)" style="fill: none; stroke-dasharray: 4.2,2.1; stroke-dashoffset: 0; stroke: #222222; stroke-width: 1.4"/>
   </g>
   <g id="text_8">
    <text style="font-style: italic; font-size: 6px; font-family: 'Liberation Sans', 'Arial', 'DejaVu Sans', sans-serif; text-anchor: start; fill: #333333" x="116.00707" y="151.076093" transform="rotate(-0 116.00707 151.076093)">binds lux-box</text>
   </g>
   <g id="text_9">
    <text style="font-weight: 700; font-size: 7.5px; font-family: 'Liberation Sans', 'Arial', 'DejaVu Sans', sans-serif; text-anchor: middle; fill: #2e5c8a" x="204.71107" y="250.919665" transform="rotate(-0 204.71107 250.919665)">3-OH-C12-HSL (AHL)</text>
   </g>
   <g id="text_10">
    <text style="font-style: italic; font-size: 6.8px; font-family: 'Liberation Sans', 'Arial', 'DejaVu Sans', sans-serif; text-anchor: middle; fill: #4a235a" x="157.264744" y="260.40893" transform="rotate(-0 157.264744 260.40893)">Lactonases (MomL, AaL, AidA) + acylase (PvdQ) — cleave AHL</text>
   </g>
   <g id="text_11">
    <text style="font-style: italic; font-size: 8px; font-family: 'Liberation Sans', 'Arial', 'DejaVu Sans', sans-serif; text-anchor: start; fill: #555555" x="37.617488" y="56.183442" transform="rotate(-0 37.617488 56.183442)">Cytoplasm</text>
   </g>
   <g id="text_12">
    <text style="font-style: italic; font-size: 8px; font-family: 'Liberation Sans', 'Arial', 'DejaVu Sans', sans-serif; text-anchor: start; fill: #3a6a91" x="37.617488" y="206.773953" transform="rotate(-0 37.617488 206.773953)">Extracellular space</text>
   </g>
   <g id="text_13">
    <text style="font-size: 5.8px; font-family: 'Liberation Sans', 'Arial', 'DejaVu Sans', sans-serif; fill: #444444" transform="translate(35.554605 94.756519)">SAM +</text>
    <text style="font-size: 5.8px; font-family: 'Liberation Sans', 'Arial', 'DejaVu Sans', sans-serif; fill: #444444" transform="translate(35.554605 101.003844)">3-OH-C12-</text>
    <text style="font-size: 5.8px; font-family: 'Liberation Sans', 'Arial', 'DejaVu Sans', sans-serif; fill: #444444" transform="translate(35.554605 107.251169)">ACP</text>
   </g>
   <g id="patch_44">
    <path d="M 56.123006 95.378233 
Q 58.248245 95.378233 59.59086 95.378233 
" clip-path="url(#pa72fc43cac)" style="fill: none; stroke: #000000; stroke-width: 0.7; stroke-linecap: round"/>
    <path d="M 56.79086 93.978233 
L 59.59086 95.378233 
L 56.79086 96.778233 
z
" clip-path="url(#pa72fc43cac)" style="stroke: #000000; stroke-width: 0.7; stroke-linecap: round"/>
   </g>
   <g id="patch_45">
    <path d="M 108.738869 65.295192 
Q 97.924189 81.363546 79.777936 78.555028 
" clip-path="url(#pa72fc43cac)" style="fill: none; stroke: #000000; stroke-width: 0.9; stroke-linecap: round"/>
    <path d="M 82.695564 80.625643 
L 79.777936 78.555028 
L 83.185005 77.463295 
z
" clip-path="url(#pa72fc43cac)" style="stroke: #000000; stroke-width: 0.9; stroke-linecap: round"/>
   </g>
   <g id="patch_46">
    <path d="M 353.238698 79.635146 
Q 353.238698 84.444024 353.238698 88.246672 
" clip-path="url(#pa72fc43cac)" style="fill: none; stroke: #000000; stroke-width: 0.9; stroke-linecap: round"/>
    <path d="M 354.838698 85.046672 
L 353.238698 88.246672 
L 351.638698 85.046672 
z
" clip-path="url(#pa72fc43cac)" style="stroke: #000000; stroke-width: 0.9; stroke-linecap: round"/>
   </g>
   <g id="patch_47">
    <path d="M 54.120558 179.131312 
L 76.812279 179.131312 
L 76.812279 168.404316 
L 54.120558 168.404316 
z
" clip-path="url(#pa72fc43cac)" style="fill: #ffe599; stroke: #000000; stroke-width: 0.7; stroke-linejoin: miter"/>
   </g>
   <g id="patch_48">
    <path d="M 78.875163 179.131312 
L 99.504 179.131312 
L 99.504 168.404316 
L 78.875163 168.404316 
z
" clip-path="url(#pa72fc43cac)" style="fill: #3a8a4d; stroke: #000000; stroke-width: 0.7; stroke-linejoin: miter"/>
   </g>
   <g id="patch_49">
    <path d="M 149.013209 179.956465 
L 184.082233 179.956465 
L 184.082233 167.579163 
L 149.013209 167.579163 
z
" clip-path="url(#pa72fc43cac)" style="fill: #e6e6e6; stroke: #000000; stroke-width: 0.6; stroke-linejoin: miter"/>
   </g>
   <g id="patch_50">
    <path d="M 196.459535 179.956465 
L 231.528558 179.956465 
L 231.528558 167.579163 
L 196.459535 167.579163 
z
" clip-path="url(#pa72fc43cac)" style="fill: #e6e6e6; stroke: #000000; stroke-width: 0.6; stroke-linejoin: miter"/>
   </g>
   <g id="patch_51">
    <path d="M 243.90586 179.956465 
L 278.974884 179.956465 
L 278.974884 167.579163 
L 243.90586 167.579163 
z
" clip-path="url(#pa72fc43cac)" style="fill: #e6e6e6; stroke: #000000; stroke-width: 0.6; stroke-linejoin: miter"/>
   </g>
   <g id="patch_52">
    <path d="M 291.352186 179.956465 
L 326.421209 179.956465 
L 326.421209 167.579163 
L 291.352186 167.579163 
z
" clip-path="url(#pa72fc43cac)" style="fill: #e6e6e6; stroke: #000000; stroke-width: 0.6; stroke-linejoin: miter"/>
   </g>
   <g id="patch_53">
    <path d="M 338.798512 179.956465 
L 373.867535 179.956465 
L 373.867535 167.579163 
L 338.798512 167.579163 
z
" clip-path="url(#pa72fc43cac)" style="fill: #e6e6e6; stroke: #000000; stroke-width: 0.6; stroke-linejoin: miter"/>
   </g>
   <g id="text_14">
    <text style="font-style: italic; font-size: 6px; font-family: 'Liberation Sans', 'Arial', 'DejaVu Sans', sans-serif; fill: #444444" transform="translate(333.982108 144.613343)">downstream: biofilm,</text>
    <text style="font-style: italic; font-size: 6px; font-family: 'Liberation Sans', 'Arial', 'DejaVu Sans', sans-serif; fill: #444444" transform="translate(329.868826 151.076093)">motility, virulence, efflux</text>
   </g>
   <g id="patch_54">
    <path d="M 193.016187 121.583536 
Q 142.72552 173.864416 71.553263 166.655418 
" clip-path="url(#pa72fc43cac)" style="fill: none; stroke: #000000; stroke-width: 0.9; stroke-linecap: round"/>
    <path d="M 74.575735 168.569749 
L 71.553263 166.655418 
L 74.898211 165.386039 
z
" clip-path="url(#pa72fc43cac)" style="stroke: #000000; stroke-width: 0.9; stroke-linecap: round"/>
   </g>
   <g id="patch_55">
    <path d="M 246.215298 122.116905 
Q 249.73852 147.847453 268.452674 164.369937 
" clip-path="url(#pa72fc43cac)" style="fill: none; stroke: #000000; stroke-width: 0.9; stroke-linecap: round"/>
    <path d="M 267.112783 161.052605 
L 268.452674 164.369937 
L 264.994874 163.45145 
z
" clip-path="url(#pa72fc43cac)" style="stroke: #000000; stroke-width: 0.9; stroke-linecap: round"/>
   </g>
   <g id="patch_56">
    <path d="M 74.905774 115.938009 
Q 78.875162 166.547715 82.757131 216.04281 
" clip-path="url(#pa72fc43cac)" style="fill: none; stroke: #2e5c8a; stroke-linecap: round"/>
    <path d="M 84.10202 212.727501 
L 82.757131 216.04281 
L 80.911817 212.977713 
z
" clip-path="url(#pa72fc43cac)" style="fill: #2e5c8a; stroke: #2e5c8a; stroke-linecap: round"/>
   </g>
   <g id="patch_57">
    <path d="M 107.755535 208.897273 
Q 107.755535 194.396462 107.755535 179.895651 
" clip-path="url(#pa72fc43cac)" style="fill: none; stroke-dasharray: 1.6,1.2; stroke-dashoffset: 0; stroke: #2e5c8a; stroke-width: 0.8; stroke-linecap: round"/>
   </g>
   <g id="patch_58">
    <path d="M 190.270884 208.897273 
Q 190.270884 194.396462 190.270884 179.895651 
" clip-path="url(#pa72fc43cac)" style="fill: none; stroke-dasharray: 1.6,1.2; stroke-dashoffset: 0; stroke: #2e5c8a; stroke-width: 0.8; stroke-linecap: round"/>
   </g>
   <g id="patch_59">
    <path d="M 289.289302 208.897273 
Q 289.289302 194.396462 289.289302 179.895651 
" clip-path="url(#pa72fc43cac)" style="fill: none; stroke-dasharray: 1.6,1.2; stroke-dashoffset: 0; stroke: #2e5c8a; stroke-width: 0.8; stroke-linecap: round"/>
   </g>
   <g id="patch_60">
    <path d="M 190.79108 169.769962 
Q 198.010139 141.661204 185.449214 116.619491 
" clip-path="url(#pa72fc43cac)" style="fill: none; stroke-dasharray: 1.8,1.35; stroke-dashoffset: 0; stroke: #2e5c8a; stroke-width: 0.9; stroke-linecap: round"/>
    <path d="M 185.453791 120.197196 
L 185.449214 116.619491 
L 188.314125 118.762453 
z
" clip-path="url(#pa72fc43cac)" style="fill: #2e5c8a; stroke-dasharray: 1.8,1.35; stroke-dashoffset: 0; stroke: #2e5c8a; stroke-width: 0.9; stroke-linecap: round"/>
   </g>
   <g id="patch_61">
    <path d="M 77.337317 268.791208 
Q 81.969707 251.744016 86.36755 235.55995 
" clip-path="url(#pa72fc43cac)" style="fill: none; stroke: #7b2cbf; stroke-width: 0.8; stroke-linecap: round"/>
    <path d="M 84.282299 237.894844 
L 86.36755 235.55995 
L 86.984315 238.629087 
z
" clip-path="url(#pa72fc43cac)" style="fill: #7b2cbf; stroke: #7b2cbf; stroke-width: 0.8; stroke-linecap: round"/>
   </g>
   <g id="patch_62">
    <path d="M 137.29189 268.834118 
Q 141.792754 255.87163 146.000235 243.754083 
" clip-path="url(#pa72fc43cac)" style="fill: none; stroke: #7b2cbf; stroke-width: 0.8; stroke-linecap: round"/>
    <path d="M 143.75926 245.939953 
L 146.000235 243.754083 
L 146.404346 246.858386 
z
" clip-path="url(#pa72fc43cac)" style="fill: #7b2cbf; stroke: #7b2cbf; stroke-width: 0.8; stroke-linecap: round"/>
   </g>
   <g id="patch_63">
    <path d="M 196.826684 268.759102 
Q 200.58529 248.650561 204.179559 229.421221 
" clip-path="url(#pa72fc43cac)" style="fill: none; stroke: #7b2cbf; stroke-width: 0.8; stroke-linecap: round"/>
    <path d="M 202.288938 231.916327 
L 204.179559 229.421221 
L 205.04127 232.430781 
z
" clip-path="url(#pa72fc43cac)" style="fill: #7b2cbf; stroke: #7b2cbf; stroke-width: 0.8; stroke-linecap: round"/>
   </g>
   <g id="patch_64">
    <path d="M 318.169674 268.72634 
Q 318.169674 251.744961 318.169674 235.658008 
" clip-path="url(#pa72fc43cac)" style="fill: none; stroke: #7b2cbf; stroke-width: 0.8; stroke-linecap: round"/>
    <path d="M 316.769674 238.458008 
L 318.169674 235.658008 
L 319.569674 238.458008 
z
" clip-path="url(#pa72fc43cac)" style="fill: #7b2cbf; stroke: #7b2cbf; stroke-width: 0.8; stroke-linecap: round"/>
   </g>
   <g id="patch_65">
    <path d="M 74.749395 78.050009 
L 58.269276 90.023517 
L 64.564121 109.39706 
L 84.934669 109.39706 
L 91.229515 90.023517 
z
" clip-path="url(#pa72fc43cac)" style="fill: #3a8a4d; stroke: #000000; stroke-width: 0.9; stroke-linejoin: miter"/>
   </g>
   <g id="patch_66">
    <path d="M 169.642047 120.132837 
L 210.899721 120.132837 
L 210.899721 89.189581 
L 169.642047 89.189581 
z
" clip-path="url(#pa72fc43cac)" style="fill: #e89c2a; stroke: #000000; stroke-width: 0.9; stroke-linejoin: miter"/>
   </g>
   <g id="patch_67">
    <path d="M 210.899721 120.132837 
L 252.157395 120.132837 
L 252.157395 89.189581 
L 210.899721 89.189581 
z
" clip-path="url(#pa72fc43cac)" style="fill: #f1b966; stroke: #000000; stroke-width: 0.9; stroke-linejoin: miter"/>
   </g>
   <g id="patch_68">
    <path d="M 124.258605 63.609823 
C 130.276519 63.609823 136.048766 62.827333 140.304074 61.434687 
C 144.559383 60.04204 146.950326 58.152941 146.950326 56.183442 
C 146.950326 54.213942 144.559383 52.324844 140.304074 50.932197 
C 136.048766 49.539551 130.276519 48.75706 124.258605 48.75706 
C 118.24069 48.75706 112.468443 49.539551 108.213135 50.932197 
C 103.957827 52.324844 101.566884 54.213942 101.566884 56.183442 
C 101.566884 58.152941 103.957827 60.04204 108.213135 61.434687 
C 112.468443 62.827333 118.24069 63.609823 124.258605 63.609823 
z
" clip-path="url(#pa72fc43cac)" style="fill: #5a3a9c; stroke: #000000; stroke-width: 0.9; stroke-linejoin: miter"/>
   </g>
   <g id="patch_69">
    <path d="M 334.672744 75.987126 
L 371.804651 75.987126 
L 371.804651 61.134363 
L 334.672744 61.134363 
z
" clip-path="url(#pa72fc43cac)" style="fill: #888888; stroke: #000000; stroke-width: 0.8; stroke-linejoin: miter"/>
   </g>
   <g id="patch_70">
    <path d="M 353.238698 107.342958 
C 354.989364 107.342958 356.668563 106.647411 357.906471 105.409503 
C 359.144379 104.171595 359.839926 102.492396 359.839926 100.74173 
C 359.839926 98.991064 359.144379 97.311865 357.906471 96.073957 
C 356.668563 94.836049 354.989364 94.140502 353.238698 94.140502 
C 351.488032 94.140502 349.808833 94.836049 348.570925 96.073957 
C 347.333017 97.311865 346.63747 98.991064 346.63747 100.74173 
C 346.63747 102.492396 347.333017 104.171595 348.570925 105.409503 
C 349.808833 106.647411 351.488032 107.342958 353.238698 107.342958 
z
" clip-path="url(#pa72fc43cac)" style="fill: #a04020; stroke: #000000; stroke-width: 0.8; stroke-linejoin: miter"/>
   </g>
   <g id="text_15">
    <text style="font-weight: 700; font-size: 6.5px; font-family: 'Liberation Sans', 'Arial', 'DejaVu Sans', sans-serif; text-anchor: middle" x="65.466419" y="175.448673" transform="rotate(-0 65.466419 175.448673)">lux-box</text>
   </g>
   <g id="text_16">
    <text style="font-style: italic; font-weight: 700; font-size: 6.5px; font-family: 'Liberation Sans', 'Arial', 'DejaVu Sans', sans-serif; text-anchor: middle; fill: #ffffff" x="89.189581" y="175.448673" transform="rotate(-0 89.189581 175.448673)">abaI</text>
   </g>
   <g id="text_17">
    <text style="font-style: italic; font-weight: 700; font-size: 6.5px; font-family: 'Liberation Sans', 'Arial', 'DejaVu Sans', sans-serif; text-anchor: middle" x="166.547721" y="175.448673" transform="rotate(-0 166.547721 175.448673)">csu</text>
   </g>
   <g id="text_18">
    <text style="font-style: italic; font-weight: 700; font-size: 6.5px; font-family: 'Liberation Sans', 'Arial', 'DejaVu Sans', sans-serif; text-anchor: middle" x="213.994047" y="175.448673" transform="rotate(-0 213.994047 175.448673)">bap</text>
   </g>
   <g id="text_19">
    <text style="font-style: italic; font-weight: 700; font-size: 6.5px; font-family: 'Liberation Sans', 'Arial', 'DejaVu Sans', sans-serif; text-anchor: middle" x="261.440372" y="175.448673" transform="rotate(-0 261.440372 175.448673)">pgaABCD</text>
   </g>
   <g id="text_20">
    <text style="font-style: italic; font-weight: 700; font-size: 6.5px; font-family: 'Liberation Sans', 'Arial', 'DejaVu Sans', sans-serif; text-anchor: middle" x="308.886698" y="175.448673" transform="rotate(-0 308.886698 175.448673)">adeFGH</text>
   </g>
   <g id="text_21">
    <text style="font-style: italic; font-weight: 700; font-size: 6.5px; font-family: 'Liberation Sans', 'Arial', 'DejaVu Sans', sans-serif; text-anchor: middle" x="356.333023" y="175.448673" transform="rotate(-0 356.333023 175.448673)">ompA</text>
   </g>
   <g id="patch_71">
    <path d="M 80.52547 225.339907 
L 85.086806 231.618048 
L 92.467203 229.220011 
L 92.467203 221.459803 
L 85.086806 219.061766 
z
" clip-path="url(#pa72fc43cac)" style="fill: #2e5c8a; stroke: #000000; stroke-width: 0.6; stroke-linejoin: miter"/>
   </g>
   <g id="patch_72">
    <path d="M 94.553079 225.339907 
L 98.059981 223.483312 
L 101.566884 227.196502 
L 105.073786 223.483312 
L 108.580688 227.196502 
L 112.087591 223.483312 
L 115.594493 227.196502 
" clip-path="url(#pa72fc43cac)" style="fill: none; stroke: #2e5c8a; stroke-linejoin: miter"/>
   </g>
   <g id="text_22">
    <text style="font-size: 4.5px; font-family: 'Liberation Sans', 'Arial', 'DejaVu Sans', sans-serif; text-anchor: start; fill: #2e5c8a" x="117.2448" y="228.360174" transform="rotate(-0 117.2448 228.360174)">OH</text>
   </g>
   <g id="patch_73">
    <path d="M 140.349098 233.591442 
L 144.910434 239.869583 
L 152.290831 237.471546 
L 152.290831 229.711337 
L 144.910434 227.313301 
z
" clip-path="url(#pa72fc43cac)" style="fill: #2e5c8a; stroke: #000000; stroke-width: 0.6; stroke-linejoin: miter"/>
   </g>
   <g id="patch_74">
    <path d="M 154.376707 233.591442 
L 157.883609 231.734847 
L 161.390512 235.448037 
L 164.897414 231.734847 
L 168.404316 235.448037 
L 171.911219 231.734847 
L 175.418121 235.448037 
" clip-path="url(#pa72fc43cac)" style="fill: none; stroke: #2e5c8a; stroke-linejoin: miter"/>
   </g>
   <g id="text_23">
    <text style="font-size: 4.5px; font-family: 'Liberation Sans', 'Arial', 'DejaVu Sans', sans-serif; text-anchor: start; fill: #2e5c8a" x="177.068428" y="236.611709" transform="rotate(-0 177.068428 236.611709)">OH</text>
   </g>
   <g id="patch_75">
    <path d="M 198.109842 219.151256 
L 202.671178 225.429397 
L 210.051575 223.03136 
L 210.051575 215.271151 
L 202.671178 212.873115 
z
" clip-path="url(#pa72fc43cac)" style="fill: #2e5c8a; stroke: #000000; stroke-width: 0.6; stroke-linejoin: miter"/>
   </g>
   <g id="patch_76">
    <path d="M 212.137451 219.151256 
L 215.644353 217.29466 
L 219.151256 221.007851 
L 222.658158 217.29466 
L 226.16506 221.007851 
L 229.671963 217.29466 
L 233.178865 221.007851 
" clip-path="url(#pa72fc43cac)" style="fill: none; stroke: #2e5c8a; stroke-linejoin: miter"/>
   </g>
   <g id="text_24">
    <text style="font-size: 4.5px; font-family: 'Liberation Sans', 'Arial', 'DejaVu Sans', sans-serif; text-anchor: start; fill: #2e5c8a" x="234.829172" y="222.171523" transform="rotate(-0 234.829172 222.171523)">OH</text>
   </g>
   <g id="patch_77">
    <path d="M 255.870586 231.528558 
L 260.431922 237.806699 
L 267.81232 235.408663 
L 267.81232 227.648454 
L 260.431922 225.250417 
z
" clip-path="url(#pa72fc43cac)" style="fill: #2e5c8a; stroke: #000000; stroke-width: 0.6; stroke-linejoin: miter"/>
   </g>
   <g id="patch_78">
    <path d="M 269.898195 231.528558 
L 273.405098 229.671963 
L 276.912 233.385153 
L 280.418902 229.671963 
L 283.925805 233.385153 
L 287.432707 229.671963 
L 290.939609 233.385153 
" clip-path="url(#pa72fc43cac)" style="fill: none; stroke: #2e5c8a; stroke-linejoin: miter"/>
   </g>
   <g id="text_25">
    <text style="font-size: 4.5px; font-family: 'Liberation Sans', 'Arial', 'DejaVu Sans', sans-serif; text-anchor: start; fill: #2e5c8a" x="292.589916" y="234.548825" transform="rotate(-0 292.589916 234.548825)">OH</text>
   </g>
   <g id="patch_79">
    <path d="M 311.568447 225.339907 
L 316.129783 231.618048 
L 323.51018 229.220011 
L 323.51018 221.459803 
L 316.129783 219.061766 
z
" clip-path="url(#pa72fc43cac)" style="fill: #2e5c8a; stroke: #000000; stroke-width: 0.6; stroke-linejoin: miter"/>
   </g>
   <g id="patch_80">
    <path d="M 325.596056 225.339907 
L 329.102958 223.483312 
L 332.60986 227.196502 
L 336.116763 223.483312 
L 339.623665 227.196502 
L 343.130567 223.483312 
L 346.63747 227.196502 
" clip-path="url(#pa72fc43cac)" style="fill: none; stroke: #2e5c8a; stroke-linejoin: miter"/>
   </g>
   <g id="text_26">
    <text style="font-size: 4.5px; font-family: 'Liberation Sans', 'Arial', 'DejaVu Sans', sans-serif; text-anchor: start; fill: #2e5c8a" x="348.287777" y="228.360174" transform="rotate(-0 348.287777 228.360174)">OH</text>
   </g>
   <g id="text_27">
    <text style="font-style: italic; font-size: 5.8px; font-family: 'Liberation Sans', 'Arial', 'DejaVu Sans', sans-serif; text-anchor: start; fill: #2e5c8a" x="221.21414" y="162.628242" transform="rotate(-0 221.21414 162.628242)">AHL binds AbaR</text>
   </g>
   <g id="patch_81">
    <path d="M 83.133322 273.670899 
C 82.592271 273.0261 81.955729 272.467868 81.245826 272.01561 
C 80.535922 271.563351 79.760978 271.222368 78.947933 271.004513 
C 78.134889 270.786659 77.293276 270.694487 76.452352 270.731202 
C 75.611428 270.767918 74.781051 270.93309 73.990088 271.220977 
C 73.199125 271.508864 72.456849 271.916091 71.789063 272.428501 
C 71.121277 272.940911 70.535811 273.552497 70.053017 274.241998 
C 69.570224 274.931499 69.195762 275.690832 68.94265 276.493599 
C 68.689539 277.296367 68.560744 278.133158 68.560744 278.974884 
C 68.560744 279.816609 68.689539 280.6534 68.94265 281.456168 
C 69.195762 282.258936 69.570224 283.018269 70.053017 283.70777 
C 70.535811 284.397271 71.121277 285.008857 71.789063 285.521266 
C 72.456849 286.033676 73.199125 286.440903 73.990088 286.72879 
C 74.781051 287.016677 75.611428 287.181849 76.452352 287.218565 
C 77.293276 287.255281 78.134889 287.163109 78.947933 286.945254 
C 79.760978 286.7274 80.535922 286.386416 81.245826 285.934158 
C 81.955729 285.481899 82.592271 284.923667 83.133322 284.278868 
L 76.812279 278.974884 
z
" clip-path="url(#pa72fc43cac)" style="fill: #7b2cbf; stroke: #000000; stroke-width: 0.7; stroke-linejoin: miter"/>
   </g>
   <g id="patch_82">
    <path d="M 142.956949 273.670899 
C 142.415899 273.0261 141.779357 272.467868 141.069453 272.01561 
C 140.359549 271.563351 139.584606 271.222368 138.771561 271.004513 
C 137.958517 270.786659 137.116904 270.694487 136.27598 270.731202 
C 135.435056 270.767918 134.604679 270.93309 133.813716 271.220977 
C 133.022753 271.508864 132.280476 271.916091 131.612691 272.428501 
C 130.944905 272.940911 130.359439 273.552497 129.876645 274.241998 
C 129.393851 274.931499 129.01939 275.690832 128.766278 276.493599 
C 128.513167 277.296367 128.384372 278.133158 128.384372 278.974884 
C 128.384372 279.816609 128.513167 280.6534 128.766278 281.456168 
C 129.01939 282.258936 129.393851 283.018269 129.876645 283.70777 
C 130.359439 284.397271 130.944905 285.008857 131.612691 285.521266 
C 132.280476 286.033676 133.022753 286.440903 133.813716 286.72879 
C 134.604679 287.016677 135.435056 287.181849 136.27598 287.218565 
C 137.116904 287.255281 137.958517 287.163109 138.771561 286.945254 
C 139.584606 286.7274 140.359549 286.386416 141.069453 285.934158 
C 141.779357 285.481899 142.415899 284.923667 142.956949 284.278868 
L 136.635907 278.974884 
z
" clip-path="url(#pa72fc43cac)" style="fill: #7b2cbf; stroke: #000000; stroke-width: 0.7; stroke-linejoin: miter"/>
   </g>
   <g id="patch_83">
    <path d="M 202.780577 273.670899 
C 202.239527 273.0261 201.602985 272.467868 200.893081 272.01561 
C 200.183177 271.563351 199.408234 271.222368 198.595189 271.004513 
C 197.782145 270.786659 196.940532 270.694487 196.099608 270.731202 
C 195.258684 270.767918 194.428307 270.93309 193.637344 271.220977 
C 192.846381 271.508864 192.104104 271.916091 191.436319 272.428501 
C 190.768533 272.940911 190.183067 273.552497 189.700273 274.241998 
C 189.217479 274.931499 188.843018 275.690832 188.589906 276.493599 
C 188.336795 277.296367 188.208 278.133158 188.208 278.974884 
C 188.208 279.816609 188.336795 280.6534 188.589906 281.456168 
C 188.843018 282.258936 189.217479 283.018269 189.700273 283.70777 
C 190.183067 284.397271 190.768533 285.008857 191.436319 285.521266 
C 192.104104 286.033676 192.846381 286.440903 193.637344 286.72879 
C 194.428307 287.016677 195.258684 287.181849 196.099608 287.218565 
C 196.940532 287.255281 197.782145 287.163109 198.595189 286.945254 
C 199.408234 286.7274 200.183177 286.386416 200.893081 285.934158 
C 201.602985 285.481899 202.239527 284.923667 202.780577 284.278868 
L 196.459535 278.974884 
z
" clip-path="url(#pa72fc43cac)" style="fill: #7b2cbf; stroke: #000000; stroke-width: 0.7; stroke-linejoin: miter"/>
   </g>
   <g id="patch_84">
    <path d="M 324.490717 273.670899 
C 323.949666 273.0261 323.313125 272.467868 322.603221 272.01561 
C 321.893317 271.563351 321.118373 271.222368 320.305329 271.004513 
C 319.492285 270.786659 318.650672 270.694487 317.809748 270.731202 
C 316.968823 270.767918 316.138446 270.93309 315.347483 271.220977 
C 314.55652 271.508864 313.814244 271.916091 313.146458 272.428501 
C 312.478673 272.940911 311.893207 273.552497 311.410413 274.241998 
C 310.927619 274.931499 310.553157 275.690832 310.300046 276.493599 
C 310.046934 277.296367 309.91814 278.133158 309.91814 278.974884 
C 309.91814 279.816609 310.046934 280.6534 310.300046 281.456168 
C 310.553157 282.258936 310.927619 283.018269 311.410413 283.70777 
C 311.893207 284.397271 312.478673 285.008857 313.146458 285.521266 
C 313.814244 286.033676 314.55652 286.440903 315.347483 286.72879 
C 316.138446 287.016677 316.968823 287.181849 317.809748 287.218565 
C 318.650672 287.255281 319.492285 287.163109 320.305329 286.945254 
C 321.118373 286.7274 321.893317 286.386416 322.603221 285.934158 
C 323.313125 285.481899 323.949666 284.923667 324.490717 284.278868 
L 318.169674 278.974884 
z
" clip-path="url(#pa72fc43cac)" style="fill: #7b2cbf; stroke: #000000; stroke-width: 0.7; stroke-linejoin: miter"/>
   </g>
   <g id="legend_1">
    <g id="patch_85">
     <path d="M 25.457372 372.72064 
L 32.497372 372.72064 
L 32.497372 368.24064 
L 25.457372 368.24064 
z
" style="fill: #3a8a4d; stroke: #3a8a4d; stroke-linejoin: miter"/>
    </g>
    <g id="text_28">
     <text style="font-size: 6.4px; font-family: 'Liberation Sans', 'Arial', 'DejaVu Sans', sans-serif; text-anchor: start" x="34.737372" y="372.72064" transform="rotate(-0 34.737372 372.72064)">AbaI (synthase)</text>
    </g>
    <g id="patch_86">
     <path d="M 84.676372 372.72064 
L 91.716372 372.72064 
L 91.716372 368.24064 
L 84.676372 368.24064 
z
" style="fill: #e89c2a; stroke: #e89c2a; stroke-linejoin: miter"/>
    </g>
    <g id="text_29">
     <text style="font-size: 6.4px; font-family: 'Liberation Sans', 'Arial', 'DejaVu Sans', sans-serif; text-anchor: start" x="93.956372" y="372.72064" transform="rotate(-0 93.956372 372.72064)">AbaR (receptor)</text>
    </g>
    <g id="patch_87">
     <path d="M 144.601372 372.72064 
L 151.641372 372.72064 
L 151.641372 368.24064 
L 144.601372 368.24064 
z
" style="fill: #d62828; stroke: #d62828; stroke-linejoin: miter"/>
    </g>
    <g id="text_30">
     <text style="font-size: 6.4px; font-family: 'Liberation Sans', 'Arial', 'DejaVu Sans', sans-serif; text-anchor: start" x="153.881372" y="372.72064" transform="rotate(-0 153.881372 372.72064)">AbaM (brake)</text>
    </g>
    <g id="patch_88">
     <path d="M 197.767372 372.72064 
L 204.807372 372.72064 
L 204.807372 368.24064 
L 197.767372 368.24064 
z
" style="fill: #2e5c8a; stroke: #2e5c8a; stroke-linejoin: miter"/>
    </g>
    <g id="text_31">
     <text style="font-size: 6.4px; font-family: 'Liberation Sans', 'Arial', 'DejaVu Sans', sans-serif; text-anchor: start" x="207.047372" y="372.72064" transform="rotate(-0 207.047372 372.72064)">AHL signal</text>
    </g>
    <g id="patch_89">
     <path d="M 242.876372 372.72064 
L 249.916372 372.72064 
L 249.916372 368.24064 
L 242.876372 368.24064 
z
" style="fill: #7b2cbf; stroke: #7b2cbf; stroke-linejoin: miter"/>
    </g>
    <g id="text_32">
     <text style="font-size: 6.4px; font-family: 'Liberation Sans', 'Arial', 'DejaVu Sans', sans-serif; text-anchor: start" x="252.156372" y="372.72064" transform="rotate(-0 252.156372 372.72064)">QQ enzymes</text>
    </g>
    <g id="line2d_3">
     <path d="M 294.618372 370.48064 
L 298.138372 370.48064 
L 301.658372 370.48064 
" style="fill: none; stroke: #000000; stroke-linecap: square"/>
     <defs>
      <path id="m4d74313762" d="M 2.5 0 
L -2.5 -2.5 
L -2.5 2.5 
z
" style="stroke: #000000; stroke-linejoin: miter"/>
     </defs>
     <g>
      <use xlink:href="#m4d74313762" x="298.138372" y="370.48064" style="stroke: #000000; stroke-linejoin: miter"/>
     </g>
    </g>
    <g id="text_33">
     <text style="font-size: 6.4px; font-family: 'Liberation Sans', 'Arial', 'DejaVu Sans', sans-serif; text-anchor: start" x="303.898372" y="372.72064" transform="rotate(-0 303.898372 372.72064)">activation</text>
    </g>
    <g id="line2d_4">
     <path d="M 336.054372 370.48064 
L 339.574372 370.48064 
L 343.094372 370.48064 
" style="fill: none; stroke: #d62828; stroke-width: 1.4; stroke-linecap: square"/>
     <defs>
      <path id="mcc3aa5944b" d="M 4 0 
L -4 -0 
" style="stroke: #d62828"/>
     </defs>
     <g>
      <use xlink:href="#mcc3aa5944b" x="339.574372" y="370.48064" style="fill: #d62828; stroke: #d62828"/>
     </g>
    </g>
    <g id="text_34">
     <text style="font-size: 6.4px; font-family: 'Liberation Sans', 'Arial', 'DejaVu Sans', sans-serif; text-anchor: start" x="345.334372" y="372.72064" transform="rotate(-0 345.334372 372.72064)">inhibition</text>
    </g>
    <g id="line2d_5">
     <path d="M 375.715372 370.48064 
L 379.235372 370.48064 
L 382.755372 370.48064 
" style="fill: none; stroke-dasharray: 1.8,1.35; stroke-dashoffset: 0; stroke: #2e5c8a; stroke-width: 0.9"/>
    </g>
    <g id="text_35">
     <text style="font-size: 6.4px; font-family: 'Liberation Sans', 'Arial', 'DejaVu Sans', sans-serif; text-anchor: start" x="384.995372" y="372.72064" transform="rotate(-0 384.995372 372.72064)">diffusion</text>
    </g>
   </g>
   <g id="text_36">
    <text style="font-weight: 700; font-size: 8px; font-family: 'Liberation Sans', 'Arial', 'DejaVu Sans', sans-serif; text-anchor: middle; fill: #ffffff" x="74.749395" y="97.446983" transform="rotate(-0 74.749395 97.446983)">AbaI</text>
   </g>
   <g id="line2d_6">
    <path d="M 210.899721 118.069953 
L 210.899721 91.252465 
" clip-path="url(#pa72fc43cac)" style="fill: none; stroke: #000000; stroke-width: 0.6; stroke-linecap: square"/>
   </g>
   <g id="text_37">
    <text style="font-size: 6.5px; font-family: 'Liberation Sans', 'Arial', 'DejaVu Sans', sans-serif" transform="translate(176.722446 102.841412)">AHL-bind</text>
    <text style="font-size: 6.5px; font-family: 'Liberation Sans', 'Arial', 'DejaVu Sans', sans-serif" transform="translate(185.759477 109.842725)">(N)</text>
   </g>
   <g id="text_38">
    <text style="font-size: 6.5px; font-family: 'Liberation Sans', 'Arial', 'DejaVu Sans', sans-serif" transform="translate(216.905082 102.841412)">HTH-DNA</text>
    <text style="font-size: 6.5px; font-family: 'Liberation Sans', 'Arial', 'DejaVu Sans', sans-serif" transform="translate(227.017152 109.842725)">(C)</text>
   </g>
   <g id="patch_90">
    <path d="M 198.522419 67.735591 
L 223.277023 67.735591 
L 210.899721 85.063814 
z
" clip-path="url(#pa72fc43cac)" style="fill: #d62828; stroke: #000000; stroke-width: 0.8; stroke-linejoin: miter"/>
   </g>
   <g id="patch_91">
    <path d="M 210.899721 87.065456 
Q 210.899721 87.714942 210.899721 88.364428 
" clip-path="url(#pa72fc43cac)" style="fill: none; stroke: #d62828; stroke-width: 1.4; stroke-linecap: round"/>
    <path d="M 217.899721 85.665456 
L 217.899721 87.065456 
L 203.899721 87.065456 
L 203.899721 85.665456 
" clip-path="url(#pa72fc43cac)" style="fill: none; stroke: #d62828; stroke-width: 1.4; stroke-linecap: round"/>
   </g>
   <g id="text_39">
    <text style="font-weight: 700; font-size: 6.8px; font-family: 'Liberation Sans', 'Arial', 'DejaVu Sans', sans-serif; text-anchor: middle; fill: #ffffff" x="124.258605" y="57.941879" transform="rotate(-0 124.258605 57.941879)">ABUW_1132</text>
   </g>
   <g id="text_40">
    <text style="font-style: italic; font-size: 6px; font-family: 'Liberation Sans', 'Arial', 'DejaVu Sans', sans-serif; text-anchor: start; fill: #2e1a55" x="153.96413" y="57.735004" transform="rotate(-0 153.96413 57.735004)">LysR-type</text>
   </g>
   <g id="text_41">
    <text style="font-weight: 700; font-size: 7.5px; font-family: 'Liberation Sans', 'Arial', 'DejaVu Sans', sans-serif; text-anchor: middle; fill: #ffffff" x="353.238698" y="70.500197" transform="rotate(-0 353.238698 70.500197)">RelA</text>
   </g>
   <g id="text_42">
    <text style="font-weight: 700; font-size: 5.5px; font-family: 'Liberation Sans', 'Arial', 'DejaVu Sans', sans-serif; text-anchor: middle; fill: #ffffff" x="353.238698" y="102.163996" transform="rotate(-0 353.238698 102.163996)">(p)ppGpp</text>
   </g>
   <g id="text_43">
    <text style="font-weight: 700; font-size: 5px; font-family: 'Liberation Sans', 'Arial', 'DejaVu Sans', sans-serif; text-anchor: middle; fill: #ffffff" x="87.126698" y="226.632876" transform="rotate(-0 87.126698 226.632876)">O</text>
   </g>
   <g id="text_44">
    <text style="font-weight: 700; font-size: 5px; font-family: 'Liberation Sans', 'Arial', 'DejaVu Sans', sans-serif; text-anchor: middle; fill: #ffffff" x="146.950326" y="234.884411" transform="rotate(-0 146.950326 234.884411)">O</text>
   </g>
   <g id="text_45">
    <text style="font-weight: 700; font-size: 5px; font-family: 'Liberation Sans', 'Arial', 'DejaVu Sans', sans-serif; text-anchor: middle; fill: #ffffff" x="204.71107" y="220.444225" transform="rotate(-0 204.71107 220.444225)">O</text>
   </g>
   <g id="text_46">
    <text style="font-weight: 700; font-size: 5px; font-family: 'Liberation Sans', 'Arial', 'DejaVu Sans', sans-serif; text-anchor: middle; fill: #ffffff" x="262.471814" y="232.821527" transform="rotate(-0 262.471814 232.821527)">O</text>
   </g>
   <g id="text_47">
    <text style="font-weight: 700; font-size: 5px; font-family: 'Liberation Sans', 'Arial', 'DejaVu Sans', sans-serif; text-anchor: middle; fill: #ffffff" x="318.169674" y="226.632876" transform="rotate(-0 318.169674 226.632876)">O</text>
   </g>
   <g id="text_48">
    <text style="font-weight: 700; font-size: 6.5px; font-family: 'Liberation Sans', 'Arial', 'DejaVu Sans', sans-serif; text-anchor: middle; fill: #7b2cbf" x="76.812279" y="298.125539" transform="rotate(-0 76.812279 298.125539)">MomL</text>
   </g>
   <g id="text_49">
    <text style="font-weight: 700; font-size: 6.5px; font-family: 'Liberation Sans', 'Arial', 'DejaVu Sans', sans-serif; text-anchor: middle; fill: #7b2cbf" x="136.635907" y="298.125539" transform="rotate(-0 136.635907 298.125539)">AaL</text>
   </g>
   <g id="text_50">
    <text style="font-weight: 700; font-size: 6.5px; font-family: 'Liberation Sans', 'Arial', 'DejaVu Sans', sans-serif; text-anchor: middle; fill: #7b2cbf" x="196.459535" y="298.125539" transform="rotate(-0 196.459535 298.125539)">AidA</text>
   </g>
   <g id="text_51">
    <text style="font-weight: 700; font-size: 6.5px; font-family: 'Liberation Sans', 'Arial', 'DejaVu Sans', sans-serif; text-anchor: middle; fill: #7b2cbf" x="318.169674" y="298.125539" transform="rotate(-0 318.169674 298.125539)">PvdQ</text>
   </g>
   <g id="text_52">
    <text style="font-weight: 700; font-size: 6.8px; font-family: 'Liberation Sans', 'Arial', 'DejaVu Sans', sans-serif; text-anchor: middle; fill: #ffffff" x="210.899721" y="76.095256" transform="rotate(-0 210.899721 76.095256)">AbaM</text>
   </g>
   <g id="text_53">
    <text style="font-weight: 700; font-size: 6.5px; font-family: 'Liberation Sans', 'Arial', 'DejaVu Sans', sans-serif; text-anchor: start; fill: #222222" x="31.428837" y="358.220171" transform="rotate(-0 31.428837 358.220171)">QS cycle:</text>
   </g>
   <g id="patch_92">
    <path d="M 74.749395 360.665079 
C 75.843562 360.665079 76.893061 360.230362 77.666753 359.45667 
C 78.440446 358.682977 78.875163 357.633478 78.875163 356.539312 
C 78.875163 355.445145 78.440446 354.395646 77.666753 353.621953 
C 76.893061 352.848261 75.843562 352.413544 74.749395 352.413544 
C 73.655229 352.413544 72.60573 352.848261 71.832037 353.621953 
C 71.058345 354.395646 70.623628 355.445145 70.623628 356.539312 
C 70.623628 357.633478 71.058345 358.682977 71.832037 359.45667 
C 72.60573 360.230362 73.655229 360.665079 74.749395 360.665079 
z
" clip-path="url(#pa72fc43cac)" style="fill: #333333; stroke: #000000; stroke-width: 0.5; stroke-linejoin: miter"/>
   </g>
   <g id="text_54">
    <text style="font-size: 6px; font-family: 'Liberation Sans', 'Arial', 'DejaVu Sans', sans-serif; text-anchor: start; fill: #222222" x="80.112893" y="358.090874" transform="rotate(-0 80.112893 358.090874)">Synthesis</text>
   </g>
   <g id="patch_93">
    <path d="M 130.447256 360.665079 
C 131.541422 360.665079 132.590922 360.230362 133.364614 359.45667 
C 134.138306 358.682977 134.573023 357.633478 134.573023 356.539312 
C 134.573023 355.445145 134.138306 354.395646 133.364614 353.621953 
C 132.590922 352.848261 131.541422 352.413544 130.447256 352.413544 
C 129.353089 352.413544 128.30359 352.848261 127.529898 353.621953 
C 126.756205 354.395646 126.321488 355.445145 126.321488 356.539312 
C 126.321488 357.633478 126.756205 358.682977 127.529898 359.45667 
C 128.30359 360.230362 129.353089 360.665079 130.447256 360.665079 
z
" clip-path="url(#pa72fc43cac)" style="fill: #333333; stroke: #000000; stroke-width: 0.5; stroke-linejoin: miter"/>
   </g>
   <g id="text_55">
    <text style="font-size: 6px; font-family: 'Liberation Sans', 'Arial', 'DejaVu Sans', sans-serif; text-anchor: start; fill: #222222" x="135.810753" y="358.090874" transform="rotate(-0 135.810753 358.090874)">Diffusion</text>
   </g>
   <g id="patch_94">
    <path d="M 186.145116 360.665079 
C 187.239283 360.665079 188.288782 360.230362 189.062474 359.45667 
C 189.836167 358.682977 190.270884 357.633478 190.270884 356.539312 
C 190.270884 355.445145 189.836167 354.395646 189.062474 353.621953 
C 188.288782 352.848261 187.239283 352.413544 186.145116 352.413544 
C 185.05095 352.413544 184.001451 352.848261 183.227758 353.621953 
C 182.454066 354.395646 182.019349 355.445145 182.019349 356.539312 
C 182.019349 357.633478 182.454066 358.682977 183.227758 359.45667 
C 184.001451 360.230362 185.05095 360.665079 186.145116 360.665079 
z
" clip-path="url(#pa72fc43cac)" style="fill: #333333; stroke: #000000; stroke-width: 0.5; stroke-linejoin: miter"/>
   </g>
   <g id="text_56">
    <text style="font-size: 6px; font-family: 'Liberation Sans', 'Arial', 'DejaVu Sans', sans-serif; text-anchor: start; fill: #222222" x="191.508614" y="358.090874" transform="rotate(-0 191.508614 358.090874)">Accumulation</text>
   </g>
   <g id="patch_95">
    <path d="M 241.842977 360.665079 
C 242.937143 360.665079 243.986642 360.230362 244.760335 359.45667 
C 245.534027 358.682977 245.968744 357.633478 245.968744 356.539312 
C 245.968744 355.445145 245.534027 354.395646 244.760335 353.621953 
C 243.986642 352.848261 242.937143 352.413544 241.842977 352.413544 
C 240.74881 352.413544 239.699311 352.848261 238.925619 353.621953 
C 238.151926 354.395646 237.717209 355.445145 237.717209 356.539312 
C 237.717209 357.633478 238.151926 358.682977 238.925619 359.45667 
C 239.699311 360.230362 240.74881 360.665079 241.842977 360.665079 
z
" clip-path="url(#pa72fc43cac)" style="fill: #333333; stroke: #000000; stroke-width: 0.5; stroke-linejoin: miter"/>
   </g>
   <g id="text_57">
    <text style="font-size: 6px; font-family: 'Liberation Sans', 'Arial', 'DejaVu Sans', sans-serif; text-anchor: start; fill: #222222" x="247.206474" y="358.090874" transform="rotate(-0 247.206474 358.090874)">Binding</text>
   </g>
   <g id="patch_96">
    <path d="M 297.540837 360.665079 
C 298.635004 360.665079 299.684503 360.230362 300.458195 359.45667 
C 301.231888 358.682977 301.666605 357.633478 301.666605 356.539312 
C 301.666605 355.445145 301.231888 354.395646 300.458195 353.621953 
C 299.684503 352.848261 298.635004 352.413544 297.540837 352.413544 
C 296.446671 352.413544 295.397171 352.848261 294.623479 353.621953 
C 293.849787 354.395646 293.41507 355.445145 293.41507 356.539312 
C 293.41507 357.633478 293.849787 358.682977 294.623479 359.45667 
C 295.397171 360.230362 296.446671 360.665079 297.540837 360.665079 
z
" clip-path="url(#pa72fc43cac)" style="fill: #333333; stroke: #000000; stroke-width: 0.5; stroke-linejoin: miter"/>
   </g>
   <g id="text_58">
    <text style="font-size: 6px; font-family: 'Liberation Sans', 'Arial', 'DejaVu Sans', sans-serif; text-anchor: start; fill: #222222" x="302.904335" y="358.090874" transform="rotate(-0 302.904335 358.090874)">Transcription</text>
   </g>
   <g id="patch_97">
    <path d="M 353.238698 360.665079 
C 354.332864 360.665079 355.382363 360.230362 356.156056 359.45667 
C 356.929748 358.682977 357.364465 357.633478 357.364465 356.539312 
C 357.364465 355.445145 356.929748 354.395646 356.156056 353.621953 
C 355.382363 352.848261 354.332864 352.413544 353.238698 352.413544 
C 352.144531 352.413544 351.095032 352.848261 350.32134 353.621953 
C 349.547647 354.395646 349.11293 355.445145 349.11293 356.539312 
C 349.11293 357.633478 349.547647 358.682977 350.32134 359.45667 
C 351.095032 360.230362 352.144531 360.665079 353.238698 360.665079 
z
" clip-path="url(#pa72fc43cac)" style="fill: #333333; stroke: #000000; stroke-width: 0.5; stroke-linejoin: miter"/>
   </g>
   <g id="text_59">
    <text style="font-size: 6px; font-family: 'Liberation Sans', 'Arial', 'DejaVu Sans', sans-serif; text-anchor: start; fill: #222222" x="358.602195" y="358.090874" transform="rotate(-0 358.602195 358.090874)">Output</text>
   </g>
   <g id="text_60">
    <text style="font-weight: 700; font-size: 6px; font-family: 'Liberation Sans', 'Arial', 'DejaVu Sans', sans-serif; text-anchor: middle; fill: #ffffff" x="74.749395" y="358.090874" transform="rotate(-0 74.749395 358.090874)">1</text>
   </g>
   <g id="text_61">
    <text style="font-weight: 700; font-size: 6px; font-family: 'Liberation Sans', 'Arial', 'DejaVu Sans', sans-serif; text-anchor: middle; fill: #ffffff" x="130.447256" y="358.090874" transform="rotate(-0 130.447256 358.090874)">2</text>
   </g>
   <g id="text_62">
    <text style="font-weight: 700; font-size: 6px; font-family: 'Liberation Sans', 'Arial', 'DejaVu Sans', sans-serif; text-anchor: middle; fill: #ffffff" x="186.145116" y="358.090874" transform="rotate(-0 186.145116 358.090874)">3</text>
   </g>
   <g id="text_63">
    <text style="font-weight: 700; font-size: 6px; font-family: 'Liberation Sans', 'Arial', 'DejaVu Sans', sans-serif; text-anchor: middle; fill: #ffffff" x="241.842977" y="358.090874" transform="rotate(-0 241.842977 358.090874)">4</text>
   </g>
   <g id="text_64">
    <text style="font-weight: 700; font-size: 6px; font-family: 'Liberation Sans', 'Arial', 'DejaVu Sans', sans-serif; text-anchor: middle; fill: #ffffff" x="297.540837" y="358.090874" transform="rotate(-0 297.540837 358.090874)">5</text>
   </g>
   <g id="text_65">
    <text style="font-weight: 700; font-size: 6px; font-family: 'Liberation Sans', 'Arial', 'DejaVu Sans', sans-serif; text-anchor: middle; fill: #ffffff" x="353.238698" y="358.090874" transform="rotate(-0 353.238698 358.090874)">6</text>
   </g>
  </g>
 </g>
 <defs>
  <clipPath id="pa72fc43cac">
   <rect x="10.8" y="10.8" width="412.576744" height="354.816"/>
  </clipPath>
 </defs>
</svg>
