<?xml version="1.0" encoding="utf-8" standalone="no"?>
<!DOCTYPE svg PUBLIC "-//W3C//DTD SVG 1.1//EN"
  "http://www.w3.org/Graphics/SVG/1.1/DTD/svg11.dtd">
<svg xmlns:xlink="http://www.w3.org/1999/xlink" width="448.061538pt" height="364.4456pt" viewBox="0 0 448.061538 364.4456" xmlns="http://www.w3.org/2000/svg" version="1.1">
 <metadata>
  <rdf:RDF xmlns:dc="http://purl.org/dc/elements/1.1/" xmlns:cc="http://creativecommons.org/ns#" xmlns:rdf="http://www.w3.org/1999/02/22-rdf-syntax-ns#">
   <cc:Work>
    <dc:type rdf:resource="http://purl.org/dc/dcmitype/StillImage"/>
    <dc:date>2026-05-17T11:03:57.809392</dc:date>
    <dc:format>image/svg+xml</dc:format>
    <dc:creator>
     <cc:Agent>
      <dc:title>Matplotlib v3.10.9, https://matplotlib.org/</dc:title>
     </cc:Agent>
    </dc:creator>
   </cc:Work>
  </rdf:RDF>
 </metadata>
 <defs>
  <style type="text/css">*{stroke-linejoin: round; stroke-linecap: butt}</style>
 </defs>
 <g id="figure_1">
  <g id="patch_1">
   <path d="M 0 364.4456 
L 448.061538 364.4456 
L 448.061538 0 
L 0 0 
z
" style="fill: #ffffff"/>
  </g>
  <g id="axes_1">
   <g id="patch_2">
    <path d="M 50.460923 195.031385 
L 397.600615 195.031385 
Q 416.791385 195.031385 416.791385 175.840615 
L 416.791385 67.519385 
Q 416.791385 48.328615 397.600615 48.328615 
L 50.460923 48.328615 
Q 31.270154 48.328615 31.270154 67.519385 
L 31.270154 175.840615 
Q 31.270154 195.031385 50.460923 195.031385 
z
" clip-path="url(#pd989c15a82)" style="fill: #fdf6e7; stroke: #444444; stroke-width: 1.4; stroke-linejoin: miter"/>
   </g>
   <g id="patch_3">
    <path d="M 38.946462 316.572923 
L 409.115077 316.572923 
Q 416.791385 316.572923 416.791385 308.896615 
L 416.791385 213.795692 
Q 416.791385 206.119385 409.115077 206.119385 
L 38.946462 206.119385 
Q 31.270154 206.119385 31.270154 213.795692 
L 31.270154 308.896615 
Q 31.270154 316.572923 38.946462 316.572923 
z
" clip-path="url(#pd989c15a82)" style="fill: #eef4fb; stroke: #a9c2da; stroke-width: 0.6; stroke-linejoin: miter"/>
   </g>
   <g id="line2d_1">
    <path d="M 32.123077 195.031385 
L 415.938462 195.031385 
" clip-path="url(#pd989c15a82)" style="fill: none; stroke: #444444; stroke-width: 1.6; stroke-linecap: square"/>
   </g>
   <g id="text_1">
    <text style="font-weight: 700; font-size: 10px; font-family: 'Liberation Sans', 'Arial', 'DejaVu Sans', sans-serif; text-anchor: middle" x="224.030769" y="24.047476" transform="rotate(-0 224.030769 24.047476)">Acinetobacter baumannii cell — schematic</text>
   </g>
   <g id="text_2">
    <text style="font-style: italic; font-size: 9px; font-family: 'Liberation Sans', 'Arial', 'DejaVu Sans', sans-serif; text-anchor: middle; fill: #444444" x="224.030769" y="36.582728" transform="rotate(-0 224.030769 36.582728)">AbaI / AbaR / AbaM quorum-sensing circuit</text>
   </g>
   <g id="patch_4">
    <path d="M 40.652308 196.524 
C 41.048154 196.524 41.427841 196.366729 41.707746 196.086823 
C 41.987652 195.806918 42.144923 195.427231 42.144923 195.031385 
C 42.144923 194.635538 41.987652 194.255852 41.707746 193.975946 
C 41.427841 193.696041 41.048154 193.538769 40.652308 193.538769 
C 40.256461 193.538769 39.876775 193.696041 39.596869 193.975946 
C 39.316964 194.255852 39.159692 194.635538 39.159692 195.031385 
C 39.159692 195.427231 39.316964 195.806918 39.596869 196.086823 
C 39.876775 196.366729 40.256461 196.524 40.652308 196.524 
z
" clip-path="url(#pd989c15a82)" style="fill: #9ec3e3; stroke: #444444; stroke-width: 0.3; stroke-linejoin: miter"/>
   </g>
   <g id="patch_5">
    <path d="M 50.034462 196.524 
C 50.430308 196.524 50.809994 196.366729 51.0899 196.086823 
C 51.369806 195.806918 51.527077 195.427231 51.527077 195.031385 
C 51.527077 194.635538 51.369806 194.255852 51.0899 193.975946 
C 50.809994 193.696041 50.430308 193.538769 50.034462 193.538769 
C 49.638615 193.538769 49.258929 193.696041 48.979023 193.975946 
C 48.699118 194.255852 48.541846 194.635538 48.541846 195.031385 
C 48.541846 195.427231 48.699118 195.806918 48.979023 196.086823 
C 49.258929 196.366729 49.638615 196.524 50.034462 196.524 
z
" clip-path="url(#pd989c15a82)" style="fill: #9ec3e3; stroke: #444444; stroke-width: 0.3; stroke-linejoin: miter"/>
   </g>
   <g id="patch_6">
    <path d="M 59.416615 196.524 
C 59.812462 196.524 60.192148 196.366729 60.472054 196.086823 
C 60.751959 195.806918 60.909231 195.427231 60.909231 195.031385 
C 60.909231 194.635538 60.751959 194.255852 60.472054 193.975946 
C 60.192148 193.696041 59.812462 193.538769 59.416615 193.538769 
C 59.020769 193.538769 58.641082 193.696041 58.361177 193.975946 
C 58.081271 194.255852 57.924 194.635538 57.924 195.031385 
C 57.924 195.427231 58.081271 195.806918 58.361177 196.086823 
C 58.641082 196.366729 59.020769 196.524 59.416615 196.524 
z
" clip-path="url(#pd989c15a82)" style="fill: #9ec3e3; stroke: #444444; stroke-width: 0.3; stroke-linejoin: miter"/>
   </g>
   <g id="patch_7">
    <path d="M 68.798769 196.524 
C 69.194615 196.524 69.574302 196.366729 69.854208 196.086823 
C 70.134113 195.806918 70.291385 195.427231 70.291385 195.031385 
C 70.291385 194.635538 70.134113 194.255852 69.854208 193.975946 
C 69.574302 193.696041 69.194615 193.538769 68.798769 193.538769 
C 68.402923 193.538769 68.023236 193.696041 67.743331 193.975946 
C 67.463425 194.255852 67.306154 194.635538 67.306154 195.031385 
C 67.306154 195.427231 67.463425 195.806918 67.743331 196.086823 
C 68.023236 196.366729 68.402923 196.524 68.798769 196.524 
z
" clip-path="url(#pd989c15a82)" style="fill: #9ec3e3; stroke: #444444; stroke-width: 0.3; stroke-linejoin: miter"/>
   </g>
   <g id="patch_8">
    <path d="M 78.180923 196.524 
C 78.576769 196.524 78.956456 196.366729 79.236362 196.086823 
C 79.516267 195.806918 79.673538 195.427231 79.673538 195.031385 
C 79.673538 194.635538 79.516267 194.255852 79.236362 193.975946 
C 78.956456 193.696041 78.576769 193.538769 78.180923 193.538769 
C 77.785077 193.538769 77.40539 193.696041 77.125485 193.975946 
C 76.845579 194.255852 76.688308 194.635538 76.688308 195.031385 
C 76.688308 195.427231 76.845579 195.806918 77.125485 196.086823 
C 77.40539 196.366729 77.785077 196.524 78.180923 196.524 
z
" clip-path="url(#pd989c15a82)" style="fill: #9ec3e3; stroke: #444444; stroke-width: 0.3; stroke-linejoin: miter"/>
   </g>
   <g id="patch_9">
    <path d="M 87.563077 196.524 
C 87.958923 196.524 88.33861 196.366729 88.618515 196.086823 
C 88.898421 195.806918 89.055692 195.427231 89.055692 195.031385 
C 89.055692 194.635538 88.898421 194.255852 88.618515 193.975946 
C 88.33861 193.696041 87.958923 193.538769 87.563077 193.538769 
C 87.167231 193.538769 86.787544 193.696041 86.507638 193.975946 
C 86.227733 194.255852 86.070462 194.635538 86.070462 195.031385 
C 86.070462 195.427231 86.227733 195.806918 86.507638 196.086823 
C 86.787544 196.366729 87.167231 196.524 87.563077 196.524 
z
" clip-path="url(#pd989c15a82)" style="fill: #9ec3e3; stroke: #444444; stroke-width: 0.3; stroke-linejoin: miter"/>
   </g>
   <g id="patch_10">
    <path d="M 96.945231 196.524 
C 97.341077 196.524 97.720764 196.366729 98.000669 196.086823 
C 98.280575 195.806918 98.437846 195.427231 98.437846 195.031385 
C 98.437846 194.635538 98.280575 194.255852 98.000669 193.975946 
C 97.720764 193.696041 97.341077 193.538769 96.945231 193.538769 
C 96.549385 193.538769 96.169698 193.696041 95.889792 193.975946 
C 95.609887 194.255852 95.452615 194.635538 95.452615 195.031385 
C 95.452615 195.427231 95.609887 195.806918 95.889792 196.086823 
C 96.169698 196.366729 96.549385 196.524 96.945231 196.524 
z
" clip-path="url(#pd989c15a82)" style="fill: #9ec3e3; stroke: #444444; stroke-width: 0.3; stroke-linejoin: miter"/>
   </g>
   <g id="patch_11">
    <path d="M 106.327385 196.524 
C 106.723231 196.524 107.102918 196.366729 107.382823 196.086823 
C 107.662729 195.806918 107.82 195.427231 107.82 195.031385 
C 107.82 194.635538 107.662729 194.255852 107.382823 193.975946 
C 107.102918 193.696041 106.723231 193.538769 106.327385 193.538769 
C 105.931538 193.538769 105.551852 193.696041 105.271946 193.975946 
C 104.992041 194.255852 104.834769 194.635538 104.834769 195.031385 
C 104.834769 195.427231 104.992041 195.806918 105.271946 196.086823 
C 105.551852 196.366729 105.931538 196.524 106.327385 196.524 
z
" clip-path="url(#pd989c15a82)" style="fill: #9ec3e3; stroke: #444444; stroke-width: 0.3; stroke-linejoin: miter"/>
   </g>
   <g id="patch_12">
    <path d="M 115.709538 196.524 
C 116.105385 196.524 116.485071 196.366729 116.764977 196.086823 
C 117.044882 195.806918 117.202154 195.427231 117.202154 195.031385 
C 117.202154 194.635538 117.044882 194.255852 116.764977 193.975946 
C 116.485071 193.696041 116.105385 193.538769 115.709538 193.538769 
C 115.313692 193.538769 114.934006 193.696041 114.6541 193.975946 
C 114.374194 194.255852 114.216923 194.635538 114.216923 195.031385 
C 114.216923 195.427231 114.374194 195.806918 114.6541 196.086823 
C 114.934006 196.366729 115.313692 196.524 115.709538 196.524 
z
" clip-path="url(#pd989c15a82)" style="fill: #9ec3e3; stroke: #444444; stroke-width: 0.3; stroke-linejoin: miter"/>
   </g>
   <g id="patch_13">
    <path d="M 125.091692 196.524 
C 125.487539 196.524 125.867225 196.366729 126.147131 196.086823 
C 126.427036 195.806918 126.584308 195.427231 126.584308 195.031385 
C 126.584308 194.635538 126.427036 194.255852 126.147131 193.975946 
C 125.867225 193.696041 125.487539 193.538769 125.091692 193.538769 
C 124.695846 193.538769 124.316159 193.696041 124.036254 193.975946 
C 123.756348 194.255852 123.599077 194.635538 123.599077 195.031385 
C 123.599077 195.427231 123.756348 195.806918 124.036254 196.086823 
C 124.316159 196.366729 124.695846 196.524 125.091692 196.524 
z
" clip-path="url(#pd989c15a82)" style="fill: #9ec3e3; stroke: #444444; stroke-width: 0.3; stroke-linejoin: miter"/>
   </g>
   <g id="patch_14">
    <path d="M 134.473846 196.524 
C 134.869692 196.524 135.249379 196.366729 135.529285 196.086823 
C 135.80919 195.806918 135.966462 195.427231 135.966462 195.031385 
C 135.966462 194.635538 135.80919 194.255852 135.529285 193.975946 
C 135.249379 193.696041 134.869692 193.538769 134.473846 193.538769 
C 134.078 193.538769 133.698313 193.696041 133.418408 193.975946 
C 133.138502 194.255852 132.981231 194.635538 132.981231 195.031385 
C 132.981231 195.427231 133.138502 195.806918 133.418408 196.086823 
C 133.698313 196.366729 134.078 196.524 134.473846 196.524 
z
" clip-path="url(#pd989c15a82)" style="fill: #9ec3e3; stroke: #444444; stroke-width: 0.3; stroke-linejoin: miter"/>
   </g>
   <g id="patch_15">
    <path d="M 143.856 196.524 
C 144.251846 196.524 144.631533 196.366729 144.911438 196.086823 
C 145.191344 195.806918 145.348615 195.427231 145.348615 195.031385 
C 145.348615 194.635538 145.191344 194.255852 144.911438 193.975946 
C 144.631533 193.696041 144.251846 193.538769 143.856 193.538769 
C 143.460154 193.538769 143.080467 193.696041 142.800562 193.975946 
C 142.520656 194.255852 142.363385 194.635538 142.363385 195.031385 
C 142.363385 195.427231 142.520656 195.806918 142.800562 196.086823 
C 143.080467 196.366729 143.460154 196.524 143.856 196.524 
z
" clip-path="url(#pd989c15a82)" style="fill: #9ec3e3; stroke: #444444; stroke-width: 0.3; stroke-linejoin: miter"/>
   </g>
   <g id="patch_16">
    <path d="M 153.238154 196.524 
C 153.634 196.524 154.013687 196.366729 154.293592 196.086823 
C 154.573498 195.806918 154.730769 195.427231 154.730769 195.031385 
C 154.730769 194.635538 154.573498 194.255852 154.293592 193.975946 
C 154.013687 193.696041 153.634 193.538769 153.238154 193.538769 
C 152.842308 193.538769 152.462621 193.696041 152.182715 193.975946 
C 151.90281 194.255852 151.745538 194.635538 151.745538 195.031385 
C 151.745538 195.427231 151.90281 195.806918 152.182715 196.086823 
C 152.462621 196.366729 152.842308 196.524 153.238154 196.524 
z
" clip-path="url(#pd989c15a82)" style="fill: #9ec3e3; stroke: #444444; stroke-width: 0.3; stroke-linejoin: miter"/>
   </g>
   <g id="patch_17">
    <path d="M 162.620308 196.524 
C 163.016154 196.524 163.395841 196.366729 163.675746 196.086823 
C 163.955652 195.806918 164.112923 195.427231 164.112923 195.031385 
C 164.112923 194.635538 163.955652 194.255852 163.675746 193.975946 
C 163.395841 193.696041 163.016154 193.538769 162.620308 193.538769 
C 162.224461 193.538769 161.844775 193.696041 161.564869 193.975946 
C 161.284964 194.255852 161.127692 194.635538 161.127692 195.031385 
C 161.127692 195.427231 161.284964 195.806918 161.564869 196.086823 
C 161.844775 196.366729 162.224461 196.524 162.620308 196.524 
z
" clip-path="url(#pd989c15a82)" style="fill: #9ec3e3; stroke: #444444; stroke-width: 0.3; stroke-linejoin: miter"/>
   </g>
   <g id="patch_18">
    <path d="M 172.002462 196.524 
C 172.398308 196.524 172.777994 196.366729 173.0579 196.086823 
C 173.337806 195.806918 173.495077 195.427231 173.495077 195.031385 
C 173.495077 194.635538 173.337806 194.255852 173.0579 193.975946 
C 172.777994 193.696041 172.398308 193.538769 172.002462 193.538769 
C 171.606615 193.538769 171.226929 193.696041 170.947023 193.975946 
C 170.667118 194.255852 170.509846 194.635538 170.509846 195.031385 
C 170.509846 195.427231 170.667118 195.806918 170.947023 196.086823 
C 171.226929 196.366729 171.606615 196.524 172.002462 196.524 
z
" clip-path="url(#pd989c15a82)" style="fill: #9ec3e3; stroke: #444444; stroke-width: 0.3; stroke-linejoin: miter"/>
   </g>
   <g id="patch_19">
    <path d="M 181.384615 196.524 
C 181.780462 196.524 182.160148 196.366729 182.440054 196.086823 
C 182.719959 195.806918 182.877231 195.427231 182.877231 195.031385 
C 182.877231 194.635538 182.719959 194.255852 182.440054 193.975946 
C 182.160148 193.696041 181.780462 193.538769 181.384615 193.538769 
C 180.988769 193.538769 180.609082 193.696041 180.329177 193.975946 
C 180.049271 194.255852 179.892 194.635538 179.892 195.031385 
C 179.892 195.427231 180.049271 195.806918 180.329177 196.086823 
C 180.609082 196.366729 180.988769 196.524 181.384615 196.524 
z
" clip-path="url(#pd989c15a82)" style="fill: #9ec3e3; stroke: #444444; stroke-width: 0.3; stroke-linejoin: miter"/>
   </g>
   <g id="patch_20">
    <path d="M 190.766769 196.524 
C 191.162615 196.524 191.542302 196.366729 191.822208 196.086823 
C 192.102113 195.806918 192.259385 195.427231 192.259385 195.031385 
C 192.259385 194.635538 192.102113 194.255852 191.822208 193.975946 
C 191.542302 193.696041 191.162615 193.538769 190.766769 193.538769 
C 190.370923 193.538769 189.991236 193.696041 189.711331 193.975946 
C 189.431425 194.255852 189.274154 194.635538 189.274154 195.031385 
C 189.274154 195.427231 189.431425 195.806918 189.711331 196.086823 
C 189.991236 196.366729 190.370923 196.524 190.766769 196.524 
z
" clip-path="url(#pd989c15a82)" style="fill: #9ec3e3; stroke: #444444; stroke-width: 0.3; stroke-linejoin: miter"/>
   </g>
   <g id="patch_21">
    <path d="M 200.148923 196.524 
C 200.544769 196.524 200.924456 196.366729 201.204362 196.086823 
C 201.484267 195.806918 201.641538 195.427231 201.641538 195.031385 
C 201.641538 194.635538 201.484267 194.255852 201.204362 193.975946 
C 200.924456 193.696041 200.544769 193.538769 200.148923 193.538769 
C 199.753077 193.538769 199.37339 193.696041 199.093485 193.975946 
C 198.813579 194.255852 198.656308 194.635538 198.656308 195.031385 
C 198.656308 195.427231 198.813579 195.806918 199.093485 196.086823 
C 199.37339 196.366729 199.753077 196.524 200.148923 196.524 
z
" clip-path="url(#pd989c15a82)" style="fill: #9ec3e3; stroke: #444444; stroke-width: 0.3; stroke-linejoin: miter"/>
   </g>
   <g id="patch_22">
    <path d="M 209.531077 196.524 
C 209.926923 196.524 210.30661 196.366729 210.586515 196.086823 
C 210.866421 195.806918 211.023692 195.427231 211.023692 195.031385 
C 211.023692 194.635538 210.866421 194.255852 210.586515 193.975946 
C 210.30661 193.696041 209.926923 193.538769 209.531077 193.538769 
C 209.135231 193.538769 208.755544 193.696041 208.475638 193.975946 
C 208.195733 194.255852 208.038462 194.635538 208.038462 195.031385 
C 208.038462 195.427231 208.195733 195.806918 208.475638 196.086823 
C 208.755544 196.366729 209.135231 196.524 209.531077 196.524 
z
" clip-path="url(#pd989c15a82)" style="fill: #9ec3e3; stroke: #444444; stroke-width: 0.3; stroke-linejoin: miter"/>
   </g>
   <g id="patch_23">
    <path d="M 218.913231 196.524 
C 219.309077 196.524 219.688764 196.366729 219.968669 196.086823 
C 220.248575 195.806918 220.405846 195.427231 220.405846 195.031385 
C 220.405846 194.635538 220.248575 194.255852 219.968669 193.975946 
C 219.688764 193.696041 219.309077 193.538769 218.913231 193.538769 
C 218.517385 193.538769 218.137698 193.696041 217.857792 193.975946 
C 217.577887 194.255852 217.420615 194.635538 217.420615 195.031385 
C 217.420615 195.427231 217.577887 195.806918 217.857792 196.086823 
C 218.137698 196.366729 218.517385 196.524 218.913231 196.524 
z
" clip-path="url(#pd989c15a82)" style="fill: #9ec3e3; stroke: #444444; stroke-width: 0.3; stroke-linejoin: miter"/>
   </g>
   <g id="patch_24">
    <path d="M 228.295385 196.524 
C 228.691231 196.524 229.070918 196.366729 229.350823 196.086823 
C 229.630729 195.806918 229.788 195.427231 229.788 195.031385 
C 229.788 194.635538 229.630729 194.255852 229.350823 193.975946 
C 229.070918 193.696041 228.691231 193.538769 228.295385 193.538769 
C 227.899538 193.538769 227.519852 193.696041 227.239946 193.975946 
C 226.960041 194.255852 226.802769 194.635538 226.802769 195.031385 
C 226.802769 195.427231 226.960041 195.806918 227.239946 196.086823 
C 227.519852 196.366729 227.899538 196.524 228.295385 196.524 
z
" clip-path="url(#pd989c15a82)" style="fill: #9ec3e3; stroke: #444444; stroke-width: 0.3; stroke-linejoin: miter"/>
   </g>
   <g id="patch_25">
    <path d="M 237.677538 196.524 
C 238.073385 196.524 238.453071 196.366729 238.732977 196.086823 
C 239.012882 195.806918 239.170154 195.427231 239.170154 195.031385 
C 239.170154 194.635538 239.012882 194.255852 238.732977 193.975946 
C 238.453071 193.696041 238.073385 193.538769 237.677538 193.538769 
C 237.281692 193.538769 236.902006 193.696041 236.6221 193.975946 
C 236.342194 194.255852 236.184923 194.635538 236.184923 195.031385 
C 236.184923 195.427231 236.342194 195.806918 236.6221 196.086823 
C 236.902006 196.366729 237.281692 196.524 237.677538 196.524 
z
" clip-path="url(#pd989c15a82)" style="fill: #9ec3e3; stroke: #444444; stroke-width: 0.3; stroke-linejoin: miter"/>
   </g>
   <g id="patch_26">
    <path d="M 247.059692 196.524 
C 247.455539 196.524 247.835225 196.366729 248.115131 196.086823 
C 248.395036 195.806918 248.552308 195.427231 248.552308 195.031385 
C 248.552308 194.635538 248.395036 194.255852 248.115131 193.975946 
C 247.835225 193.696041 247.455539 193.538769 247.059692 193.538769 
C 246.663846 193.538769 246.284159 193.696041 246.004254 193.975946 
C 245.724348 194.255852 245.567077 194.635538 245.567077 195.031385 
C 245.567077 195.427231 245.724348 195.806918 246.004254 196.086823 
C 246.284159 196.366729 246.663846 196.524 247.059692 196.524 
z
" clip-path="url(#pd989c15a82)" style="fill: #9ec3e3; stroke: #444444; stroke-width: 0.3; stroke-linejoin: miter"/>
   </g>
   <g id="patch_27">
    <path d="M 256.441846 196.524 
C 256.837692 196.524 257.217379 196.366729 257.497285 196.086823 
C 257.77719 195.806918 257.934462 195.427231 257.934462 195.031385 
C 257.934462 194.635538 257.77719 194.255852 257.497285 193.975946 
C 257.217379 193.696041 256.837692 193.538769 256.441846 193.538769 
C 256.046 193.538769 255.666313 193.696041 255.386408 193.975946 
C 255.106502 194.255852 254.949231 194.635538 254.949231 195.031385 
C 254.949231 195.427231 255.106502 195.806918 255.386408 196.086823 
C 255.666313 196.366729 256.046 196.524 256.441846 196.524 
z
" clip-path="url(#pd989c15a82)" style="fill: #9ec3e3; stroke: #444444; stroke-width: 0.3; stroke-linejoin: miter"/>
   </g>
   <g id="patch_28">
    <path d="M 265.824 196.524 
C 266.219846 196.524 266.599533 196.366729 266.879438 196.086823 
C 267.159344 195.806918 267.316615 195.427231 267.316615 195.031385 
C 267.316615 194.635538 267.159344 194.255852 266.879438 193.975946 
C 266.599533 193.696041 266.219846 193.538769 265.824 193.538769 
C 265.428154 193.538769 265.048467 193.696041 264.768562 193.975946 
C 264.488656 194.255852 264.331385 194.635538 264.331385 195.031385 
C 264.331385 195.427231 264.488656 195.806918 264.768562 196.086823 
C 265.048467 196.366729 265.428154 196.524 265.824 196.524 
z
" clip-path="url(#pd989c15a82)" style="fill: #9ec3e3; stroke: #444444; stroke-width: 0.3; stroke-linejoin: miter"/>
   </g>
   <g id="patch_29">
    <path d="M 275.206154 196.524 
C 275.602 196.524 275.981687 196.366729 276.261592 196.086823 
C 276.541498 195.806918 276.698769 195.427231 276.698769 195.031385 
C 276.698769 194.635538 276.541498 194.255852 276.261592 193.975946 
C 275.981687 193.696041 275.602 193.538769 275.206154 193.538769 
C 274.810308 193.538769 274.430621 193.696041 274.150715 193.975946 
C 273.87081 194.255852 273.713538 194.635538 273.713538 195.031385 
C 273.713538 195.427231 273.87081 195.806918 274.150715 196.086823 
C 274.430621 196.366729 274.810308 196.524 275.206154 196.524 
z
" clip-path="url(#pd989c15a82)" style="fill: #9ec3e3; stroke: #444444; stroke-width: 0.3; stroke-linejoin: miter"/>
   </g>
   <g id="patch_30">
    <path d="M 284.588308 196.524 
C 284.984154 196.524 285.363841 196.366729 285.643746 196.086823 
C 285.923652 195.806918 286.080923 195.427231 286.080923 195.031385 
C 286.080923 194.635538 285.923652 194.255852 285.643746 193.975946 
C 285.363841 193.696041 284.984154 193.538769 284.588308 193.538769 
C 284.192461 193.538769 283.812775 193.696041 283.532869 193.975946 
C 283.252964 194.255852 283.095692 194.635538 283.095692 195.031385 
C 283.095692 195.427231 283.252964 195.806918 283.532869 196.086823 
C 283.812775 196.366729 284.192461 196.524 284.588308 196.524 
z
" clip-path="url(#pd989c15a82)" style="fill: #9ec3e3; stroke: #444444; stroke-width: 0.3; stroke-linejoin: miter"/>
   </g>
   <g id="patch_31">
    <path d="M 293.970462 196.524 
C 294.366308 196.524 294.745994 196.366729 295.0259 196.086823 
C 295.305806 195.806918 295.463077 195.427231 295.463077 195.031385 
C 295.463077 194.635538 295.305806 194.255852 295.0259 193.975946 
C 294.745994 193.696041 294.366308 193.538769 293.970462 193.538769 
C 293.574615 193.538769 293.194929 193.696041 292.915023 193.975946 
C 292.635118 194.255852 292.477846 194.635538 292.477846 195.031385 
C 292.477846 195.427231 292.635118 195.806918 292.915023 196.086823 
C 293.194929 196.366729 293.574615 196.524 293.970462 196.524 
z
" clip-path="url(#pd989c15a82)" style="fill: #9ec3e3; stroke: #444444; stroke-width: 0.3; stroke-linejoin: miter"/>
   </g>
   <g id="patch_32">
    <path d="M 303.352615 196.524 
C 303.748462 196.524 304.128148 196.366729 304.408054 196.086823 
C 304.687959 195.806918 304.845231 195.427231 304.845231 195.031385 
C 304.845231 194.635538 304.687959 194.255852 304.408054 193.975946 
C 304.128148 193.696041 303.748462 193.538769 303.352615 193.538769 
C 302.956769 193.538769 302.577082 193.696041 302.297177 193.975946 
C 302.017271 194.255852 301.86 194.635538 301.86 195.031385 
C 301.86 195.427231 302.017271 195.806918 302.297177 196.086823 
C 302.577082 196.366729 302.956769 196.524 303.352615 196.524 
z
" clip-path="url(#pd989c15a82)" style="fill: #9ec3e3; stroke: #444444; stroke-width: 0.3; stroke-linejoin: miter"/>
   </g>
   <g id="patch_33">
    <path d="M 312.734769 196.524 
C 313.130615 196.524 313.510302 196.366729 313.790208 196.086823 
C 314.070113 195.806918 314.227385 195.427231 314.227385 195.031385 
C 314.227385 194.635538 314.070113 194.255852 313.790208 193.975946 
C 313.510302 193.696041 313.130615 193.538769 312.734769 193.538769 
C 312.338923 193.538769 311.959236 193.696041 311.679331 193.975946 
C 311.399425 194.255852 311.242154 194.635538 311.242154 195.031385 
C 311.242154 195.427231 311.399425 195.806918 311.679331 196.086823 
C 311.959236 196.366729 312.338923 196.524 312.734769 196.524 
z
" clip-path="url(#pd989c15a82)" style="fill: #9ec3e3; stroke: #444444; stroke-width: 0.3; stroke-linejoin: miter"/>
   </g>
   <g id="patch_34">
    <path d="M 322.116923 196.524 
C 322.512769 196.524 322.892456 196.366729 323.172362 196.086823 
C 323.452267 195.806918 323.609538 195.427231 323.609538 195.031385 
C 323.609538 194.635538 323.452267 194.255852 323.172362 193.975946 
C 322.892456 193.696041 322.512769 193.538769 322.116923 193.538769 
C 321.721077 193.538769 321.34139 193.696041 321.061485 193.975946 
C 320.781579 194.255852 320.624308 194.635538 320.624308 195.031385 
C 320.624308 195.427231 320.781579 195.806918 321.061485 196.086823 
C 321.34139 196.366729 321.721077 196.524 322.116923 196.524 
z
" clip-path="url(#pd989c15a82)" style="fill: #9ec3e3; stroke: #444444; stroke-width: 0.3; stroke-linejoin: miter"/>
   </g>
   <g id="patch_35">
    <path d="M 331.499077 196.524 
C 331.894923 196.524 332.27461 196.366729 332.554515 196.086823 
C 332.834421 195.806918 332.991692 195.427231 332.991692 195.031385 
C 332.991692 194.635538 332.834421 194.255852 332.554515 193.975946 
C 332.27461 193.696041 331.894923 193.538769 331.499077 193.538769 
C 331.103231 193.538769 330.723544 193.696041 330.443638 193.975946 
C 330.163733 194.255852 330.006462 194.635538 330.006462 195.031385 
C 330.006462 195.427231 330.163733 195.806918 330.443638 196.086823 
C 330.723544 196.366729 331.103231 196.524 331.499077 196.524 
z
" clip-path="url(#pd989c15a82)" style="fill: #9ec3e3; stroke: #444444; stroke-width: 0.3; stroke-linejoin: miter"/>
   </g>
   <g id="patch_36">
    <path d="M 340.881231 196.524 
C 341.277077 196.524 341.656764 196.366729 341.936669 196.086823 
C 342.216575 195.806918 342.373846 195.427231 342.373846 195.031385 
C 342.373846 194.635538 342.216575 194.255852 341.936669 193.975946 
C 341.656764 193.696041 341.277077 193.538769 340.881231 193.538769 
C 340.485385 193.538769 340.105698 193.696041 339.825792 193.975946 
C 339.545887 194.255852 339.388615 194.635538 339.388615 195.031385 
C 339.388615 195.427231 339.545887 195.806918 339.825792 196.086823 
C 340.105698 196.366729 340.485385 196.524 340.881231 196.524 
z
" clip-path="url(#pd989c15a82)" style="fill: #9ec3e3; stroke: #444444; stroke-width: 0.3; stroke-linejoin: miter"/>
   </g>
   <g id="patch_37">
    <path d="M 350.263385 196.524 
C 350.659231 196.524 351.038918 196.366729 351.318823 196.086823 
C 351.598729 195.806918 351.756 195.427231 351.756 195.031385 
C 351.756 194.635538 351.598729 194.255852 351.318823 193.975946 
C 351.038918 193.696041 350.659231 193.538769 350.263385 193.538769 
C 349.867538 193.538769 349.487852 193.696041 349.207946 193.975946 
C 348.928041 194.255852 348.770769 194.635538 348.770769 195.031385 
C 348.770769 195.427231 348.928041 195.806918 349.207946 196.086823 
C 349.487852 196.366729 349.867538 196.524 350.263385 196.524 
z
" clip-path="url(#pd989c15a82)" style="fill: #9ec3e3; stroke: #444444; stroke-width: 0.3; stroke-linejoin: miter"/>
   </g>
   <g id="patch_38">
    <path d="M 359.645538 196.524 
C 360.041385 196.524 360.421071 196.366729 360.700977 196.086823 
C 360.980882 195.806918 361.138154 195.427231 361.138154 195.031385 
C 361.138154 194.635538 360.980882 194.255852 360.700977 193.975946 
C 360.421071 193.696041 360.041385 193.538769 359.645538 193.538769 
C 359.249692 193.538769 358.870006 193.696041 358.5901 193.975946 
C 358.310194 194.255852 358.152923 194.635538 358.152923 195.031385 
C 358.152923 195.427231 358.310194 195.806918 358.5901 196.086823 
C 358.870006 196.366729 359.249692 196.524 359.645538 196.524 
z
" clip-path="url(#pd989c15a82)" style="fill: #9ec3e3; stroke: #444444; stroke-width: 0.3; stroke-linejoin: miter"/>
   </g>
   <g id="patch_39">
    <path d="M 369.027692 196.524 
C 369.423539 196.524 369.803225 196.366729 370.083131 196.086823 
C 370.363036 195.806918 370.520308 195.427231 370.520308 195.031385 
C 370.520308 194.635538 370.363036 194.255852 370.083131 193.975946 
C 369.803225 193.696041 369.423539 193.538769 369.027692 193.538769 
C 368.631846 193.538769 368.252159 193.696041 367.972254 193.975946 
C 367.692348 194.255852 367.535077 194.635538 367.535077 195.031385 
C 367.535077 195.427231 367.692348 195.806918 367.972254 196.086823 
C 368.252159 196.366729 368.631846 196.524 369.027692 196.524 
z
" clip-path="url(#pd989c15a82)" style="fill: #9ec3e3; stroke: #444444; stroke-width: 0.3; stroke-linejoin: miter"/>
   </g>
   <g id="patch_40">
    <path d="M 378.409846 196.524 
C 378.805692 196.524 379.185379 196.366729 379.465285 196.086823 
C 379.74519 195.806918 379.902462 195.427231 379.902462 195.031385 
C 379.902462 194.635538 379.74519 194.255852 379.465285 193.975946 
C 379.185379 193.696041 378.805692 193.538769 378.409846 193.538769 
C 378.014 193.538769 377.634313 193.696041 377.354408 193.975946 
C 377.074502 194.255852 376.917231 194.635538 376.917231 195.031385 
C 376.917231 195.427231 377.074502 195.806918 377.354408 196.086823 
C 377.634313 196.366729 378.014 196.524 378.409846 196.524 
z
" clip-path="url(#pd989c15a82)" style="fill: #9ec3e3; stroke: #444444; stroke-width: 0.3; stroke-linejoin: miter"/>
   </g>
   <g id="patch_41">
    <path d="M 387.792 196.524 
C 388.187846 196.524 388.567533 196.366729 388.847438 196.086823 
C 389.127344 195.806918 389.284615 195.427231 389.284615 195.031385 
C 389.284615 194.635538 389.127344 194.255852 388.847438 193.975946 
C 388.567533 193.696041 388.187846 193.538769 387.792 193.538769 
C 387.396154 193.538769 387.016467 193.696041 386.736562 193.975946 
C 386.456656 194.255852 386.299385 194.635538 386.299385 195.031385 
C 386.299385 195.427231 386.456656 195.806918 386.736562 196.086823 
C 387.016467 196.366729 387.396154 196.524 387.792 196.524 
z
" clip-path="url(#pd989c15a82)" style="fill: #9ec3e3; stroke: #444444; stroke-width: 0.3; stroke-linejoin: miter"/>
   </g>
   <g id="patch_42">
    <path d="M 397.174154 196.524 
C 397.57 196.524 397.949687 196.366729 398.229592 196.086823 
C 398.509498 195.806918 398.666769 195.427231 398.666769 195.031385 
C 398.666769 194.635538 398.509498 194.255852 398.229592 193.975946 
C 397.949687 193.696041 397.57 193.538769 397.174154 193.538769 
C 396.778308 193.538769 396.398621 193.696041 396.118715 193.975946 
C 395.83881 194.255852 395.681538 194.635538 395.681538 195.031385 
C 395.681538 195.427231 395.83881 195.806918 396.118715 196.086823 
C 396.398621 196.366729 396.778308 196.524 397.174154 196.524 
z
" clip-path="url(#pd989c15a82)" style="fill: #9ec3e3; stroke: #444444; stroke-width: 0.3; stroke-linejoin: miter"/>
   </g>
   <g id="patch_43">
    <path d="M 406.556308 196.524 
C 406.952154 196.524 407.331841 196.366729 407.611746 196.086823 
C 407.891652 195.806918 408.048923 195.427231 408.048923 195.031385 
C 408.048923 194.635538 407.891652 194.255852 407.611746 193.975946 
C 407.331841 193.696041 406.952154 193.538769 406.556308 193.538769 
C 406.160461 193.538769 405.780775 193.696041 405.500869 193.975946 
C 405.220964 194.255852 405.063692 194.635538 405.063692 195.031385 
C 405.063692 195.427231 405.220964 195.806918 405.500869 196.086823 
C 405.780775 196.366729 406.160461 196.524 406.556308 196.524 
z
" clip-path="url(#pd989c15a82)" style="fill: #9ec3e3; stroke: #444444; stroke-width: 0.3; stroke-linejoin: miter"/>
   </g>
   <g id="text_3">
    <text style="font-style: italic; font-size: 6.5px; font-family: 'Liberation Sans', 'Arial', 'DejaVu Sans', sans-serif; text-anchor: middle; fill: #234d2c" x="76.901538" y="124.665231" transform="rotate(-0 76.901538 124.665231)">synthase</text>
   </g>
   <g id="text_4">
    <text style="font-weight: 700; font-size: 7.5px; font-family: 'Liberation Sans', 'Arial', 'DejaVu Sans', sans-serif; text-anchor: middle; fill: #a35400" x="217.633846" y="137.776695" transform="rotate(-0 217.633846 137.776695)">AbaR (LuxR-type receptor)</text>
   </g>
   <g id="text_5">
    <text style="font-style: italic; font-size: 6.5px; font-family: 'Liberation Sans', 'Arial', 'DejaVu Sans', sans-serif; text-anchor: start; fill: #d62828" x="236.824615" y="79.861782" transform="rotate(-0 236.824615 79.861782)">(brake)</text>
   </g>
   <g id="text_6">
    <text style="font-style: italic; font-size: 6px; font-family: 'Liberation Sans', 'Arial', 'DejaVu Sans', sans-serif; text-anchor: middle; fill: #2e1a55" x="125.944615" y="82.102587" transform="rotate(-0 125.944615 82.102587)">LysR-type</text>
   </g>
   <g id="text_7">
    <text style="font-style: italic; font-size: 6px; font-family: 'Liberation Sans', 'Arial', 'DejaVu Sans', sans-serif; text-anchor: start; fill: #333333" x="100.356923" y="81.166154" transform="rotate(-0 100.356923 81.166154)">activates</text>
   </g>
   <g id="text_8">
    <text style="font-style: italic; font-size: 5.8px; font-family: 'Liberation Sans', 'Arial', 'DejaVu Sans', sans-serif; fill: #555555" transform="translate(350.578452 120.765649)">nutritional /</text>
    <text style="font-style: italic; font-size: 5.8px; font-family: 'Liberation Sans', 'Arial', 'DejaVu Sans', sans-serif; fill: #555555" transform="translate(342.840436 127.012974)">stringent sensing</text>
   </g>
   <g id="line2d_2">
    <path d="M 40.652308 179.252308 
L 407.409231 179.252308 
" clip-path="url(#pd989c15a82)" style="fill: none; stroke-dasharray: 4.2,2.1; stroke-dashoffset: 0; stroke: #222222; stroke-width: 1.4"/>
   </g>
   <g id="text_9">
    <text style="font-style: italic; font-size: 6px; font-family: 'Liberation Sans', 'Arial', 'DejaVu Sans', sans-serif; text-anchor: start; fill: #333333" x="119.547692" y="155.796923" transform="rotate(-0 119.547692 155.796923)">binds lux-box</text>
   </g>
   <g id="text_10">
    <text style="font-weight: 700; font-size: 7.5px; font-family: 'Liberation Sans', 'Arial', 'DejaVu Sans', sans-serif; text-anchor: middle; fill: #2e5c8a" x="211.236923" y="259.000615" transform="rotate(-0 211.236923 259.000615)">3-OH-C12-HSL (AHL)</text>
   </g>
   <g id="text_11">
    <text style="font-style: italic; font-size: 6.8px; font-family: 'Liberation Sans', 'Arial', 'DejaVu Sans', sans-serif; text-anchor: middle; fill: #4a235a" x="162.193846" y="268.809231" transform="rotate(-0 162.193846 268.809231)">Lactonases (MomL, AaL, AidA) + acylase (PvdQ) — cleave AHL</text>
   </g>
   <g id="text_12">
    <text style="font-style: italic; font-size: 8px; font-family: 'Liberation Sans', 'Arial', 'DejaVu Sans', sans-serif; text-anchor: start; fill: #555555" x="38.52" y="57.710769" transform="rotate(-0 38.52 57.710769)">Cytoplasm</text>
   </g>
   <g id="text_13">
    <text style="font-style: italic; font-size: 8px; font-family: 'Liberation Sans', 'Arial', 'DejaVu Sans', sans-serif; text-anchor: start; fill: #3a6a91" x="38.52" y="213.369231" transform="rotate(-0 38.52 213.369231)">Extracellular space</text>
   </g>
   <g id="text_14">
    <text style="font-size: 6.5px; font-family: 'Liberation Sans', 'Arial', 'DejaVu Sans', sans-serif; text-anchor: start; fill: #444444" x="38.52" y="73.082776" transform="rotate(-0 38.52 73.082776)">SAM + 3-OH-C12-ACP</text>
   </g>
   <g id="patch_44">
    <path d="M 54.965735 78.204037 
Q 60.911301 83.300236 66.262655 87.887111 
" clip-path="url(#pd989c15a82)" style="fill: none; stroke: #000000; stroke-width: 0.7; stroke-linecap: round"/>
    <path d="M 65.047845 85.001936 
L 66.262655 87.887111 
L 63.225629 87.127854 
z
" clip-path="url(#pd989c15a82)" style="stroke: #000000; stroke-width: 0.7; stroke-linecap: round"/>
   </g>
   <g id="patch_45">
    <path d="M 114.086048 73.38353 
Q 105.501849 84.256029 92.693801 85.249934 
" clip-path="url(#pd989c15a82)" style="fill: none; stroke: #000000; stroke-width: 0.9; stroke-linecap: round"/>
    <path d="M 96.007997 86.597562 
L 92.693801 85.249934 
L 95.760421 83.407154 
z
" clip-path="url(#pd989c15a82)" style="stroke: #000000; stroke-width: 0.9; stroke-linecap: round"/>
   </g>
   <g id="patch_46">
    <path d="M 364.763077 81.889868 
Q 364.763077 86.924492 364.763077 90.952886 
" clip-path="url(#pd989c15a82)" style="fill: none; stroke: #000000; stroke-width: 0.9; stroke-linecap: round"/>
    <path d="M 366.363077 87.752886 
L 364.763077 90.952886 
L 363.163077 87.752886 
z
" clip-path="url(#pd989c15a82)" style="stroke: #000000; stroke-width: 0.9; stroke-linecap: round"/>
   </g>
   <g id="patch_47">
    <path d="M 55.578462 184.796308 
L 79.033846 184.796308 
L 79.033846 173.708308 
L 55.578462 173.708308 
z
" clip-path="url(#pd989c15a82)" style="fill: #ffe599; stroke: #000000; stroke-width: 0.7; stroke-linejoin: miter"/>
   </g>
   <g id="patch_48">
    <path d="M 81.166154 184.796308 
L 102.489231 184.796308 
L 102.489231 173.708308 
L 81.166154 173.708308 
z
" clip-path="url(#pd989c15a82)" style="fill: #3a8a4d; stroke: #000000; stroke-width: 0.7; stroke-linejoin: miter"/>
   </g>
   <g id="patch_49">
    <path d="M 153.664615 185.649231 
L 189.913846 185.649231 
L 189.913846 172.855385 
L 153.664615 172.855385 
z
" clip-path="url(#pd989c15a82)" style="fill: #e6e6e6; stroke: #000000; stroke-width: 0.6; stroke-linejoin: miter"/>
   </g>
   <g id="patch_50">
    <path d="M 202.707692 185.649231 
L 238.956923 185.649231 
L 238.956923 172.855385 
L 202.707692 172.855385 
z
" clip-path="url(#pd989c15a82)" style="fill: #e6e6e6; stroke: #000000; stroke-width: 0.6; stroke-linejoin: miter"/>
   </g>
   <g id="patch_51">
    <path d="M 251.750769 185.649231 
L 288 185.649231 
L 288 172.855385 
L 251.750769 172.855385 
z
" clip-path="url(#pd989c15a82)" style="fill: #e6e6e6; stroke: #000000; stroke-width: 0.6; stroke-linejoin: miter"/>
   </g>
   <g id="patch_52">
    <path d="M 300.793846 185.649231 
L 337.043077 185.649231 
L 337.043077 172.855385 
L 300.793846 172.855385 
z
" clip-path="url(#pd989c15a82)" style="fill: #e6e6e6; stroke: #000000; stroke-width: 0.6; stroke-linejoin: miter"/>
   </g>
   <g id="patch_53">
    <path d="M 349.836923 185.649231 
L 386.086154 185.649231 
L 386.086154 172.855385 
L 349.836923 172.855385 
z
" clip-path="url(#pd989c15a82)" style="fill: #e6e6e6; stroke: #000000; stroke-width: 0.6; stroke-linejoin: miter"/>
   </g>
   <g id="text_15">
    <text style="font-style: italic; font-size: 6.5px; font-family: 'Liberation Sans', 'Arial', 'DejaVu Sans', sans-serif; text-anchor: middle; fill: #444444" x="330.646154" y="165.605538" transform="rotate(-0 330.646154 165.605538)">target regulons (biofilm, motility, virulence, efflux)</text>
   </g>
   <g id="patch_54">
    <path d="M 199.1941 125.264368 
Q 147.172644 179.381931 73.491109 171.890116 
" clip-path="url(#pd989c15a82)" style="fill: none; stroke: #000000; stroke-width: 0.9; stroke-linecap: round"/>
    <path d="M 76.512844 173.805611 
L 73.491109 171.890116 
L 76.836545 170.622025 
z
" clip-path="url(#pd989c15a82)" style="stroke: #000000; stroke-width: 0.9; stroke-linecap: round"/>
   </g>
   <g id="patch_55">
    <path d="M 254.129336 125.800216 
Q 257.760355 152.471212 277.197869 169.604698 
" clip-path="url(#pd989c15a82)" style="fill: none; stroke: #000000; stroke-width: 0.9; stroke-linecap: round"/>
    <path d="M 275.855326 166.288438 
L 277.197869 169.604698 
L 273.739336 168.688976 
z
" clip-path="url(#pd989c15a82)" style="stroke: #000000; stroke-width: 0.9; stroke-linecap: round"/>
   </g>
   <g id="patch_56">
    <path d="M 77.057974 119.409933 
Q 81.166055 171.787975 85.186717 223.051405 
" clip-path="url(#pd989c15a82)" style="fill: none; stroke: #2e5c8a; stroke-linecap: round"/>
    <path d="M 86.531606 219.736097 
L 85.186717 223.051405 
L 83.341403 219.986309 
z
" clip-path="url(#pd989c15a82)" style="fill: #2e5c8a; stroke: #2e5c8a; stroke-linecap: round"/>
   </g>
   <g id="patch_57">
    <path d="M 111.018462 215.630643 
Q 111.018462 200.575377 111.018462 185.52011 
" clip-path="url(#pd989c15a82)" style="fill: none; stroke-dasharray: 1.6,1.2; stroke-dashoffset: 0; stroke: #2e5c8a; stroke-width: 0.8; stroke-linecap: round"/>
   </g>
   <g id="patch_58">
    <path d="M 196.310769 215.630643 
Q 196.310769 200.575377 196.310769 185.52011 
" clip-path="url(#pd989c15a82)" style="fill: none; stroke-dasharray: 1.6,1.2; stroke-dashoffset: 0; stroke: #2e5c8a; stroke-width: 0.8; stroke-linecap: round"/>
   </g>
   <g id="patch_59">
    <path d="M 298.661538 215.630643 
Q 298.661538 200.575377 298.661538 185.52011 
" clip-path="url(#pd989c15a82)" style="fill: none; stroke-dasharray: 1.6,1.2; stroke-dashoffset: 0; stroke: #2e5c8a; stroke-width: 0.8; stroke-linecap: round"/>
   </g>
   <g id="patch_60">
    <path d="M 196.830922 175.18814 
Q 204.334497 146.064743 191.282718 120.091212 
" clip-path="url(#pd989c15a82)" style="fill: none; stroke-dasharray: 1.8,1.35; stroke-dashoffset: 0; stroke: #2e5c8a; stroke-width: 0.9; stroke-linecap: round"/>
    <path d="M 191.289875 123.668913 
L 191.282718 120.091212 
L 194.149174 122.232107 
z
" clip-path="url(#pd989c15a82)" style="fill: #2e5c8a; stroke-dasharray: 1.8,1.35; stroke-dashoffset: 0; stroke: #2e5c8a; stroke-width: 0.9; stroke-linecap: round"/>
   </g>
   <g id="patch_61">
    <path d="M 79.558333 277.540656 
Q 84.365142 259.851601 88.937405 243.025673 
" clip-path="url(#pd989c15a82)" style="fill: none; stroke: #7b2cbf; stroke-width: 0.8; stroke-linecap: round"/>
    <path d="M 86.852154 245.360566 
L 88.937405 243.025673 
L 89.554169 246.09481 
z
" clip-path="url(#pd989c15a82)" style="fill: #7b2cbf; stroke: #7b2cbf; stroke-width: 0.8; stroke-linecap: round"/>
   </g>
   <g id="patch_62">
    <path d="M 141.528005 277.57793 
Q 146.202257 264.116086 150.583126 251.499183 
" clip-path="url(#pd989c15a82)" style="fill: none; stroke: #7b2cbf; stroke-width: 0.8; stroke-linecap: round"/>
    <path d="M 148.34215 253.685053 
L 150.583126 251.499183 
L 150.987236 254.603486 
z
" clip-path="url(#pd989c15a82)" style="fill: #7b2cbf; stroke: #7b2cbf; stroke-width: 0.8; stroke-linecap: round"/>
   </g>
   <g id="patch_63">
    <path d="M 203.074703 277.507261 
Q 206.972233 256.655477 210.705426 236.682893 
" clip-path="url(#pd989c15a82)" style="fill: none; stroke: #7b2cbf; stroke-width: 0.8; stroke-linecap: round"/>
    <path d="M 208.814805 239.177999 
L 210.705426 236.682893 
L 211.567138 239.692454 
z
" clip-path="url(#pd989c15a82)" style="fill: #7b2cbf; stroke: #7b2cbf; stroke-width: 0.8; stroke-linecap: round"/>
   </g>
   <g id="patch_64">
    <path d="M 328.513846 277.473605 
Q 328.513846 259.852709 328.513846 243.126239 
" clip-path="url(#pd989c15a82)" style="fill: none; stroke: #7b2cbf; stroke-width: 0.8; stroke-linecap: round"/>
    <path d="M 327.113846 245.926239 
L 328.513846 243.126239 
L 329.913846 245.926239 
z
" clip-path="url(#pd989c15a82)" style="fill: #7b2cbf; stroke: #7b2cbf; stroke-width: 0.8; stroke-linecap: round"/>
   </g>
   <g id="patch_65">
    <path d="M 76.901538 80.313231 
L 59.866799 92.689693 
L 66.373491 112.71523 
L 87.429586 112.71523 
L 93.936278 92.689693 
z
" clip-path="url(#pd989c15a82)" style="fill: #3a8a4d; stroke: #000000; stroke-width: 0.9; stroke-linejoin: miter"/>
   </g>
   <g id="patch_66">
    <path d="M 174.987692 123.812308 
L 217.633846 123.812308 
L 217.633846 91.827692 
L 174.987692 91.827692 
z
" clip-path="url(#pd989c15a82)" style="fill: #e89c2a; stroke: #000000; stroke-width: 0.9; stroke-linejoin: miter"/>
   </g>
   <g id="patch_67">
    <path d="M 217.633846 123.812308 
L 260.28 123.812308 
L 260.28 91.827692 
L 217.633846 91.827692 
z
" clip-path="url(#pd989c15a82)" style="fill: #f1b966; stroke: #000000; stroke-width: 0.9; stroke-linejoin: miter"/>
   </g>
   <g id="patch_68">
    <path d="M 125.944615 72.636923 
C 131.882309 72.636923 137.577609 71.73823 141.776192 70.138769 
C 145.974776 68.539309 148.333846 66.369671 148.333846 64.107692 
C 148.333846 61.845714 145.974776 59.676076 141.776192 58.076615 
C 137.577609 56.477155 131.882309 55.578462 125.944615 55.578462 
C 120.006922 55.578462 114.311622 56.477155 110.113038 58.076615 
C 105.914455 59.676076 103.555385 61.845714 103.555385 64.107692 
C 103.555385 66.369671 105.914455 68.539309 110.113038 70.138769 
C 114.311622 71.73823 120.006922 72.636923 125.944615 72.636923 
z
" clip-path="url(#pd989c15a82)" style="fill: #5a3a9c; stroke: #000000; stroke-width: 0.9; stroke-linejoin: miter"/>
   </g>
   <g id="patch_69">
    <path d="M 345.572308 78.180923 
L 383.953846 78.180923 
L 383.953846 62.828308 
L 345.572308 62.828308 
z
" clip-path="url(#pd989c15a82)" style="fill: #888888; stroke: #000000; stroke-width: 0.8; stroke-linejoin: miter"/>
   </g>
   <g id="patch_70">
    <path d="M 364.763077 110.592 
C 366.57266 110.592 368.30837 109.873045 369.587938 108.593477 
C 370.867507 107.313909 371.586462 105.578198 371.586462 103.768615 
C 371.586462 101.959033 370.867507 100.223322 369.587938 98.943754 
C 368.30837 97.664186 366.57266 96.945231 364.763077 96.945231 
C 362.953494 96.945231 361.217784 97.664186 359.938215 98.943754 
C 358.658647 100.223322 357.939692 101.959033 357.939692 103.768615 
C 357.939692 105.578198 358.658647 107.313909 359.938215 108.593477 
C 361.217784 109.873045 362.953494 110.592 364.763077 110.592 
z
" clip-path="url(#pd989c15a82)" style="fill: #a04020; stroke: #000000; stroke-width: 0.8; stroke-linejoin: miter"/>
   </g>
   <g id="text_16">
    <text style="font-weight: 700; font-size: 6.5px; font-family: 'Liberation Sans', 'Arial', 'DejaVu Sans', sans-serif; text-anchor: middle" x="67.306154" y="180.933167" transform="rotate(-0 67.306154 180.933167)">lux-box</text>
   </g>
   <g id="text_17">
    <text style="font-style: italic; font-weight: 700; font-size: 6.5px; font-family: 'Liberation Sans', 'Arial', 'DejaVu Sans', sans-serif; text-anchor: middle; fill: #ffffff" x="91.827692" y="180.933167" transform="rotate(-0 91.827692 180.933167)">abaI</text>
   </g>
   <g id="text_18">
    <text style="font-style: italic; font-weight: 700; font-size: 6.5px; font-family: 'Liberation Sans', 'Arial', 'DejaVu Sans', sans-serif; text-anchor: middle" x="171.789231" y="180.933167" transform="rotate(-0 171.789231 180.933167)">csu</text>
   </g>
   <g id="text_19">
    <text style="font-style: italic; font-weight: 700; font-size: 6.5px; font-family: 'Liberation Sans', 'Arial', 'DejaVu Sans', sans-serif; text-anchor: middle" x="220.832308" y="180.933167" transform="rotate(-0 220.832308 180.933167)">bap</text>
   </g>
   <g id="text_20">
    <text style="font-style: italic; font-weight: 700; font-size: 6.5px; font-family: 'Liberation Sans', 'Arial', 'DejaVu Sans', sans-serif; text-anchor: middle" x="269.875385" y="180.933167" transform="rotate(-0 269.875385 180.933167)">pgaABCD</text>
   </g>
   <g id="text_21">
    <text style="font-style: italic; font-weight: 700; font-size: 6.5px; font-family: 'Liberation Sans', 'Arial', 'DejaVu Sans', sans-serif; text-anchor: middle" x="318.918462" y="180.933167" transform="rotate(-0 318.918462 180.933167)">adeFGH</text>
   </g>
   <g id="text_22">
    <text style="font-style: italic; font-weight: 700; font-size: 6.5px; font-family: 'Liberation Sans', 'Arial', 'DejaVu Sans', sans-serif; text-anchor: middle" x="367.961538" y="180.933167" transform="rotate(-0 367.961538 180.933167)">ompA</text>
   </g>
   <g id="patch_71">
    <path d="M 82.872 232.56 
L 87.586843 239.049424 
L 95.215619 236.570685 
L 95.215619 228.549315 
L 87.586843 226.070576 
z
" clip-path="url(#pd989c15a82)" style="fill: #2e5c8a; stroke: #000000; stroke-width: 0.6; stroke-linejoin: miter"/>
   </g>
   <g id="patch_72">
    <path d="M 97.371692 232.56 
L 100.996615 230.640923 
L 104.621538 234.479077 
L 108.246462 230.640923 
L 111.871385 234.479077 
L 115.496308 230.640923 
L 119.121231 234.479077 
" clip-path="url(#pd989c15a82)" style="fill: none; stroke: #2e5c8a; stroke-linejoin: miter"/>
   </g>
   <g id="text_23">
    <text style="font-size: 4.5px; font-family: 'Liberation Sans', 'Arial', 'DejaVu Sans', sans-serif; text-anchor: start; fill: #2e5c8a" x="120.827077" y="235.642749" transform="rotate(-0 120.827077 235.642749)">OH</text>
   </g>
   <g id="patch_73">
    <path d="M 144.708923 241.089231 
L 149.423766 247.578655 
L 157.052542 245.099916 
L 157.052542 237.078546 
L 149.423766 234.599806 
z
" clip-path="url(#pd989c15a82)" style="fill: #2e5c8a; stroke: #000000; stroke-width: 0.6; stroke-linejoin: miter"/>
   </g>
   <g id="patch_74">
    <path d="M 159.208615 241.089231 
L 162.833538 239.170154 
L 166.458462 243.008308 
L 170.083385 239.170154 
L 173.708308 243.008308 
L 177.333231 239.170154 
L 180.958154 243.008308 
" clip-path="url(#pd989c15a82)" style="fill: none; stroke: #2e5c8a; stroke-linejoin: miter"/>
   </g>
   <g id="text_24">
    <text style="font-size: 4.5px; font-family: 'Liberation Sans', 'Arial', 'DejaVu Sans', sans-serif; text-anchor: start; fill: #2e5c8a" x="182.664" y="244.17198" transform="rotate(-0 182.664 244.17198)">OH</text>
   </g>
   <g id="patch_75">
    <path d="M 204.413538 226.163077 
L 209.128381 232.652501 
L 216.757157 230.173762 
L 216.757157 222.152392 
L 209.128381 219.673653 
z
" clip-path="url(#pd989c15a82)" style="fill: #2e5c8a; stroke: #000000; stroke-width: 0.6; stroke-linejoin: miter"/>
   </g>
   <g id="patch_76">
    <path d="M 218.913231 226.163077 
L 222.538154 224.244 
L 226.163077 228.082154 
L 229.788 224.244 
L 233.412923 228.082154 
L 237.037846 224.244 
L 240.662769 228.082154 
" clip-path="url(#pd989c15a82)" style="fill: none; stroke: #2e5c8a; stroke-linejoin: miter"/>
   </g>
   <g id="text_25">
    <text style="font-size: 4.5px; font-family: 'Liberation Sans', 'Arial', 'DejaVu Sans', sans-serif; text-anchor: start; fill: #2e5c8a" x="242.368615" y="229.245826" transform="rotate(-0 242.368615 229.245826)">OH</text>
   </g>
   <g id="patch_77">
    <path d="M 264.118154 238.956923 
L 268.832997 245.446347 
L 276.461773 242.967608 
L 276.461773 234.946238 
L 268.832997 232.467499 
z
" clip-path="url(#pd989c15a82)" style="fill: #2e5c8a; stroke: #000000; stroke-width: 0.6; stroke-linejoin: miter"/>
   </g>
   <g id="patch_78">
    <path d="M 278.617846 238.956923 
L 282.242769 237.037846 
L 285.867692 240.876 
L 289.492615 237.037846 
L 293.117538 240.876 
L 296.742462 237.037846 
L 300.367385 240.876 
" clip-path="url(#pd989c15a82)" style="fill: none; stroke: #2e5c8a; stroke-linejoin: miter"/>
   </g>
   <g id="text_26">
    <text style="font-size: 4.5px; font-family: 'Liberation Sans', 'Arial', 'DejaVu Sans', sans-serif; text-anchor: start; fill: #2e5c8a" x="302.073231" y="242.039672" transform="rotate(-0 302.073231 242.039672)">OH</text>
   </g>
   <g id="patch_79">
    <path d="M 321.690462 232.56 
L 326.405304 239.049424 
L 334.03408 236.570685 
L 334.03408 228.549315 
L 326.405304 226.070576 
z
" clip-path="url(#pd989c15a82)" style="fill: #2e5c8a; stroke: #000000; stroke-width: 0.6; stroke-linejoin: miter"/>
   </g>
   <g id="patch_80">
    <path d="M 336.190154 232.56 
L 339.815077 230.640923 
L 343.44 234.479077 
L 347.064923 230.640923 
L 350.689846 234.479077 
L 354.314769 230.640923 
L 357.939692 234.479077 
" clip-path="url(#pd989c15a82)" style="fill: none; stroke: #2e5c8a; stroke-linejoin: miter"/>
   </g>
   <g id="text_27">
    <text style="font-size: 4.5px; font-family: 'Liberation Sans', 'Arial', 'DejaVu Sans', sans-serif; text-anchor: start; fill: #2e5c8a" x="359.645538" y="235.642749" transform="rotate(-0 359.645538 235.642749)">OH</text>
   </g>
   <g id="text_28">
    <text style="font-style: italic; font-size: 6px; font-family: 'Liberation Sans', 'Arial', 'DejaVu Sans', sans-serif; text-anchor: start; fill: #2e5c8a" x="217.633846" y="167.737846" transform="rotate(-0 217.633846 167.737846)">AHL binds AbaR</text>
   </g>
   <g id="patch_81">
    <path d="M 85.567616 282.517516 
C 85.008357 281.851017 84.350393 281.273999 83.616599 280.80652 
C 82.882804 280.339041 82.08178 279.986582 81.241374 279.761396 
C 80.400967 279.53621 79.531031 279.440936 78.661806 279.478887 
C 77.792582 279.516838 76.934259 279.687569 76.116677 279.985145 
C 75.299095 280.28272 74.531839 280.703652 73.841579 281.233306 
C 73.15132 281.762961 72.546151 282.395129 72.047109 283.107834 
C 71.548068 283.82054 71.161004 284.605427 70.899374 285.435211 
C 70.637744 286.264995 70.504615 287.129947 70.504615 288 
C 70.504615 288.870053 70.637744 289.735005 70.899374 290.564789 
C 71.161004 291.394573 71.548068 292.17946 72.047109 292.892166 
C 72.546151 293.604871 73.15132 294.237039 73.841579 294.766694 
C 74.531839 295.296348 75.299095 295.71728 76.116677 296.014855 
C 76.934259 296.312431 77.792582 296.483162 78.661806 296.521113 
C 79.531031 296.559064 80.400967 296.46379 81.241374 296.238604 
C 82.08178 296.013418 82.882804 295.660959 83.616599 295.19348 
C 84.350393 294.726001 85.008357 294.148983 85.567616 293.482484 
L 79.033846 288 
z
" clip-path="url(#pd989c15a82)" style="fill: #7b2cbf; stroke: #000000; stroke-width: 0.7; stroke-linejoin: miter"/>
   </g>
   <g id="patch_82">
    <path d="M 147.404539 282.517516 
C 146.84528 281.851017 146.187317 281.273999 145.453522 280.80652 
C 144.719727 280.339041 143.918703 279.986582 143.078297 279.761396 
C 142.23789 279.53621 141.367954 279.440936 140.498729 279.478887 
C 139.629505 279.516838 138.771183 279.687569 137.953601 279.985145 
C 137.136018 280.28272 136.368762 280.703652 135.678503 281.233306 
C 134.988243 281.762961 134.383074 282.395129 133.884032 283.107834 
C 133.384991 283.82054 132.997927 284.605427 132.736297 285.435211 
C 132.474667 286.264995 132.341538 287.129947 132.341538 288 
C 132.341538 288.870053 132.474667 289.735005 132.736297 290.564789 
C 132.997927 291.394573 133.384991 292.17946 133.884032 292.892166 
C 134.383074 293.604871 134.988243 294.237039 135.678503 294.766694 
C 136.368762 295.296348 137.136018 295.71728 137.953601 296.014855 
C 138.771183 296.312431 139.629505 296.483162 140.498729 296.521113 
C 141.367954 296.559064 142.23789 296.46379 143.078297 296.238604 
C 143.918703 296.013418 144.719727 295.660959 145.453522 295.19348 
C 146.187317 294.726001 146.84528 294.148983 147.404539 293.482484 
L 140.870769 288 
z
" clip-path="url(#pd989c15a82)" style="fill: #7b2cbf; stroke: #000000; stroke-width: 0.7; stroke-linejoin: miter"/>
   </g>
   <g id="patch_83">
    <path d="M 209.241462 282.517516 
C 208.682203 281.851017 208.02424 281.273999 207.290445 280.80652 
C 206.55665 280.339041 205.755626 279.986582 204.91522 279.761396 
C 204.074813 279.53621 203.204877 279.440936 202.335652 279.478887 
C 201.466428 279.516838 200.608106 279.687569 199.790524 279.985145 
C 198.972942 280.28272 198.205685 280.703652 197.515426 281.233306 
C 196.825166 281.762961 196.219997 282.395129 195.720955 283.107834 
C 195.221914 283.82054 194.83485 284.605427 194.57322 285.435211 
C 194.31159 286.264995 194.178462 287.129947 194.178462 288 
C 194.178462 288.870053 194.31159 289.735005 194.57322 290.564789 
C 194.83485 291.394573 195.221914 292.17946 195.720955 292.892166 
C 196.219997 293.604871 196.825166 294.237039 197.515426 294.766694 
C 198.205685 295.296348 198.972942 295.71728 199.790524 296.014855 
C 200.608106 296.312431 201.466428 296.483162 202.335652 296.521113 
C 203.204877 296.559064 204.074813 296.46379 204.91522 296.238604 
C 205.755626 296.013418 206.55665 295.660959 207.290445 295.19348 
C 208.02424 294.726001 208.682203 294.148983 209.241462 293.482484 
L 202.707692 288 
z
" clip-path="url(#pd989c15a82)" style="fill: #7b2cbf; stroke: #000000; stroke-width: 0.7; stroke-linejoin: miter"/>
   </g>
   <g id="patch_84">
    <path d="M 335.047616 282.517516 
C 334.488357 281.851017 333.830393 281.273999 333.096599 280.80652 
C 332.362804 280.339041 331.56178 279.986582 330.721374 279.761396 
C 329.880967 279.53621 329.011031 279.440936 328.141806 279.478887 
C 327.272582 279.516838 326.414259 279.687569 325.596677 279.985145 
C 324.779095 280.28272 324.011839 280.703652 323.321579 281.233306 
C 322.63132 281.762961 322.026151 282.395129 321.527109 283.107834 
C 321.028068 283.82054 320.641004 284.605427 320.379374 285.435211 
C 320.117744 286.264995 319.984615 287.129947 319.984615 288 
C 319.984615 288.870053 320.117744 289.735005 320.379374 290.564789 
C 320.641004 291.394573 321.028068 292.17946 321.527109 292.892166 
C 322.026151 293.604871 322.63132 294.237039 323.321579 294.766694 
C 324.011839 295.296348 324.779095 295.71728 325.596677 296.014855 
C 326.414259 296.312431 327.272582 296.483162 328.141806 296.521113 
C 329.011031 296.559064 329.880967 296.46379 330.721374 296.238604 
C 331.56178 296.013418 332.362804 295.660959 333.096599 295.19348 
C 333.830393 294.726001 334.488357 294.148983 335.047616 293.482484 
L 328.513846 288 
z
" clip-path="url(#pd989c15a82)" style="fill: #7b2cbf; stroke: #000000; stroke-width: 0.7; stroke-linejoin: miter"/>
   </g>
   <g id="legend_1">
    <g id="patch_85">
     <path d="M 18.512308 340.999538 
L 25.952308 340.999538 
L 25.952308 336.659538 
L 18.512308 336.659538 
z
" style="fill: #3a8a4d; stroke: #3a8a4d; stroke-linejoin: miter"/>
    </g>
    <g id="text_29">
     <text style="font-size: 6.2px; font-family: 'Liberation Sans', 'Arial', 'DejaVu Sans', sans-serif; text-anchor: start" x="28.432308" y="340.999538" transform="rotate(-0 28.432308 340.999538)">AbaI (synthase)</text>
    </g>
    <g id="patch_86">
     <path d="M 18.512308 349.8791 
L 25.952308 349.8791 
L 25.952308 345.5391 
L 18.512308 345.5391 
z
" style="fill: #e89c2a; stroke: #e89c2a; stroke-linejoin: miter"/>
    </g>
    <g id="text_30">
     <text style="font-size: 6.2px; font-family: 'Liberation Sans', 'Arial', 'DejaVu Sans', sans-serif; text-anchor: start" x="28.432308" y="349.8791" transform="rotate(-0 28.432308 349.8791)">AbaR (receptor)</text>
    </g>
    <g id="patch_87">
     <path d="M 78.114651 340.999538 
L 85.554651 340.999538 
L 85.554651 336.659538 
L 78.114651 336.659538 
z
" style="fill: #d62828; stroke: #d62828; stroke-linejoin: miter"/>
    </g>
    <g id="text_31">
     <text style="font-size: 6.2px; font-family: 'Liberation Sans', 'Arial', 'DejaVu Sans', sans-serif; text-anchor: start" x="88.034651" y="340.999538" transform="rotate(-0 88.034651 340.999538)">AbaM (brake)</text>
    </g>
    <g id="patch_88">
     <path d="M 78.114651 349.8791 
L 85.554651 349.8791 
L 85.554651 345.5391 
L 78.114651 345.5391 
z
" style="fill: #2e5c8a; stroke: #2e5c8a; stroke-linejoin: miter"/>
    </g>
    <g id="text_32">
     <text style="font-size: 6.2px; font-family: 'Liberation Sans', 'Arial', 'DejaVu Sans', sans-serif; text-anchor: start" x="88.034651" y="349.8791" transform="rotate(-0 88.034651 349.8791)">AHL signal</text>
    </g>
    <g id="patch_89">
     <path d="M 131.169214 340.999538 
L 138.609214 340.999538 
L 138.609214 336.659538 
L 131.169214 336.659538 
z
" style="fill: #7b2cbf; stroke: #7b2cbf; stroke-linejoin: miter"/>
    </g>
    <g id="text_33">
     <text style="font-size: 6.2px; font-family: 'Liberation Sans', 'Arial', 'DejaVu Sans', sans-serif; text-anchor: start" x="141.089214" y="340.999538" transform="rotate(-0 141.089214 340.999538)">QQ enzymes</text>
    </g>
    <g id="line2d_3">
     <path d="M 131.169214 347.7091 
L 134.889214 347.7091 
L 138.609214 347.7091 
" style="fill: none; stroke: #000000; stroke-linecap: square"/>
     <defs>
      <path id="m27fa7676db" d="M 2.5 0 
L -2.5 -2.5 
L -2.5 2.5 
z
" style="stroke: #000000; stroke-linejoin: miter"/>
     </defs>
     <g>
      <use xlink:href="#m27fa7676db" x="134.889214" y="347.7091" style="stroke: #000000; stroke-linejoin: miter"/>
     </g>
    </g>
    <g id="text_34">
     <text style="font-size: 6.2px; font-family: 'Liberation Sans', 'Arial', 'DejaVu Sans', sans-serif; text-anchor: start" x="141.089214" y="349.8791" transform="rotate(-0 141.089214 349.8791)">activation</text>
    </g>
    <g id="line2d_4">
     <path d="M 182.844276 338.829538 
L 186.564276 338.829538 
L 190.284276 338.829538 
" style="fill: none; stroke: #d62828; stroke-width: 1.4; stroke-linecap: square"/>
     <defs>
      <path id="m3ed9f18ef2" d="M 4 0 
L -4 -0 
" style="stroke: #d62828"/>
     </defs>
     <g>
      <use xlink:href="#m3ed9f18ef2" x="186.564276" y="338.829538" style="fill: #d62828; stroke: #d62828"/>
     </g>
    </g>
    <g id="text_35">
     <text style="font-size: 6.2px; font-family: 'Liberation Sans', 'Arial', 'DejaVu Sans', sans-serif; text-anchor: start" x="192.764276" y="340.999538" transform="rotate(-0 192.764276 340.999538)">inhibition</text>
    </g>
    <g id="line2d_5">
     <path d="M 182.844276 347.7091 
L 186.564276 347.7091 
L 190.284276 347.7091 
" style="fill: none; stroke-dasharray: 1.8,1.35; stroke-dashoffset: 0; stroke: #2e5c8a; stroke-width: 0.9"/>
    </g>
    <g id="text_36">
     <text style="font-size: 6.2px; font-family: 'Liberation Sans', 'Arial', 'DejaVu Sans', sans-serif; text-anchor: start" x="192.764276" y="349.8791" transform="rotate(-0 192.764276 349.8791)">diffusion</text>
    </g>
   </g>
   <g id="text_37">
    <text style="font-weight: 700; font-size: 8px; font-family: 'Liberation Sans', 'Arial', 'DejaVu Sans', sans-serif; text-anchor: middle; fill: #ffffff" x="76.901538" y="100.293365" transform="rotate(-0 76.901538 100.293365)">AbaI</text>
   </g>
   <g id="line2d_6">
    <path d="M 217.633846 121.68 
L 217.633846 93.96 
" clip-path="url(#pd989c15a82)" style="fill: none; stroke: #000000; stroke-width: 0.6; stroke-linecap: square"/>
   </g>
   <g id="text_38">
    <text style="font-size: 6.5px; font-family: 'Liberation Sans', 'Arial', 'DejaVu Sans', sans-serif" transform="translate(182.762332 106.000203)">AHL-bind</text>
    <text style="font-size: 6.5px; font-family: 'Liberation Sans', 'Arial', 'DejaVu Sans', sans-serif" transform="translate(191.799363 113.001516)">(N)</text>
   </g>
   <g id="text_39">
    <text style="font-size: 6.5px; font-family: 'Liberation Sans', 'Arial', 'DejaVu Sans', sans-serif" transform="translate(224.333447 106.000203)">HTH-DNA</text>
    <text style="font-size: 6.5px; font-family: 'Liberation Sans', 'Arial', 'DejaVu Sans', sans-serif" transform="translate(234.445517 113.001516)">(C)</text>
   </g>
   <g id="patch_90">
    <path d="M 204.84 69.651692 
L 230.427692 69.651692 
L 217.633846 87.563077 
z
" clip-path="url(#pd989c15a82)" style="fill: #d62828; stroke: #000000; stroke-width: 0.8; stroke-linejoin: miter"/>
   </g>
   <g id="patch_91">
    <path d="M 217.633846 89.565447 
Q 217.633846 90.270108 217.633846 90.974769 
" clip-path="url(#pd989c15a82)" style="fill: none; stroke: #d62828; stroke-width: 1.4; stroke-linecap: round"/>
    <path d="M 224.633846 88.165447 
L 224.633846 89.565447 
L 210.633846 89.565447 
L 210.633846 88.165447 
" clip-path="url(#pd989c15a82)" style="fill: none; stroke: #d62828; stroke-width: 1.4; stroke-linecap: round"/>
   </g>
   <g id="text_40">
    <text style="font-weight: 700; font-size: 6.8px; font-family: 'Liberation Sans', 'Arial', 'DejaVu Sans', sans-serif; text-anchor: middle; fill: #ffffff" x="125.944615" y="65.86613" transform="rotate(-0 125.944615 65.86613)">ABUW_1132</text>
   </g>
   <g id="text_41">
    <text style="font-weight: 700; font-size: 7.5px; font-family: 'Liberation Sans', 'Arial', 'DejaVu Sans', sans-serif; text-anchor: middle; fill: #ffffff" x="364.763077" y="72.444069" transform="rotate(-0 364.763077 72.444069)">RelA</text>
   </g>
   <g id="text_42">
    <text style="font-weight: 700; font-size: 5.5px; font-family: 'Liberation Sans', 'Arial', 'DejaVu Sans', sans-serif; text-anchor: middle; fill: #ffffff" x="364.763077" y="105.190881" transform="rotate(-0 364.763077 105.190881)">(p)ppGpp</text>
   </g>
   <g id="text_43">
    <text style="font-weight: 700; font-size: 5px; font-family: 'Liberation Sans', 'Arial', 'DejaVu Sans', sans-serif; text-anchor: middle; fill: #ffffff" x="89.695385" y="233.852969" transform="rotate(-0 89.695385 233.852969)">O</text>
   </g>
   <g id="text_44">
    <text style="font-weight: 700; font-size: 5px; font-family: 'Liberation Sans', 'Arial', 'DejaVu Sans', sans-serif; text-anchor: middle; fill: #ffffff" x="151.532308" y="242.3822" transform="rotate(-0 151.532308 242.3822)">O</text>
   </g>
   <g id="text_45">
    <text style="font-weight: 700; font-size: 5px; font-family: 'Liberation Sans', 'Arial', 'DejaVu Sans', sans-serif; text-anchor: middle; fill: #ffffff" x="211.236923" y="227.456046" transform="rotate(-0 211.236923 227.456046)">O</text>
   </g>
   <g id="text_46">
    <text style="font-weight: 700; font-size: 5px; font-family: 'Liberation Sans', 'Arial', 'DejaVu Sans', sans-serif; text-anchor: middle; fill: #ffffff" x="270.941538" y="240.249892" transform="rotate(-0 270.941538 240.249892)">O</text>
   </g>
   <g id="text_47">
    <text style="font-weight: 700; font-size: 5px; font-family: 'Liberation Sans', 'Arial', 'DejaVu Sans', sans-serif; text-anchor: middle; fill: #ffffff" x="328.513846" y="233.852969" transform="rotate(-0 328.513846 233.852969)">O</text>
   </g>
   <g id="text_48">
    <text style="font-weight: 700; font-size: 6.5px; font-family: 'Liberation Sans', 'Arial', 'DejaVu Sans', sans-serif; text-anchor: middle; fill: #7b2cbf" x="79.033846" y="307.636623" transform="rotate(-0 79.033846 307.636623)">MomL</text>
   </g>
   <g id="text_49">
    <text style="font-weight: 700; font-size: 6.5px; font-family: 'Liberation Sans', 'Arial', 'DejaVu Sans', sans-serif; text-anchor: middle; fill: #7b2cbf" x="140.870769" y="307.636623" transform="rotate(-0 140.870769 307.636623)">AaL</text>
   </g>
   <g id="text_50">
    <text style="font-weight: 700; font-size: 6.5px; font-family: 'Liberation Sans', 'Arial', 'DejaVu Sans', sans-serif; text-anchor: middle; fill: #7b2cbf" x="202.707692" y="307.636623" transform="rotate(-0 202.707692 307.636623)">AidA</text>
   </g>
   <g id="text_51">
    <text style="font-weight: 700; font-size: 6.5px; font-family: 'Liberation Sans', 'Arial', 'DejaVu Sans', sans-serif; text-anchor: middle; fill: #7b2cbf" x="328.513846" y="307.636623" transform="rotate(-0 328.513846 307.636623)">PvdQ</text>
   </g>
   <g id="text_52">
    <text style="font-weight: 700; font-size: 6.8px; font-family: 'Liberation Sans', 'Arial', 'DejaVu Sans', sans-serif; text-anchor: middle; fill: #ffffff" x="217.633846" y="78.233514" transform="rotate(-0 217.633846 78.233514)">AbaM</text>
   </g>
   <g id="patch_92">
    <path d="M 236.824615 342.587077 
L 430.864615 342.587077 
L 430.864615 316.146462 
L 236.824615 316.146462 
z
" clip-path="url(#pd989c15a82)" style="fill: #ffffff; stroke: #999999; stroke-width: 0.6; stroke-linejoin: miter"/>
   </g>
   <g id="text_53">
    <text style="font-weight: 700; font-size: 6.8px; font-family: 'Liberation Sans', 'Arial', 'DejaVu Sans', sans-serif; text-anchor: start; fill: #222222" x="241.089231" y="323.206644" transform="rotate(-0 241.089231 323.206644)">Quorum-sensing cycle</text>
   </g>
   <g id="patch_93">
    <path d="M 245.353846 339.175385 
C 246.484835 339.175385 247.569654 338.726038 248.369385 337.926308 
C 249.169115 337.126578 249.618462 336.041758 249.618462 334.910769 
C 249.618462 333.77978 249.169115 332.694961 248.369385 331.895231 
C 247.569654 331.095501 246.484835 330.646154 245.353846 330.646154 
C 244.222857 330.646154 243.138038 331.095501 242.338308 331.895231 
C 241.538578 332.694961 241.089231 333.77978 241.089231 334.910769 
C 241.089231 336.041758 241.538578 337.126578 242.338308 337.926308 
C 243.138038 338.726038 244.222857 339.175385 245.353846 339.175385 
z
" clip-path="url(#pd989c15a82)" style="fill: #333333; stroke: #000000; stroke-width: 0.6; stroke-linejoin: miter"/>
   </g>
   <g id="text_54">
    <text style="font-size: 6px; font-family: 'Liberation Sans', 'Arial', 'DejaVu Sans', sans-serif; text-anchor: start; fill: #222222" x="250.897846" y="336.462332" transform="rotate(-0 250.897846 336.462332)">Synthesis</text>
   </g>
   <g id="patch_94">
    <path d="M 276.059077 339.175385 
C 277.190066 339.175385 278.274885 338.726038 279.074615 337.926308 
C 279.874346 337.126578 280.323692 336.041758 280.323692 334.910769 
C 280.323692 333.77978 279.874346 332.694961 279.074615 331.895231 
C 278.274885 331.095501 277.190066 330.646154 276.059077 330.646154 
C 274.928088 330.646154 273.843269 331.095501 273.043538 331.895231 
C 272.243808 332.694961 271.794462 333.77978 271.794462 334.910769 
C 271.794462 336.041758 272.243808 337.126578 273.043538 337.926308 
C 273.843269 338.726038 274.928088 339.175385 276.059077 339.175385 
z
" clip-path="url(#pd989c15a82)" style="fill: #333333; stroke: #000000; stroke-width: 0.6; stroke-linejoin: miter"/>
   </g>
   <g id="text_55">
    <text style="font-size: 6px; font-family: 'Liberation Sans', 'Arial', 'DejaVu Sans', sans-serif; text-anchor: start; fill: #222222" x="281.603077" y="336.462332" transform="rotate(-0 281.603077 336.462332)">Diffusion</text>
   </g>
   <g id="patch_95">
    <path d="M 306.764308 339.175385 
C 307.895297 339.175385 308.980116 338.726038 309.779846 337.926308 
C 310.579576 337.126578 311.028923 336.041758 311.028923 334.910769 
C 311.028923 333.77978 310.579576 332.694961 309.779846 331.895231 
C 308.980116 331.095501 307.895297 330.646154 306.764308 330.646154 
C 305.633318 330.646154 304.548499 331.095501 303.748769 331.895231 
C 302.949039 332.694961 302.499692 333.77978 302.499692 334.910769 
C 302.499692 336.041758 302.949039 337.126578 303.748769 337.926308 
C 304.548499 338.726038 305.633318 339.175385 306.764308 339.175385 
z
" clip-path="url(#pd989c15a82)" style="fill: #333333; stroke: #000000; stroke-width: 0.6; stroke-linejoin: miter"/>
   </g>
   <g id="text_56">
    <text style="font-size: 6px; font-family: 'Liberation Sans', 'Arial', 'DejaVu Sans', sans-serif; text-anchor: start; fill: #222222" x="312.308308" y="336.462332" transform="rotate(-0 312.308308 336.462332)">Accumulation</text>
   </g>
   <g id="patch_96">
    <path d="M 337.469538 339.175385 
C 338.600528 339.175385 339.685347 338.726038 340.485077 337.926308 
C 341.284807 337.126578 341.734154 336.041758 341.734154 334.910769 
C 341.734154 333.77978 341.284807 332.694961 340.485077 331.895231 
C 339.685347 331.095501 338.600528 330.646154 337.469538 330.646154 
C 336.338549 330.646154 335.25373 331.095501 334.454 331.895231 
C 333.65427 332.694961 333.204923 333.77978 333.204923 334.910769 
C 333.204923 336.041758 333.65427 337.126578 334.454 337.926308 
C 335.25373 338.726038 336.338549 339.175385 337.469538 339.175385 
z
" clip-path="url(#pd989c15a82)" style="fill: #333333; stroke: #000000; stroke-width: 0.6; stroke-linejoin: miter"/>
   </g>
   <g id="text_57">
    <text style="font-size: 6px; font-family: 'Liberation Sans', 'Arial', 'DejaVu Sans', sans-serif; text-anchor: start; fill: #222222" x="343.013538" y="336.462332" transform="rotate(-0 343.013538 336.462332)">Binding</text>
   </g>
   <g id="patch_97">
    <path d="M 368.174769 339.175385 
C 369.305758 339.175385 370.390578 338.726038 371.190308 337.926308 
C 371.990038 337.126578 372.439385 336.041758 372.439385 334.910769 
C 372.439385 333.77978 371.990038 332.694961 371.190308 331.895231 
C 370.390578 331.095501 369.305758 330.646154 368.174769 330.646154 
C 367.04378 330.646154 365.958961 331.095501 365.159231 331.895231 
C 364.359501 332.694961 363.910154 333.77978 363.910154 334.910769 
C 363.910154 336.041758 364.359501 337.126578 365.159231 337.926308 
C 365.958961 338.726038 367.04378 339.175385 368.174769 339.175385 
z
" clip-path="url(#pd989c15a82)" style="fill: #333333; stroke: #000000; stroke-width: 0.6; stroke-linejoin: miter"/>
   </g>
   <g id="text_58">
    <text style="font-size: 6px; font-family: 'Liberation Sans', 'Arial', 'DejaVu Sans', sans-serif; text-anchor: start; fill: #222222" x="373.718769" y="336.462332" transform="rotate(-0 373.718769 336.462332)">Transcription</text>
   </g>
   <g id="patch_98">
    <path d="M 398.88 339.175385 
C 400.010989 339.175385 401.095808 338.726038 401.895538 337.926308 
C 402.695269 337.126578 403.144615 336.041758 403.144615 334.910769 
C 403.144615 333.77978 402.695269 332.694961 401.895538 331.895231 
C 401.095808 331.095501 400.010989 330.646154 398.88 330.646154 
C 397.749011 330.646154 396.664192 331.095501 395.864462 331.895231 
C 395.064731 332.694961 394.615385 333.77978 394.615385 334.910769 
C 394.615385 336.041758 395.064731 337.126578 395.864462 337.926308 
C 396.664192 338.726038 397.749011 339.175385 398.88 339.175385 
z
" clip-path="url(#pd989c15a82)" style="fill: #333333; stroke: #000000; stroke-width: 0.6; stroke-linejoin: miter"/>
   </g>
   <g id="text_59">
    <text style="font-size: 6px; font-family: 'Liberation Sans', 'Arial', 'DejaVu Sans', sans-serif; text-anchor: start; fill: #222222" x="404.424" y="336.462332" transform="rotate(-0 404.424 336.462332)">Output</text>
   </g>
   <g id="text_60">
    <text style="font-weight: 700; font-size: 6.5px; font-family: 'Liberation Sans', 'Arial', 'DejaVu Sans', sans-serif; text-anchor: middle; fill: #ffffff" x="245.353846" y="336.591629" transform="rotate(-0 245.353846 336.591629)">1</text>
   </g>
   <g id="text_61">
    <text style="font-weight: 700; font-size: 6.5px; font-family: 'Liberation Sans', 'Arial', 'DejaVu Sans', sans-serif; text-anchor: middle; fill: #ffffff" x="276.059077" y="336.591629" transform="rotate(-0 276.059077 336.591629)">2</text>
   </g>
   <g id="text_62">
    <text style="font-weight: 700; font-size: 6.5px; font-family: 'Liberation Sans', 'Arial', 'DejaVu Sans', sans-serif; text-anchor: middle; fill: #ffffff" x="306.764308" y="336.591629" transform="rotate(-0 306.764308 336.591629)">3</text>
   </g>
   <g id="text_63">
    <text style="font-weight: 700; font-size: 6.5px; font-family: 'Liberation Sans', 'Arial', 'DejaVu Sans', sans-serif; text-anchor: middle; fill: #ffffff" x="337.469538" y="336.591629" transform="rotate(-0 337.469538 336.591629)">4</text>
   </g>
   <g id="text_64">
    <text style="font-weight: 700; font-size: 6.5px; font-family: 'Liberation Sans', 'Arial', 'DejaVu Sans', sans-serif; text-anchor: middle; fill: #ffffff" x="368.174769" y="336.591629" transform="rotate(-0 368.174769 336.591629)">5</text>
   </g>
   <g id="text_65">
    <text style="font-weight: 700; font-size: 6.5px; font-family: 'Liberation Sans', 'Arial', 'DejaVu Sans', sans-serif; text-anchor: middle; fill: #ffffff" x="398.88" y="336.591629" transform="rotate(-0 398.88 336.591629)">6</text>
   </g>
  </g>
 </g>
 <defs>
  <clipPath id="pd989c15a82">
   <rect x="10.8" y="10.8" width="426.461538" height="332.64"/>
  </clipPath>
 </defs>
</svg>
